<?xml version="1.0" encoding="utf-8"?>
<!-- Generator: Adobe Illustrator 26.0.3, SVG Export Plug-In . SVG Version: 6.00 Build 0)  -->
<svg version="1.1" id="Layer_1" xmlns="http://www.w3.org/2000/svg" xmlns:xlink="http://www.w3.org/1999/xlink" x="0px" y="0px"
	 viewBox="0 0 1500 1500" style="enable-background:new 0 0 1500 1500;" xml:space="preserve">
<style type="text/css">
	.st0{fill:#FFD700;}
	.st1{fill:#FFFFFF;}
	.st2{fill:#0066CC;stroke:#FFFFFF;stroke-width:12;stroke-miterlimit:10;}
	.st3{fill:#3A2835;}
</style>
<g>
	<g>
		<path class="st0" d="M1194.9,700.2c0,46.6-7.6,91.4-21.6,133.3c-2,6-4.2,12-6.4,17.9C1106.1,1008.5,953.6,1120,775,1120
			c-137.8,0-260.1-66.4-336.7-169l-0.3-0.4c-5.1-6.8-9.9-13.8-14.6-20.9l-0.1-0.2c-32.6-49.9-54.9-107.1-63.8-168.6l-0.1-0.4
			c-1.1-7.7-2-15.4-2.7-23.3c-1.1-12.2-1.6-24.7-1.6-37.2c0-57.4,11.5-112.1,32.4-161.9c3.2-7.8,6.7-15.4,10.4-22.9l0.3-0.6
			C466.7,375.9,609.7,280.3,775,280.3c120.1,0,228.3,50.4,304.8,131.2c7.3,7.7,14.3,15.7,21,23.9c44.7,54.9,75.7,121.3,88,194.1
			c0.9,5.4,1.7,10.9,2.4,16.4C1193.7,663.7,1194.9,681.8,1194.9,700.2z"/>
		<path class="st1" d="M1191.4,645.9l-472.1-16.4H1189C1189.9,634.9,1190.7,640.4,1191.4,645.9z"/>
		<path class="st1" d="M1173.2,833.5c-2,6-4.2,12-6.4,17.9l-436-17.9H1173.2z"/>
		<path class="st1" d="M1100.9,435.5l-583.5-23.9h562.5C1087.2,419.2,1094.2,427.2,1100.9,435.5z"/>
		<polygon class="st1" points="423.4,929.6 960.3,929.6 438.4,951 		"/>
		<polygon class="st1" points="398.3,514.8 960.3,514.8 387.6,538.3 		"/>
		<polygon class="st1" points="356.8,737.3 935.5,737.3 359.6,761 		"/>
	</g>
	<g>
		<path class="st2" d="M1350,1219.7h-21.8c-192.5-0.1-385-0.1-577.5-0.1h-41.6c-179.2,0-358.5,0-537.7,0H150l31.3-90.2h0.1
			c21.9-38.1,43.9-76.3,66.1-114.2c2.1-3.6,6-6.8,9.7-8.4c11.4-5,23.3-8.7,34.7-13.7c4.5-2,9.1-5.3,11.9-9.5
			c29.3-43.2,58.1-86.7,87.2-130.2c1.3-2,2.8-3.9,4.7-6.5c13.8,10.8,27.3,21.4,41.2,32.3c15.8-15.2,31.6-30.4,47.4-45.5
			c7.1-6.8,14.5-13.4,21.2-20.7c4.3-4.7,8.5-5.9,14.4-4.4c13.2,3.3,26.7,5.7,39.9,9.1c5.3,1.4,8.5,0,12.1-4.2
			c46.4-54.6,93-109.1,139.5-163.5c2.8-3.3,5.6-6.5,9-10.6c18.4,16.4,36.5,31.1,53,47.8c10,10.1,18.6,12.9,29.7,3.6
			c5.7-4.8,10-3.3,14.9,2.6c20.8,25.1,42.1,49.8,63.4,74.4c2.8,3.2,6.9,5.8,10.8,7.1c29.5,9.4,59.2,18.5,88.8,27.4
			c5.1,1.5,7.5,4.1,8.7,9.9c4.7,22.6,10.1,45,14.8,67.7c1.2,5.7,3.4,6.8,8.3,6.8c19-0.1,38,0.2,57,0.6c3.2,0.1,6.6,1.1,9.4,2.7
			c13.7,8.3,27.3,16.8,40.6,25.6c3.1,2,5.8,5.5,7.4,9c8.1,18.1,15.8,36.4,23.9,55.4c12.4-4.4,24.6-8.3,36.5-13.1
			c5.2-2.1,8.2-0.8,11.6,3.9c33.6,46,67.2,91.9,100.9,137.8l0,0L1350,1219.7z"/>
		<path class="st1" d="M720.5,665.5c6.5,5.8,11.5,10.3,17.3,15.4c-4.8,6.8-8.7,13.3-13.5,19c-4.4,5.4-4.6,9.8-1.3,16.3
			c29.3,57.4,58.2,115.1,87.1,172.7c1.7,3.3,3.2,6.8,5.7,12.2c-14.1-2.5-26.4-4.2-38.6-7c-6.6-1.5-10.1,0.1-13,7
			c-14,32.7-28.4,65.1-42.7,97.6c-1.1,2.4-2.3,4.8-4.6,9.6c-19.4-55.4-38-108.6-57.4-164c-5.7,21.2-10.8,40.3-16,59.3
			c-0.7,0.2-1.3,0.4-2,0.5c-8.7-17.5-17.4-34.9-27.1-54.4c-40.2,65-79.6,128.8-119,192.5c-0.8-0.2-1.6-0.4-2.4-0.6
			c5.3-51.5,10.7-103.1,16.3-156.7c-6,3.9-10.6,7.6-15.7,10.1c-18.9,9-30.8,24.1-37.7,45.4c-6,18.4-14.6,35.7-22.1,53.5
			c-1,2.4-2.2,4.7-3.3,7.1c-0.8-0.1-1.6-0.2-2.3-0.3c0-25.7,0-51.4,0-78.5c-35.3,19.1-62.2,50.8-100,60.2c-0.5-0.6-1.1-1.2-1.6-1.8
			c23.5-35.3,47.1-70.6,71.2-106.7c10.7,8.5,21.3,15.9,30.8,24.6c6.8,6.2,11.1,5.2,17.3-1c20.8-20.8,42.3-40.8,63.2-61.4
			c4.1-4,7.9-5.2,13.1-3.9c13.5,3.3,27.2,5.8,40.7,9.2c5.4,1.4,9,0.3,12.8-4.2c46.6-54.8,93.3-109.5,140-164.2
			C717.4,670.8,718.7,668.3,720.5,665.5z"/>
		<path class="st1" d="M1118.4,956.5c-4.6-0.5-9.2-0.2-13.4-1.5c-6.3-1.9-7.9,1.1-9.2,7c-7.2,31.4-14.8,62.8-22.2,94.1
			c-0.6,2.7-1.4,5.3-4.2,8.5c-8.8-26.1-17.6-52.2-26.9-79.6c-13.1,9.7-25.6,18.8-37.9,28.2c-1.9,1.5-2.8,4.6-3.9,7.1
			c-8,17.8-16,35.7-24,53.5c-1.1,2.4-2.3,4.7-5.4,7c-7.1-28.8-14.3-57.7-21.7-87.7c-22.8,15.7-44.5,30.6-66.3,45.6
			c-0.5-0.6-1-1.3-1.5-1.9c37.2-45.2,74.3-90.4,109.7-133.5c5.9,1.8,9.8,4,13.7,4.1c20,0.3,40.1,0,60.1,0.3
			c3.6,0.1,7.4,1.5,10.8,3.1c17.1,8.3,30.5,21.2,39.9,38.9c0.8,1.4,1.7,2.8,2.4,4.3C1118.6,954.4,1118.4,955.1,1118.4,956.5z"/>
		<path class="st1" d="M1086.3,1086.3c13.3-25,26.5-50.1,40.2-75.8c-6.3-1.2-11.7-2.2-17-3.3c-0.2-0.7-0.4-1.4-0.6-2
			c8.2-5.8,16.4-11.6,25.4-18c2.6,5.3,4.9,9.8,7.5,15c13.2-4.7,26.4-9.1,39.4-14c4-1.5,6.6-1.1,9.3,2.7
			c17.5,24.1,35.2,48.1,52.8,72.2c0.6,0.8,0.9,1.9,2.3,5.3c-8-4.5-14.1-8-22.3-12.7c6.3,19,11.9,35.8,17.5,52.6
			c-0.5,0.5-1,0.9-1.5,1.4c-2.5-2-5.1-3.9-7.6-6c-18.8-16-37.7-31.9-56.3-48.2c-4.4-3.9-8.2-4.3-13.2-1.9
			c-22.1,10.5-44.3,20.8-66.5,31.1c-2.5,1.2-5.1,2.2-7.7,3.3C1087.4,1087.4,1086.9,1086.9,1086.3,1086.3z"/>
		<path class="st1" d="M751.9,712.1c7.4,5.5,15.1,10.5,22,16.6c6.2,5.5,10.9,6,16.9-0.4c5.6-6,12.4-10.8,19.4-16.8
			c8.2,9.6,15.6,19.7,24.4,28c11.4,10.6,14.5,23.6,15,39.1c1,26.5,3.5,52.9,5.3,79.4c0.2,2.7,0,5.5,0,8.2c-0.6,0.3-1.3,0.6-1.9,0.9
			c-7-16.2-14.1-32.3-21.1-48.5c-0.7,0.1-1.4,0.2-2.1,0.3c0,22.5,0,44.9,0,67.4c-1.1,0.3-2.2,0.6-3.2,0.9
			c-25.6-57.9-51.2-115.8-76.8-173.7C750.6,713.1,751.3,712.6,751.9,712.1z"/>
		<path class="st1" d="M851.6,1068.3c0-9.4-0.2-18.9,0-28.3c0.7-24.9,1.7-49.7,2.3-74.6c0.1-2.8-2-5.6-2.8-8.5
			c-0.5-2.1-1-4.6-0.7-6.7c1.1-6.5,2.7-12.9,4.4-20.7c-15.3,2.7-29.5,5.3-43.6,7.8c-0.2-0.7-0.4-1.4-0.6-2.2
			c13.7-11.5,24.6-26.8,42.9-32c30.2-8.6,58.1-23.3,85-40.4c2.4-1.5,5-2.8,8.6-4.8c2.7,8.4,5.5,16.1,7.3,24c0.5,2.1-1.9,5.5-3.7,7.6
			c-19.1,22.6-38.5,45-57.6,67.7c-3.2,3.8-5.8,8.5-7.4,13.3c-10.2,30.2-19.9,60.4-29.9,90.7c-0.8,2.5-1.9,4.9-2.8,7.4
			C852.6,1068.5,852.1,1068.4,851.6,1068.3z"/>
		<path class="st1" d="M362.9,1140.1c37.5-58.3,75-116.7,113.7-176.8c0.7,3.6,1.2,4.8,1.1,6c-3.4,38.6-6.8,77.3-10.5,115.9
			c-0.2,2.5-2.2,5.8-4.2,6.9c-31.7,16.4-63.6,32.4-95.5,48.5c-1.1,0.5-2.3,0.7-3.4,1C363.6,1141.1,363.2,1140.6,362.9,1140.1z"/>
		<path class="st1" d="M282.4,1109.4c38.8-41.4,77.5-82.7,116.8-124.6c0,8.1-0.8,16.9,0.2,25.5c1.6,13.5-3.6,21-13.9,28.1
			c-32.2,22.3-63.8,45.9-95.6,68.9c-2,1.5-4.2,2.7-6.3,4C283.2,1110.6,282.8,1110,282.4,1109.4z"/>
		<path class="st1" d="M977.5,853.8c-6.6-7.6-13.5-14.8-19.6-22.8c-4.2-5.5-7.7-6.3-13.7-3.2c-12.5,6.4-25.4,11.9-39.2,18.2
			c-8.9-17.8-17.6-35.3-27.3-55c4.3,0.8,6.6,1.1,8.8,1.8c26.1,8,52.2,16.2,78.4,24c5,1.5,7.8,3.9,8.7,9.9c1.3,8.7,3.7,17.2,5.6,25.8
			C978.7,853,978.1,853.4,977.5,853.8z"/>
	</g>
	<g>
		<path class="st3" d="M228.3,1025.4c0.1,0,0.2,0.1,0.2,0.1c0,0.2,0,0.4,0,0.5C228.4,1025.8,228.3,1025.6,228.3,1025.4z
			 M246.7,1055.5L246.7,1055.5L246.7,1055.5L246.7,1055.5z M228.3,1025.4c0.1,0,0.2,0.1,0.2,0.1c0,0.2,0,0.4,0,0.5
			C228.4,1025.8,228.3,1025.6,228.3,1025.4z M228.3,1025.4c0.1,0,0.2,0.1,0.2,0.1c0,0.2,0,0.4,0,0.5
			C228.4,1025.8,228.3,1025.6,228.3,1025.4z M246.7,1055.5L246.7,1055.5L246.7,1055.5L246.7,1055.5z"/>
		<path class="st3" d="M658.9,970.7L658.9,970.7L658.9,970.7L658.9,970.7z"/>
		<path class="st3" d="M585.3,928L585.3,928L585.3,928z"/>
		<path class="st3" d="M585.6,930.1c0-0.3-0.1-0.7-0.1-1C585.5,929.4,585.6,929.7,585.6,930.1L585.6,930.1L585.6,930.1z"/>
		<path class="st3" d="M585.6,930.1L585.6,930.1L585.6,930.1L585.6,930.1L585.6,930.1L585.6,930.1z"/>
		<path class="st3" d="M585.6,930.1c0.2,0.2,0.4,0.4,0.6,0.6C586,930.5,585.8,930.3,585.6,930.1L585.6,930.1z"/>
		<path class="st3" d="M585.6,930.1L585.6,930.1L585.6,930.1z"/>
		<path class="st3" d="M597.3,956.7L597.3,956.7L597.3,956.7z"/>
		<path class="st3" d="M597.3,956.7L597.3,956.7L597.3,956.7L597.3,956.7z"/>
		<path class="st3" d="M597.3,956.7L597.3,956.7c-0.6,0.7-1.2,1.3-1.7,2C596.1,958.1,596.7,957.4,597.3,956.7z"/>
		<path class="st3" d="M594.2,957.1c0,0.1-0.1,0.2-0.1,0.2l0,0C594.1,957.2,594.1,957.2,594.2,957.1z"/>
		<path class="st3" d="M594.5,963.1L594.5,963.1L594.5,963.1L594.5,963.1L594.5,963.1C594.5,963.2,594.5,963.1,594.5,963.1z"/>
		<path class="st3" d="M590.1,962L590.1,962L590.1,962C590,962,590,962,590.1,962C590,962,590.1,962,590.1,962z"/>
		<path class="st3" d="M590.1,962L590.1,962L590.1,962L590.1,962L590.1,962C590,962,590,962,590.1,962z"/>
		<path class="st3" d="M590.1,962L590.1,962c-0.1,0.1-0.3,0.1-0.4,0.2C589.9,962.1,590,962.1,590.1,962z"/>
		<path class="st3" d="M571.5,925L571.5,925L571.5,925L571.5,925C571.5,925,571.4,925,571.5,925C571.4,925,571.5,925,571.5,925z"/>
		<path class="st3" d="M564.4,939.2c0.1,0.1,0.1,0.1,0.2,0.2C564.6,939.4,564.5,939.3,564.4,939.2L564.4,939.2z"/>
		<path class="st3" d="M550.1,931.1c0.1,0,0.2,0,0.3,0C550.4,931.1,550.2,931.1,550.1,931.1L550.1,931.1z"/>
		<path class="st3" d="M550.1,931.1L550.1,931.1C550.1,931,550.1,931,550.1,931.1L550.1,931.1L550.1,931.1z"/>
		<path class="st3" d="M552.8,951.8c0,0.1,0.1,0.2,0.1,0.3l0,0C552.8,952,552.8,951.9,552.8,951.8z"/>
		<path class="st3" d="M554.5,1021.6L554.5,1021.6c-0.1,0.2-0.2,0.4-0.3,0.7C554.3,1022,554.4,1021.8,554.5,1021.6z"/>
		<path class="st3" d="M395.1,811.4h0.1C395.2,811.3,395.2,811.3,395.1,811.4C395.1,811.3,395.1,811.3,395.1,811.4z"/>
		<path class="st3" d="M236.7,1019.4C236.7,1019.5,236.7,1019.5,236.7,1019.4C236.7,1019.5,236.7,1019.5,236.7,1019.4
			C236.7,1019.5,236.7,1019.5,236.7,1019.4z"/>
		<path class="st3" d="M246.7,1055.5L246.7,1055.5L246.7,1055.5L246.7,1055.5L246.7,1055.5L246.7,1055.5z"/>
		<path class="st3" d="M228.2,1021.7c0,0.4,0.1,0.8,0.1,1.2l0,0C228.3,1022.5,228.3,1022.1,228.2,1021.7z"/>
		<path class="st3" d="M228.4,1022.9L228.4,1022.9L228.4,1022.9L228.4,1022.9L228.4,1022.9z"/>
		<path class="st3" d="M239.9,1053.5c-0.1,0.1-0.3,0.3-0.4,0.4l0,0C239.6,1053.8,239.8,1053.7,239.9,1053.5z"/>
		<path class="st3" d="M239.5,1054C239.5,1054,239.4,1054,239.5,1054L239.5,1054L239.5,1054L239.5,1054L239.5,1054
			c0,0-0.1,0-0.1-0.1C239.4,1053.9,239.4,1054,239.5,1054z"/>
		<path class="st3" d="M237.9,1053.2c-0.1,0-0.2-0.1-0.3-0.1C237.7,1053.2,237.8,1053.2,237.9,1053.2z"/>
		<path class="st3" d="M239.5,1054L239.5,1054L239.5,1054z"/>
		<path class="st3" d="M318.6,1021.1C318.7,1021.1,318.7,1021.1,318.6,1021.1C318.7,1021.1,318.7,1021.1,318.6,1021.1
			C318.7,1021.1,318.7,1021.1,318.6,1021.1L318.6,1021.1L318.6,1021.1L318.6,1021.1L318.6,1021.1L318.6,1021.1z"/>
		<path class="st3" d="M585.6,930.1L585.6,930.1L585.6,930.1L585.6,930.1z"/>
		<path class="st3" d="M585.6,930.1L585.6,930.1L585.6,930.1z"/>
		<path class="st3" d="M237.1,1053.3L237.1,1053.3L237.1,1053.3C237,1053.3,237.1,1053.3,237.1,1053.3z M237.1,1053.3L237.1,1053.3
			L237.1,1053.3C237,1053.3,237.1,1053.3,237.1,1053.3z"/>
		<path class="st3" d="M220,1004.2c0.1,0,0.1,0.1,0.2,0.1l0,0C220.1,1004.3,220.1,1004.3,220,1004.2
			C220,1004.3,220,1004.2,220,1004.2z M220,1004.2c0.1,0,0.1,0.1,0.2,0.1l0,0C220.1,1004.3,220.1,1004.3,220,1004.2
			C220,1004.3,220,1004.2,220,1004.2z M220,1004.2c0.1,0,0.1,0.1,0.2,0.1l0,0C220.1,1004.3,220.1,1004.3,220,1004.2
			C220,1004.3,220,1004.2,220,1004.2z"/>
		<path class="st3" d="M194.9,1075c-8.8-38.5,7.7-79,41.6-99.1c25-14.9,51.8-18,79.6-8c1.5,0.5,3,1.2,4.5,1.9
			c1.4,0.6,2.3,0.2,2.6-1.3c1.5-8.1,2.9-16.3,4.4-24.4c0.1-0.5,0-1,0.1-1.8c-2.8,1.6-3.7-0.6-5.1-2.1c-1.3-1.6-2.8-3.2-4.4-4.3
			c-14.3-9.9-27.5-21.4-41.4-31.8c-15.5-11.6-28.9-25.2-42.8-38.4c-8.3-7.9-12-18.2-11.6-29.5c0.1-4.2,2.6-8.4,4-12.5
			c0.8-2.4,2-4.7,2.2-7.2c0.6-8.1,3.7-14.9,8.8-21.1c9.5-11.8,19.1-23.7,28.2-35.8c6.4-8.5,14.7-14.9,22.8-21.6
			c6.7-5.5,13.6-10.8,20.5-16c8-6,17.2-9.2,27-10.7c2.6-0.4,5.2-0.2,7.7-0.7c4.9-1.1,13.7,0.8,15.7,1.1c2.5-3.8,1.6-8-2.2-10.3
			c-0.7-0.4-1.3-0.9-2-1.3c-3-1.8-5-3.8-4.2-7.8c0.5-2.4,0-4.9-0.1-7.4c0-0.6-0.4-1.4-0.9-1.7c-1.8-1.2-2.3-2.9-2-4.8
			c0.4-2.3,1-4.6,2-6.7c0.4-0.9,2.3-1.4,3.5-1.4c1.7,0,3.3-0.1,4.2-1.7c1.9-3.4,5-5.6,8.3-7.5c0.3-0.1,0.5-0.4,0.7-0.6l6.4-2.9
			c9.8-2.3,19.1,1.1,28.5,3c6.3,1.3,21.9,10.1,22.8,10.6c7.3,4,14.5,8,21.7,12c2.3,1.2,2.2,1.5,1.2,3.8c-1.5,3.5-3.6,5.2-7.8,4.3
			c-3.7-0.8-7.7-0.4-11.5-1.1c-3-0.5-4.5,0.8-5.6,3.2c-2,4.3-3.9,8.7-5.7,13.1c-0.3,0.8,0,1.9-0.1,2.8c-0.1,1.3,0,2.6-0.3,3.9
			c-0.3,1.1-1,2.1-1.5,3.2c-0.6,1.4-1.3,2.6-3.1,2.3c-0.4,0-0.8,0.4-1.1,0.6c0.2,0.4,0.4,1,0.7,1.2c1.4,0.7,2.8,1.5,4.3,1.7
			c2.7,0.4,5.4,0.5,8.2,0.7c0.7,0,1.4,0,2.1,0c-0.1,3.3-0.3,6.1-3.7,7.9c-2.8,1.5-4,4.5-5.1,7.4c-0.3,0.8-0.8,1.7-0.9,2.6
			c-0.5,2.9-2.9,3.4-5.1,4.1c-0.4,0.1-1.1-0.3-1.5-0.6c-2.9-2.4-5.8-4.9-8.6-7.4c-0.8-0.7-1.5-1-2.6-0.5c-3.3,1.6-6.6,0.9-9.8-0.6
			c-3.1-1.5-4.2-0.9-4.6,2.6c-0.4,3.4-1.1,6.7-1.1,10.1c0,2.4,0.7,4.9,1.4,7.2c0.7,2.7,1.7,5.3,1.1,8.2c-0.2,1.1,0.3,2.3,0.6,3.4
			c1.5,4.8,1.8,7.6,1.1,12.2c3,1,6.1,1.9,9,3.1c1.7,0.7,3,2.1,4.6,3.2c0.7,0.5,1.6,0.9,2.4,1.1c4.1,0.9,8.3,1.7,12.4,2.7
			c1.3,0.3,2.6,0.7,3.6,1.4c5.3,3.7,10.7,3.3,16.1,0.7c2.7-1.3,5.5-1.8,8.5-1.5c1.9,0.2,3.2,1,4.3,2.6c0.9,1.4,2.3,2.6,3.8,3.6
			c4.4,2.8,8.9,5.4,13.4,8.1c0.3,0.2,0.8,0.3,1,0.6c1.4,2.3,2.5,4.6,5.2,5.7c0.3,0.1,0.5,1.2,0.3,1.6c-0.6,1.6,0.2,2.8,1.2,3.8
			c2,2.3,7.2,7.3,7.2,7.3c0.5,1.4,2.3,5.9,3.2,5.8c0,0,0.1,0,0.1,0.1c-0.5,1.6-0.9,3.2-1.6,4.7c-0.3,0.6-1.4,0.8-2.2,1
			c-0.5,0.1-1-0.4-1.9-0.9c0.3,2.4,0.9,6.3,0.9,6.4c0.1,0.4,3.6,6.5,5.1,8.2c0,0,7.5,8.3,10.7,11.5c3.7,3.7,7.6,7.4,11.3,11.1
			c0.5,0.5,0.6,1.5,1,2.2c0.2,0.4,0.4,0.8,0.7,1.1c9.8,11,19.6,22,29.4,33c0.3,0.3,0.6,0.5,1,0.8c0.1-0.1,0.3-0.2,0.4-0.2
			c-0.8-2.4-1.6-4.7-2.4-7.1c-0.8-2.3-0.8-2.5,1.5-3.5c1.2-0.5,2.4-1.1,3.7-2.2c-0.1-0.1-0.3-0.1-0.4-0.2c0.1,0,0.1,0,0.2-0.1
			c0.1-0.1,0.3-0.1,0.4-0.2c1.5,2.1,2.9,4.2,4.3,6.3c4.1-3.2,7.8-5.5,10.6-7.2c2.1-1.2,7.8-4.5,15-7.1c1.8-0.6,7.2-2.5,7.3-2.5
			c5.7-1.8,13.8-3.6,23.6-4c11.4-0.4,20.4,1.5,25.4,2.8c8.6,2.2,16.9,5.8,24.8,10.6c2,1.2,4,2.5,6.1,4c3.8,2.7,7,5.6,9.6,8.2
			c6.8,6.7,9.5,10.8,11,13.1c1.7,2.5,3.4,5.1,4.9,7.8c0.3,0.5,0.7,0.9,1,1.4l5.3,11.8c1.2,4.2,2.5,8.3,3.5,12.6
			c1.4,6.2,1.9,11.1,2.1,13c0.5,5.1,0.8,12,0.1,20.1c-0.7,4.3-1.8,9.1-3.3,14.2c-1.4,4.7-3,8.9-4.6,12.6
			c-2.9,6.9-8.5,17.5-18.6,27.8c-2.2,2.2-9,9.4-19.4,14.8c-7,3.6-39.1,19.3-75.1,7.2c-21.7-7.3-35-21.5-39.5-26.4
			c-27.8-30-31.2-65.1-15.4-102.8c-2.2,1-4.1,1.9-6.1,2.7c-2,0.9-4.1,1.7-6.2,2.4c-1,0.3-2.1,0.5-3.1,0.4c-0.9-0.1-2.1-0.6-2.6-1.3
			c-0.3-0.4,0.4-1.9,1-2.4c3.9-3.7,7.9-7.2,11.7-10.9c4.3-4.1,8.4-8.4,12.6-12.6c0.1-0.1,0.2-0.3,0.4-0.6c-0.7-0.8-1.5-1.6-2.2-2.4
			c-8.2-9-16.4-18.1-24.5-27.1c-1.1-1.2-2-2.6-4-1.3c-0.3,0.2-1.3-0.3-1.7-0.7c-2.3-2.1-4.6-4.3-6.8-6.4c-1-0.9-1.8-1.1-2.9-0.3
			s-2,0.9-3.1-0.2c-0.3-0.4-1.4-0.5-2-0.3c-4.3,1.7-7.9,4.4-9.8,8.8c-4.2,9.4-8.5,18.8-12.4,28.3c-7.2,17.6-14.1,35.3-21.2,52.9
			c-0.2,0.5-0.3,0.9-0.6,1.7c2-1,3.6-2,5.4-2.8c5.6-2.5,12.2,1.5,12.3,7.6c0,2.1-1.4,4.3-2.6,6.1c-1.4,2-3.2,3.8-5.1,5.5
			c-1.5,1.3-3.2,2.3-4.8,3.4c-1.8,1.2-3.5,2.5-5.4,3.9c0.9,0.2,2,0.5,3,0.9c0.5,0.2,0.9,0.7,1.3,1c-0.4,0.4-0.6,0.9-1.1,1.2
			c-1,0.7-2.1,1.2-3.4,1.9c0.1-0.5,0.2-0.9,0.3-1.5c-1.5,0.2-2.7,0.6-3.3,2.1c-0.1,0.1,0.5,0.5,0.9,0.9c-0.1,0.5,0,1.4-0.3,2.2
			c-0.5,1.2-0.9,2.6-1.8,3.5c-3.7,4.1-7.6,8-11.5,12.1c-0.6,0.6-1.1,1.2-1.6,1.8c1.8,1.8,3.4,3.3,3.9,5.8c0.3,1.7,1.4,3.2,2.1,4.8
			c0.1,0.1,0.2,0.2,0.2,0.3c0,4.2,1.6,8.3-1.1,12.4c-4.2,6.6-9.3,11.4-17.5,12.3c-2.5,0.3-4.9,1.3-7.2,2.5
			c-7.9,4.2-15.6,8.6-23.4,13c-1.1,0.6-1.6,1.4-1.8,2.7c-3.8,26.6-16.3,48.1-38.4,63.3c-23.4,16.1-49.1,20.4-76.5,12.9
			c-22.3-6.2-39.6-19.4-52.2-38.8c-1.2-1.8-2.3-3.6-3.4-5.4l-5.3-11.8C197.1,1082.9,195.8,1079,194.9,1075z M561,948.1
			c-5.2-5.7-10.4-11.3-15.6-17c-0.1-0.1-0.3-0.2-0.6-0.4c-0.6,0.9-1.2,1.8-1.9,2.8c6.3,5.8,12.6,11.5,18.8,17.1
			c0.1-0.1,0.2-0.2,0.4-0.2C561.8,949.6,561.6,948.7,561,948.1z M563.9,951.2c0,1.6,1.4,3.2,5.5,5.8
			C567.6,955.1,565.8,953.2,563.9,951.2z M564.3,953.9c-0.1,0.1-0.2,0.1-0.4,0.2c0.7,2.5,1.2,5,2.1,7.4c0.3,0.8,1.5,1.5,2.4,1.7
			c2.1,0.4,4.2,0.5,6.4,0.3C571.3,960.3,567.8,957.1,564.3,953.9z M573.9,973.4c1.1-0.4,2.4-0.7,2-2.3c-0.2-0.5-1-1.2-1.5-1.2
			c-1.9,0.1-3.7,0.4-5.8,0.7c0.4,1.6,0.8,3,1.1,4.3C571.3,974.4,572.6,973.9,573.9,973.4z M573,978.7c1,0.2,2,0.1,3,0.1
			c0-1.5-1.4-3.2-2.7-3c-0.6,0.1-1.2,1-1.5,1.6C571.8,977.6,572.5,978.6,573,978.7z M604,1000c1.9-0.2,2.9-0.4,3.1-2.3
			c0.1-1.1,1.3-2.2,2-3.3c0.7-1,0.5-1.8-0.4-2.7c-1.2-1.2-2.3-2.4-3.6-3.9c-1.8,3.4-3.4,6.5-5.1,9.8c0.8,0.1,1.4,0.2,2,0.2
			c-0.6,0.7-1.1,1.3-1.7,2c2.4,0.6,3.4-0.1,3.3-2.1c0.7-0.1,1.5-0.1,2.3-0.2C605.4,998.3,604.9,999,604,1000z M619.5,994.2
			c2-0.7,2.4-2.2,1.3-3.6c-0.1-0.2-0.1-0.5-0.1-0.7c0-1.2,0.1-2.3-0.1-3.5c-0.7-4.1-1.4-4.5-5.9-3.8c1.1,3.2,2.2,6.4,3.3,9.6
			l1.5-0.7C619.5,992.5,619.5,993.3,619.5,994.2z M619.8,980.3c0.1,1.3,0.9,1.9,2.3,1.8c0.9-0.1,1.8,0.1,2.7,0.1
			c0-0.1,0.1-0.2,0.1-0.4c-1.4-1-2.8-2.1-4.6-3.5c2.5-0.4,4.6-0.7,7.2-1.1c-1.5-0.9-2.6-1.5-3.7-2.2c0.1-0.1,0.2-0.3,0.2-0.4
			c0.6,0.4,1.2,0.8,1.8,1.2c0.1-0.2,0.3-0.5,0.4-0.7c-2.3-2.8-4.5-5.8-8.3-6.9c-0.6-0.2-1.6,1-2.6,1.7c0.7,0.6,1.1,1,1.9,1.7
			c-0.9-0.2-1.4-0.3-2.2-0.4c0.1,0.8,0.1,1.5,0.3,2.5c0.7-0.5,1.2-0.8,1.7-1.1c0.1,0.1,0.1,0.1,0.2,0.2c-0.3,0.5-0.7,1-1.1,1.7
			C618.6,975.7,619.5,977.8,619.8,980.3z M626.7,980.7L626.7,980.7L626.7,980.7L626.7,980.7c0.1,0.3,0.1,0.7,0.2,1.1
			c0,0.1,0,0.3,0.1,0.4c0.5,0.1,1,0.1,1.6,0.2c-0.1-0.1-0.2-0.3-0.3-0.4c0.6-0.7,1.1-1.3,1.7-2l0,0l0,0c0,0.1,0,0.1,0,0.2
			c0,0.2-0.1,0.4-0.1,0.6c0,0.2,0,0.4-0.1,0.6c0,0.3-0.1,0.7-0.1,1c2.8,0.2,5.7,0.3,8.6,0.5c0.1-0.1,0.1-0.2,0.1-0.4
			c-2.5-1.3-5-2.6-7.6-3.9c-0.3,0.5-0.5,0.9-0.8,1.3l0,0l0,0l0,0l0,0l0,0c-0.2-0.8-0.1-1.9-0.7-2.2c0,0,0,0-0.1,0c0,0,0,0-0.1,0
			c-0.2,0-0.4,0-0.7,0.1c0,0.1-0.1,0.2-0.1,0.2c-0.1,0.1-0.2,0.2-0.2,0.4c-0.1,0.1-0.1,0.2-0.2,0.3c-0.1,0.1-0.1,0.2-0.2,0.3l0,0
			c0,0.1-0.1,0.1-0.1,0.2l-0.1,0.1c-0.1,0.2-0.3,0.4-0.4,0.6c-0.1,0.1-0.1,0.2-0.2,0.3C626.8,980.5,626.8,980.6,626.7,980.7
			C626.7,980.6,626.7,980.6,626.7,980.7C626.7,980.6,626.7,980.6,626.7,980.7C626.7,980.6,626.7,980.7,626.7,980.7
			c0-0.1,0-0.2,0-0.3c0-0.2,0.1-0.4,0.1-0.6c0-0.2,0-0.4,0.1-0.5c0-0.3,0.1-0.7,0.1-1c-1.6,0.2-3.1,0.3-5.1,0.6c1.5,1.2,2.7,2.1,4,3
			c0.3-0.3,0.5-0.6,0.6-0.8C626.5,980.9,626.6,980.8,626.7,980.7C626.6,980.7,626.6,980.7,626.7,980.7L626.7,980.7z M618,951.4
			L618,951.4L618,951.4L618,951.4c0-0.2,0-0.4-0.1-0.6v-0.1c0-0.2-0.1-0.4-0.2-0.6c0-0.1-0.1-0.1-0.1-0.2l-0.1-0.1
			c-0.1-0.1-0.1-0.1-0.2-0.1c-0.1,0-0.1-0.1-0.2-0.1c-0.3-0.1-0.6-0.1-1-0.1c-0.3,0-0.8,0.9-0.7,1.2c0.2,0.5,0.5,0.8,0.8,1h0.1
			c0.4,0.2,0.9,0.1,1.5-0.1C617.8,951.5,617.8,951.5,618,951.4L618,951.4L618,951.4C618,951.5,618,951.5,618,951.4
			C618,951.5,618,951.5,618,951.4L618,951.4c0.1,0.4,0.1,0.7,0.2,1c0.1,0.3,0.1,0.7,0.1,1c0,0,0,0-0.1,0l0,0
			c-1.5-0.8-2.9-1.7-4.6-2.6c-0.3,3.2-0.5,6.1-0.8,9.3c2.5-0.3,4.9-0.5,7.2-0.9c1.3-0.2,1.6-2,0.6-3.3c-0.4-0.5-0.8-0.9-1.2-1.3
			c-0.2-0.2-0.4-0.4-0.6-0.6c-0.2-0.2-0.4-0.4-0.6-0.6c0,0,0,0,0.1,0l0,0l0,0l0,0l0,0l0,0c0.1,0,0.1,0,0.2,0c0.7,0,1.4-0.1,2-0.2
			c0.1,0,0.1-1.1,0-1.1c-0.7-0.3-1.5-0.4-2.2-0.6C618.2,951.5,618.1,951.5,618,951.4L618,951.4z M609.1,954.8c2.1-1.4,4-4.5,3.9-6.9
			c-1.1,0-2.3,0-4.1,0c0.8,1.6,1.4,2.6,2.1,3.8C610.5,952.6,607.9,952.6,609.1,954.8z M605.6,946.6c-0.4-0.3-0.8-0.9-1.1-0.9
			c-0.6,0-1.1,0.5-1.7,0.8c0.4,0.6,0.8,1.2,1.2,1.8l0,0l0,0c0,0,0,0,0.1,0c-0.9,0-1.9,0.1-2.8,0.1l0,0c0.3-0.9,1.9-2-0.2-2.6
			c-0.4-0.1-1,0.5-1.6,0.8c0.3,0.5,0.6,1,1,1.4c0.2,0.2,0.5,0.3,0.8,0.4l0,0l0,0l0,0c-1-0.1-1.7,0.2-2.3,0.6
			c-0.1,0.1-0.2,0.1-0.2,0.2c-0.4,0.3-0.6,0.7-0.9,1.1c-0.1,0.2-0.2,0.4-0.3,0.5c0,0.1-0.1,0.2-0.1,0.3s-0.1,0.2-0.1,0.3
			c-0.1,0.4-0.3,0.8-0.4,1.2c-0.1,0.4-0.1,1,0.2,1.2c1.4,1.6,2.8,3.2,4.3,5c2.2-3.3,5.2-5.7,6.1-9.8c-1.2-0.2-2.3-0.5-3.4-0.7
			c0,0,0,0,0-0.1C604.6,947.7,605.1,947.2,605.6,946.6z M592.9,950.1c-1.7-2-3.4-4-5.1-6c1.2,5.8,1.1,5.7,2.6,4.9
			C590.8,951.3,590.9,951.4,592.9,950.1z M590.3,952.5c1.3,1,2.5,2,4.1,3.3c-0.1-0.9-0.1-1.4-0.1-1.8
			C593.9,950.3,593.6,950.2,590.3,952.5z M579.3,974.4c2.4,1.8,4.5,3.3,6.8,5c0.4-0.3,1-0.8,1.5-1.3c-1.1-0.9-2-1.6-3.3-2.7
			c0.6,0,0.9,0,1.2,0.1l0,0c0-0.1,0-0.2-0.1-0.3c-0.2-0.9-0.7-1.8-1.3-2.5c-0.1-0.1-0.2-0.2-0.3-0.3c-0.5-0.5-1-0.8-1.6-1.1
			c-0.1,0-0.2-0.1-0.2-0.1c-0.1,0-0.2-0.1-0.3-0.1s-0.2,0-0.3,0c-0.2,0-0.4,0-0.7,0c0.6,1,1,1.7,1.4,2.3
			C581.3,973.7,580.3,974,579.3,974.4z M575.1,964.7c-1.3-0.2-2.7-0.3-4.1,0c0.9,0.5,1.7,1,2.6,1.4c0.9,0.5,1.7,0.9,2.8,1.4
			C577.2,965.8,576.8,964.9,575.1,964.7z M599.9,996.4c1.2-2.3,2.3-4.4,3.5-6.6C599.3,991.9,598.9,992.8,599.9,996.4z M598.4,984.9
			c0.2,2.4,0.5,4.4,0.7,6.6C602.5,988.9,602.4,986.8,598.4,984.9z M598.3,990.5c-0.3-1.8-0.4-3.5-0.6-5.4c-1.1,0.8-1.7,4.9-1.3,8.2
			C598,993.1,598.6,992.1,598.3,990.5z M596,986.1c-2.1,0.3-4.1,0.2-5.9,0.9c-1,0.4-1.7,2-2.2,3.2c-0.2,0.5,0.3,1.6,0.8,2.1
			c0.9,0.9,2.1,1.5,3.2,2.2c1.8,1,3.4,0.1,3.6-1.9C595.7,990.4,595.8,988.3,596,986.1z M592.4,982c-0.8-0.9-1.6-1.7-2.8-3.1
			c-0.6,1.4-0.9,2.2-1.3,3.1c1.3,0.2,2.5,0.4,3.8,0.6C592.2,982.4,592.3,982.2,592.4,982z M588.1,983.8c-2.2-0.8-2.4,1-3.6,2.4
			C586.4,985.8,588,986,588.1,983.8z M586.5,982.4l-0.8-1.7c-1,0.8-1.8,1.5-2.6,2.2c0.1,0.2,0.2,0.4,0.3,0.6
			C584.4,983.1,585.4,982.7,586.5,982.4z M585.1,980.2c-1.4-1.4-2.7-2.7-4-3.9c-0.3-0.3-1-0.4-1.4-0.2c-0.3,0.1-0.5,0.8-0.4,1.1
			c0.2,0.9,0.4,1.8,0.9,2.5c0.6,0.9,1.5,1.7,2.4,2.7C583.3,981.8,584.1,981.1,585.1,980.2z M564.8,934.5
			c5.4,6.3,10.7,12.6,16.2,18.8c0.4,0.5,1.2,0.8,1.8,1.1v0.1l0,0l0,0c-0.1,0.3-0.1,0.6-0.1,0.8c0,0.1,0,0.3,0,0.4v0.1v0.1
			c0.1,0.7,0.7,0.8,2.1,0.8c-0.1-1-0.3-1.8-1.1-2.1h-0.1c-0.1,0-0.2,0-0.3-0.1c-0.1,0-0.1,0-0.2,0l0,0c-0.1,0-0.2,0-0.3,0l0,0
			c0.1,0,0.1-0.1,0.2-0.1c0.1-0.1,0.1-0.1,0.2-0.2c0.4-0.3,0.9-0.7,1.4-1.1c0.2,0.8,0.4,1.3,0.7,2.5c0.9-1.1,1.6-1.8,2.2-2.5
			c-0.6-0.4-1.1-0.8-1.8-1.2c0.1-0.1,0.5-0.5,1.1-1c-7.4-5.8-14.8-11.5-22.5-17.5C564.6,934,564.7,934.3,564.8,934.5z M585.2,956.8
			c-0.2,0.2-0.2,0.9,0,1.2c2.2,2.5,4.4,4.9,6.7,7.4c0.2,0.2,0.6,0.2,1.3,0.4c-1.3-4.4-2.6-8.3-3.9-12.8
			C587.8,954.3,586.5,955.5,585.2,956.8z M593.3,963.5c0.4-2.6,0.8-4.7,1.1-6.9c-1.2-0.9-2.5-1.9-4.2-3.2
			C591.3,957,592.2,960.1,593.3,963.5z M611.3,980c-0.9,0.1-1.7,0.4-2.5,0.7c0.1,0.2,0.2,0.5,0.3,0.7c0.9,0,1.8,0.1,3,0.1
			C611.8,980.8,611.5,980,611.3,980z M597.1,962.6L597.1,962.6c0,0.1-0.1,0.1-0.2,0.1c-0.2,0.1-0.4,0.2-0.5,0.3s-0.2,0.2-0.2,0.3
			c-0.1,0.1-0.1,0.2-0.1,0.4c0,0.1,0,0.1,0,0.2c0,0.1,0,0.2,0,0.2c0,0.1,0,0.2,0.1,0.3c0.1,0.3,0.2,0.5,0.3,0.8
			c0.2,0.6,1.1,0.9,1.9,1.4c0.4-1.2,0.3-2-0.1-2.7c-0.1-0.1-0.1-0.2-0.2-0.3c-0.1-0.1-0.2-0.2-0.3-0.3l-0.1-0.1
			c-0.1-0.1-0.2-0.2-0.3-0.3C597.2,962.7,597.2,962.7,597.1,962.6L597.1,962.6L597.1,962.6c1-0.4,1.9-0.7,3.3-1.3
			c-1.8-1.4-3.2-2.5-4.6-3.5c0,0.2,0,0.5,0,0.7s0,0.3,0,0.5c0,0.1,0,0.2,0,0.2c0,0.2,0,0.3,0,0.5s0,0.3,0,0.5c0,0.1,0,0.2,0,0.3
			s0,0.2,0,0.3s0,0.1,0,0.2c0,0.1,0,0.1,0,0.2v0.1c0,0.1,0.1,0.2,0.1,0.3s0.1,0.2,0.2,0.3c0,0.1,0.1,0.1,0.1,0.1l0.1,0.1
			c0,0,0.1,0.1,0.2,0.1c0.1,0,0.1,0.1,0.2,0.1c0.1,0,0.1,0.1,0.2,0.1C596.9,962.5,597,962.5,597.1,962.6L597.1,962.6z M604,982.6
			c0.3,0.5,0.6,1,0.9,1.5c0.6-0.5,1.2-1,1.8-1.5c-0.2-0.3-0.4-0.6-0.6-0.9L604,982.6z M610.8,983.7c-1.2-0.7-3.2,0.1-4.4,1.8
			c1.6,1.2,3.2,2.4,4.8,3.6C612.3,986.8,612.1,984.3,610.8,983.7z M606.2,986.2c-0.2,0.1-0.3,0.3-0.5,0.4c0.7,2.3,2.9,3.5,4.4,5.7
			c0.4-1,0.7-1.7,1-2.4C609.4,988.6,607.8,987.4,606.2,986.2z M596.7,957.6c1.2,0.9,2.4,1.9,3.6,2.8c0.2-0.2,0.4-0.4,0.6-0.5
			c-0.9-2.2-2.9-3.5-4.2-5.5C595.1,956.1,595.2,956.4,596.7,957.6z M594.6,950.2c0.4,0.5,2,0.9,2,0.9c0.7-1.3,1.3-2.8,1.9-4.2
			c-0.6-0.2-1.2-0.4-1.4-0.5C595.1,947.3,593.9,949.2,594.6,950.2z M608.5,957.3c-1.2,1.5-2.1,2.6-3.4,4.3c1.6-0.1,2.5-0.2,3.8-0.2
			C608.7,960.1,608.6,959,608.5,957.3z M612.9,973c-0.2,1.3-0.4,2.2-0.5,3c0.2,0.1,0.4,0.2,0.5,0.2c0.6-0.5,1.2-1,1.9-1.7
			C614.2,974,613.7,973.7,612.9,973z M604.7,960.6c3.7-3.7,3.9-4.1,3.3-6.7C604.8,955.3,603,958.9,604.7,960.6z M609.7,960.7
			c1.8,0.1,2.7-0.6,2.7-2.7c-0.1-1.8,0.2-3.7,0.4-6C610.3,954.7,608,957,609.7,960.7z M612.4,962.9c0.2,0.2,0.4,0.3,0.7,0.5
			c2.7-0.9,5.3-1.8,7.9-2.8c0-0.2-0.1-0.4-0.1-0.6c-2.4,0.3-4.8,0.4-7.1,0.9C613.2,961,612.8,962.2,612.4,962.9z M620.1,964.4
			c2.1-0.3,3.8-0.5,6.1-0.8c-1.2-1.2-2-2.1-3-3.1C622,962,621.2,963.1,620.1,964.4z M626,964.9c-1.4,1.3-2.9,2.7-4.2,3.9
			c0,0.3,0,0.4,0.1,0.5c1.4,1.1,2.4,3.1,4.6,2C627.9,970.7,627.6,968,626,964.9z M624.9,965c-0.1-0.2-0.1-0.3-0.2-0.5
			c-2.1,0.9-5-0.5-6.6,2.5c0.9,0.5,1.8,1,2.9,1.6C622.3,967.4,623.6,966.2,624.9,965z M618.2,965.4c-1.5,0.2-2.8,0.4-4,0.5
			C615.5,966.3,617,967.8,618.2,965.4z M617.9,964.6c1.3-0.4,2.4-1.7,3.5-2.6c-0.1-0.2-0.3-0.4-0.4-0.6c-2.8,1-5.6,2-8.4,2.9
			c0,0.3,0.1,0.6,0.1,0.9C614.5,965,616.3,965.2,617.9,964.6z M612.8,966c-1.2,2.6-0.1,3.4,1.6,3.8c0.2-0.1,0.4-0.3,0.6-0.4
			C614.4,968.3,613.7,967.3,612.8,966z M613.5,978.9c1.7-0.2,3-0.3,4.3-0.4C615.8,976.8,615,976.9,613.5,978.9z M609,963.8
			c0.2-0.3-0.4-1.5-0.6-1.5c-0.8,0.1-1.9,0.2-2.2,0.7c-0.4,0.6,0,1.6,0,2.5c0.3,0.1,0.5,0.2,0.8,0.3
			C607.7,965.1,608.5,964.6,609,963.8z M610.6,946.7c0.5,0.3,1.2,0.4,1.8,0.3c0.4,0,0.9-0.6,0.9-0.9c0.2-2,0.3-3.9,0.5-5.9
			c-0.1,0-0.2-0.1-0.3-0.1c-0.9,1.7-1.8,3.5-2.7,5.3C610.5,945.8,610.4,946.6,610.6,946.7z M621,953.6c-0.3-0.1-0.8,0.7-1.2,1.1
			c0.3,0.3,0.5,0.5,0.8,0.7c0.6,0.2,1.3,0.5,1.9,0.5c0.2,0,0.7-1.1,0.6-1.2C622.5,954.2,621.8,953.7,621,953.6z M622.4,956.7
			c-0.2,1-0.4,2.1-0.6,3.1c0.2,0.1,0.5,0.2,0.7,0.2c0.6-0.7,1.3-1.5,2.3-2.6C623.7,957.1,623,956.9,622.4,956.7z M627.7,964.7
			c-0.1,0.5-0.5,1.2-0.3,1.6c0.2,0.5,0.9,0.8,1.9,1.5c0.1-1.2,0.3-1.9,0.1-2.2C629,965.2,628.3,965,627.7,964.7z M628.4,967.8
			c-0.1,0.6-0.5,1.4-0.3,1.8c0.2,0.5,1,0.7,1.5,1.1c0.2-0.6,0.5-1.2,0.8-2.2C629.5,968.2,629,968,628.4,967.8z M628.9,971.6
			c-0.5-0.3-1.4-0.4-1.8-0.2c-0.4,0.3-0.9,1.4-0.7,1.7c0.8,1.4,1.8,2.7,3,4.4C630.2,975.6,629.8,972.2,628.9,971.6z M614.1,979.8
			c0.3,2.1,0.9,2.3,5.3,1.9C618.5,978.7,618.3,978.7,614.1,979.8z M613.9,982.3c-0.3,0.1-0.7,0.1-1,0.2c0.3,2.8,0.3,5.6,1,8.3
			c0.3,1.1,2,1.8,3.1,2.6c0.2-0.1,0.4-0.3,0.6-0.4C616.3,989.4,615.1,985.9,613.9,982.3z M615.5,998.1c1.9,2.1,3.7,4.1,5.5,6.1
			c0.1-0.1,0.2-0.1,0.3-0.2c-0.9-2.5-1.7-5-2.6-7.8C617.6,996.9,616.7,997.5,615.5,998.1z M613.8,992.1c0.3,1.2,0.5,2,0.6,2.8
			s0.1,1.5,0.2,2.5C616.8,995.5,616.6,993.8,613.8,992.1z M612.7,990.6c-0.3,0.1-0.5,0.1-0.8,0.2c-1.1,1.9-0.6,3.3,1.8,4.8
			C613.3,993.6,613,992.1,612.7,990.6z M610.4,994c-0.8,1.4-1.6,2.7-2.2,4c-0.5,1.1,0.1,1.8,1.2,1.2c1.2-0.7,2.3-1.7,3.6-2.7
			C612.1,995.5,611.4,994.9,610.4,994z M598.6,993.9c-1.2,1.4-2,2.6-2.9,3.7c0.1,0.1,0.2,0.2,0.3,0.4l2.9-1.3
			C598.8,996.2,598.8,995.3,598.6,993.9z M595.8,998.3c-0.2,2.2-0.3,4-0.4,5.7c0.2,0,0.3,0.1,0.5,0.1c0.6-1.2,1.2-2.3,1.9-3.6
			C597.2,999.9,596.7,999.3,595.8,998.3z M595.4,994.7c-1.1,0.5-1.9,0.7-2.5,1.2c-0.5,0.3-0.8,1-1.1,1.5c0,0.1,0.7,0.7,1,0.7
			c0.6,0,1.6-0.2,1.8-0.6C595.2,996.8,595.2,995.9,595.4,994.7z M591.5,995.8c-0.1-0.3-0.1-1-0.2-1c-1,0-1.9,0-2.9,0.1
			c0,0.4,0.1,0.8,0.1,1.3C589.5,996.1,590.5,996,591.5,995.8z M588.3,994.1c0.2-0.2-0.1-1.1-0.1-1.6c-0.9,0.2-1.7,0.4-2.9,0.7
			C586.4,994.7,587.4,994.9,588.3,994.1z M585.5,992.2c0.1,0,0.5-0.9,0.3-1c-0.5-0.4-1.1-0.7-2-1.2c-0.2,0.9-0.4,1.7-0.3,1.7
			C584.2,992,584.9,992.1,585.5,992.2z M569,969.9c2.5-0.3,5-0.6,7.5-1c0-0.1,0-0.3,0.1-0.4c-3.1-1.6-6.2-3.3-9.4-4.9
			c-0.2,0.2-0.3,0.3-0.5,0.5c0.5,1.8,0.9,3.6,1.4,5.3C568.2,969.6,568.7,969.9,569,969.9z M561.4,914c-2.7,2.3-5.3,4.4-8.1,6.7
			c0.6,0.8,1.1,1.5,1.6,2.1c5.2,7.3,12.8,12,19.6,17.5c3.8,3,7.6,5.9,11.4,8.9c0.6,0.4,1.1,0.8,1.7,1.2c0.3-0.3,0.6-0.4,0.5-0.5
			c-0.9-3.2-1.2-6.7-3.5-9.4c-7.3-8.4-14.5-16.7-21.8-25.1C562.4,915.1,562,914.7,561.4,914z M561.9,913.4
			c7.8,9,15.4,17.7,22.9,26.3c0.1,0,0.2-0.1,0.4-0.1c-3.4-11-6.7-22-10.3-33.5C570.4,908.7,566.3,911,561.9,913.4z M575.6,905.9
			c1.3,4.2,2.4,8,3.6,11.9c2.3,7.5,4.6,15.1,7,22.6c0.3,0.9,0.8,1.8,1.4,2.5c1,1.3,2.2,2.6,3.3,3.8c0.5,0.5,1.2,0.7,1.8,1
			c0.2-0.7,0.6-1.5,0.6-2.2c-0.5-5-1.1-10-1.7-15c-1-8.8-2-17.6-3.1-26.4c-0.1-0.6-0.2-1.3-0.3-2.3
			C583.9,903.3,579.9,904.6,575.6,905.9z M589,901.7c1.8,15.4,3.5,30.4,5.3,45.7c4.2-2.6,8.5-2.3,13.1-1.9
			c-1.4-15-2.8-29.9-4.3-45.2C598.4,900.7,593.8,901.2,589,901.7z M603.8,900.3c0.3,3.2,0.5,5.9,0.8,8.7c1.1,11.7,2.2,23.4,3.4,35
			c0.1,0.6,0.6,1.2,0.9,1.8c0.5-0.5,1.2-0.8,1.5-1.4c2.9-4.4,4-9.1,4.3-14.4c0.4-8.7,1.3-17.4,2-26.1c0.1-0.7,0.1-1.4,0.1-2.5
			C612.4,901,608.2,900.7,603.8,900.3z M617.6,901.6c-0.9,11.4-1.8,22.4-2.7,33.3c0.1,0.1,0.2,0.1,0.3,0.2
			c5-9.8,10.1-19.5,15.3-29.7C626.2,904.1,622.1,902.9,617.6,901.6z M644,912.3c0.2-0.3,0.4-0.6,0.7-0.8c-0.1-0.1-0.3-0.2-0.4-0.4
			c-0.3,0.3-0.5,0.6-0.8,0.8c-0.8-0.6-1.7-1.1-2.6-1.7c-3.4-2.1-6.6-3.6-9.5-4.8c-8.7,15.9-14.9,27.8-16,31.1
			c-0.4,1.1-0.7,2.4-0.7,2.4c-0.3,2.3-0.4,4.5-0.5,6.8c0,0.6,0.3,1.2,0.5,1.8c0.5-0.3,1.1-0.5,1.5-1c4.5-5.6,9-11.2,13.4-16.8
			c2.3-2.9,11.3-14.5,13.6-17.4c0.1-0.2,0.3-0.3,0.4-0.5C643.6,912,643.8,912.1,644,912.3c-7.5,9.4-20.9,26.7-28.1,35.7
			c3.5,2.5,7.8,4.1,8.9,9.3c9.6-12.2,19.2-24.5,28.9-36.7C651.2,918,648,915.1,644,912.3z M654.4,920.7
			c-9.6,12.3-19.1,24.3-28.5,36.3c0.8,1.3,1.6,1.4,2.9,1c3.6-1,6.6-2.8,9.3-5.4c7.3-7.2,14.9-14.1,22.3-21.1c0.5-0.5,1-1,1.8-1.8
			C659.6,926.7,657.1,923.9,654.4,920.7z M628.4,961.7c1.5-1.4,2.7-2.5,4-3.7c-0.1-0.1-0.1-0.2-0.2-0.3c-1.5,0.5-3,1-4.7,1.6
			C627.7,960,628,960.7,628.4,961.7z M662.8,930.3c-9,8.4-17.6,16.5-26.2,24.6c0.1,0.1,0.1,0.2,0.2,0.3c11.1-3.8,22.1-7.6,33.7-11.5
			C667.9,939.2,665.4,934.9,662.8,930.3z M670.7,944.4c-3.1,1-5.8,1.9-8.6,2.9c-8.6,2.9-17.2,5.6-25.7,9c-2.7,1.1-4.9,3.7-7.3,5.7
			c-0.2,0.1-0.2,0.8-0.2,0.8c0.4,0.2,0.9,0.5,1.3,0.4c4.3-0.5,8.7-1,13-1.5c9.8-1.2,19.6-2.4,29.5-3.5c0.6-0.1,1.1-0.2,2-0.4
			C673.5,953.3,672.1,949,670.7,944.4z M675.1,958.5c-15.3,1.8-30.3,3.6-45.3,5.5c0.3,1.6,0.7,3,0.9,4.5c0.1,0.7,0,1.4-0.1,2.1
			c0,0.9-0.1,1.7-0.1,2.6c0.1,1.2,0.3,2.4,0.5,3.9c14.9-1.7,30-3.3,45.5-5C676.1,967.4,675.6,963.1,675.1,958.5z M676.5,972.7
			c-15.4,1.7-30.5,3.4-45.6,5c4.7,2.4,8.7,5.7,14.4,5.8c9,0.2,18.1,0.9,27.1,1.5c0.9,0.1,1.8,0.1,3,0.2
			C675.8,981.1,676.2,977.1,676.5,972.7z M675.4,985.9c-10.8-0.6-21.4-1.2-31.9-1.9c0,0.1,0,0.3-0.1,0.4c9.4,4.7,18.7,9.4,28.4,14.3
			C673,994.5,674.2,990.4,675.4,985.9z M671.6,999.4c-8.4-4.2-16.6-7.9-24.4-12.4c-5.6-3.3-11.5-3.4-17.5-3.7
			c-0.2,0-0.5,0.2-1.3,0.5c12.4,9.3,24.5,18.4,37.1,27.7C667.6,1007.4,669.5,1003.5,671.6,999.4z M665.2,1012.1
			c-12.4-9.2-24.4-18.2-36.5-27.3c-0.6,0.6-1.1,1.2-1.6,1.7c0,0,0,0,0-0.1l0,0l0,0c-0.1-1-0.3-2-0.4-3c0,0-0.7-0.1-0.7,0
			c-0.3,1.1-0.5,2.1-0.7,3.2c0.2,0.1,0.3,0.3,0.5,0.4l1.3-0.6l0,0l0,0c-0.7,1.1-1.5,2.2-2.2,3.3c-0.3,0.5-0.7,0.8-1.1,1.3
			c0.3-1.2,0.7-2.3,0.9-3.5c0.1-0.7,0.1-1.2-0.1-1.7c0,0,0,0,0-0.1l-0.1-0.1c0,0,0,0-0.1-0.1c-0.2-0.2-0.5-0.4-1-0.4
			c1-0.2,1.7-0.9,2-2.2c-1.6-0.1-3.1-0.2-4.6-0.3c-0.1,0.2-0.2,0.4-0.3,0.5c0.8,0.7,1.5,1.3,2.3,2c0,0,0,0-0.1,0h0.1
			c-0.1,0.1-0.3,0.1-0.4,0.2l0,0c-0.1,0.1-0.2,0.1-0.3,0.2l0,0c-0.1,0.1-0.2,0.2-0.2,0.2c-0.2,0.3-0.3,0.5-0.4,0.8
			c0,0.1,0,0.2,0,0.3c-0.1,0.9,0.3,1.8,0.4,2.7c0.1,0.9,0.2,2.1,1.7,1.7c-1.1,1.3-2.3,2.6-3.6,4.1c12.1,9.1,24.1,18.2,36.6,27.6
			C659.4,1019.5,662.2,1015.9,665.2,1012.1z M646.3,1032c3.2-2.7,6.3-5.4,9.7-8.3c-12.2-9.2-24.2-18.2-36.1-27.2
			c1.5,4.3,1.9,8.9,5.3,12.5c6.8,7.1,13.3,14.5,19.9,21.8C645.4,1031.1,645.7,1031.4,646.3,1032z M645.7,1032.5
			c-7.4-8.1-14.4-15.9-21.5-23.8c-0.1,0.1-0.3,0.1-0.4,0.2c3.4,9.9,6.8,19.8,10.3,30.1C638,1036.9,641.7,1034.8,645.7,1032.5z
			 M632.5,1039.5c0.3-0.1,0.6-1.2,0.4-1.7c-2.9-8.6-6.2-17.1-8.7-25.8c-1.6-5.7-5.7-9.3-9.6-13.8c1.8,15.4,3.6,30.4,5.4,45.8
			C624.4,1042.5,628.5,1041.1,632.5,1039.5z M619.3,1044.2c-1.8-15.6-3.6-30.8-5.5-46.7c-4.2,3.4-8.9,3.1-13.8,3.1
			c1.5,15,3,29.8,4.6,45.2C609.5,1045.3,614.3,1044.8,619.3,1044.2z M603.9,1045.8c-1.5-15.3-3.1-30.3-4.6-45.3
			c-0.3-0.1-0.5-0.1-0.8-0.2c-1.1,2.6-3,5.1-3.3,7.7c-1.2,12-1.9,24-2.8,36c0,0.2,0,0.4,0,0.9
			C596.3,1045.2,599.9,1045.5,603.9,1045.8z M585.6,1043.8c0.6,0.2,1,0.7,1.5,1.1c-0.1,0.2-0.2,0.4-0.3,0.7c0,0.1,0,0.1-0.1,0.2
			c-0.3,0.9-0.4,1.8,0.7,2.8c0.7-0.8,1.5-1.7,2.3-2.6c2.6-2.2,2-5.3,2.3-8.1c0.7-8.8,1.3-17.7,2-26.5c0-0.6,0-1.2-0.2-2
			c-5.4,10.4-10.9,20.8-16.4,31.4C580.3,1041.8,583,1042.8,585.6,1043.8z M576.7,1040.6c1.4-2.7,2.8-5.1,4-7.6
			c4.3-8.3,8.8-16.4,12.9-24.8c1.3-2.6,1.1-5.9,1.7-8.9c-0.2-0.1-0.5-0.2-0.8-0.3c-9.5,11.9-19,23.8-28.7,36.1
			C569.5,1036.9,573,1038.7,576.7,1040.6z M565.2,1034.8c9.5-12,18.9-23.8,28.2-35.5c-3.5-2.2-6.7-4.3-10-6.3
			c-0.5,0.9-1.1,2.3-2.1,3.2c-1.7,1.6-2.2-0.6-3.4-1.5c-7.9,10.3-15.9,20.7-24.1,31.4C557.7,1029,561.3,1031.8,565.2,1034.8z
			 M553.4,1025.6c3-3.9,5.7-7.4,8.4-11c4.7-6.1,9.3-12.3,14.1-18.3c1.7-2.1,2.1-3.9,0.5-6.6c-1.3,0.8-2.8,1.4-3.9,2.3
			c-8.6,7.3-17.1,14.6-25.7,22c-0.6,0.5-1.1,1-1.9,1.8C547.7,1019,550.5,1022.2,553.4,1025.6z M544.3,1015.2
			c9.1-7.8,18-15.4,26.8-23c-0.1-0.1-0.1-0.3-0.2-0.4c-11,3.7-22,7.4-33.5,11.3C539.8,1007.1,541.9,1011,544.3,1015.2z
			 M537.2,1002.4c5.1-1.7,9.8-3.2,14.4-4.8c6.8-2.3,13.6-4.5,20.4-6.9c1.1-0.4,2.1-1.2,3.1-1.9c1-0.6,0.9-1.4,0.5-2.3
			c-0.5-0.9-0.9-1.6-2.2-1.4c-13.1,1.4-26.2,2.8-39.2,4.2c-0.3,0-0.6,0.1-1.3,0.3C534.3,993.8,535.7,998,537.2,1002.4z M531.6,981.2
			c2.6-0.3,5.2-0.5,7.7-0.7c0,0.2,0.1,0.5,0.1,0.7c-2.5,0.5-4.9,1-7.6,1.5c0.3,1.9,0.7,3.7,1,5.9c12.5-1.3,25-2.6,37.4-3.9
			c0-0.2,0-0.3,0-0.5c-0.5,0-1.1-0.1-1.7-0.1c0.8-0.9,1.5-1.8,2.2-2.7c-0.9-0.7-1.8-1.3-2.9-2.2c2.3-2.6,0.5-5.3-0.2-8.4
			c-12.2,1.6-24.2,3.1-36.4,4.6C531.3,977.4,531.5,979.3,531.6,981.2z M530.9,974.8c12.4-1.6,24.3-3.1,36.5-4.7
			c-0.5-1.9-1-3.8-1.6-5.5c-0.1-0.4-0.8-0.8-1.3-0.9c-10.7-1.1-21.4-2.1-32.5-3.1C531.7,965.3,531.3,969.8,530.9,974.8z
			 M532.1,959.9c11.2,1.1,22.1,2.1,33,3.1c0-0.2,0.1-0.3,0.1-0.5c-5.2-2.8-10.5-5.7-15.8-8.5c0,0-0.1,0-0.1-0.1l0,0
			c-3-1.6-11.3-6-13.5-7.1C534.7,951.1,533.4,955.3,532.1,959.9z M536.2,946.1c2.3,1.3,12.2,6.6,14.3,7.7l0,0
			c4.7,2.5,9.5,5,14.6,7.8c-0.9-3.2-1.6-5.9-2.4-8.7c-0.1-0.4-0.3-0.7-0.6-1c-6.4-5.9-12.9-11.8-19.7-18
			C540.3,938.1,538.3,942,536.2,946.1z M457.2,817.5c0.3-0.1,0.6-0.2,0.9-0.2c-0.2-1.4,0-3.1-0.6-4.3c-0.5-0.9-2.1-1.1-3.2-1.6
			c-0.1,0.2-0.1,0.3-0.2,0.5C455.1,813.8,456.1,815.6,457.2,817.5z M420.4,945.8c2.2,2.5,4.8,2.4,6.8-0.3c1.9-2.5,3.6-5.2,4.7-8
			c4.1-10.7,8.1-21.5,11.7-32.4s7.7-21.6,13.1-31.8c0.6-1.1,0.9-2.5,0.9-3.7c0-0.8-0.5-2-1.1-2.2c-0.7-0.3-2,0.1-2.6,0.6
			c-2,1.8-3.8,3.7-5.7,5.6c-9.8,9.7-17.5,21-25.3,32.3c-3.5,5-6.6,10.3-9.5,15.7c-2.3,4.3-3,8.9-0.2,15
			C415,938.8,417.5,942.4,420.4,945.8z M407.7,911.5c1.4-1.9,10.2-13.8,11.9-15.9c7-9.3,13.9-18.6,21.2-27.7
			c5.5-6.8,11.5-13.1,17.3-19.7c1.8-2.1,1.8-2.1-0.5-4.1c0.7-1,1.8-1.8,2.1-2.9c0.3-1,0.2-2.3-0.2-3.2c-0.6-1.2-1.7-0.5-2.5,0
			c-1,0.6-1.8,0.5-2.6-0.5c-0.7-0.9-0.6-1.7,0.1-2.6c1.2-1.5,1-2.1-0.7-3c-1.9-1-3.7-2.1-5.6-3.1c-0.5-0.2-1.3,0-2,0.2
			c-0.3,0.1-0.5,0.5-0.7,0.9c-1.3,2.1-2.7,3.6-5.5,3.7c-5.9,0.2-7,1.4-10.4,1.2c-0.7,0-4.4,0.2-6.6,0.2c-5.6,0-8.3-1.5-14.7-2.1
			c-3.1-0.3-2.4-0.7-6.2-0.2c-5.1,0.6-9.9,0.1-14.3-2.7c-3-1.9-6.1-3.7-9.2-5.6c-4.3-2.7-7.2-6.5-9.4-11c-1.3-2.6-3.1-5-4.6-7.5
			c-0.9-1.4-2.1-2-3.9-2.1c-3.2-0.2-6.4-0.6-9.5-1.2c-1.8-0.4-3.8-1-5.2-2.1c-2.4-1.8-4.5-1.5-6.9-0.4c-5.6,2.6-11.2,5.3-16.8,7.9
			c-1.5,0.7-3,1.4-4.5,2c-2.7,1.1-5,2.5-7.2,4.5c-1.9,1.8-4.5,2.9-6.7,4.3c-0.7,0.5-1.5,0.9-2.4,1.5c0.7,0.6,1,0.9,1.5,1.2
			c4.3,3.1,8.9,5.7,12,10.2c0.4,0.6,1.5,0.9,2.4,1.2c10.4,2.9,20.9,5.5,31.3,8.6c4.2,1.2,8,3.4,12.1,5c2.2,0.9,4.6,1.4,6.9,2.2
			c1.3,0.5,2.8,1,3.8,2c3.4,3,6.9,6,9.8,9.5c3.8,4.5,4.1,9.9,2,15.3c-0.8,2.1-1.2,4.1-0.3,6.2c0.2,0.6-0.1,1.7-0.6,2.2
			c-1.2,1.3-1.5,2.8-1.3,4.5c0.6,5.6,1.1,11.3,1.6,16.9c0.1,1.4-0.2,2.8-0.3,4.5l0.1,18.1c0.2,0.8,0.4,1.6,0.6,2.5
			c3.3-1.5,6.6-2.8,9.8-4.4C399.1,922.8,403.5,917.2,407.7,911.5z M417.3,968.3c0.3,0.3,1.5,0.4,1.5,0.3c0.2-0.7,0.3-1.4,0.4-1.8
			c-0.7-1.1-1-1.9-1.5-2.4c-0.4-0.4-1.2-0.6-1.7-0.9c-0.1,0.9-0.6,1.9-0.4,2.6C415.8,967,416.5,967.7,417.3,968.3z M406.5,963.1
			c0.3-0.4,0.1-1.4-0.2-1.9c-0.2-0.4-1.1-0.9-1.5-0.8c-1.6,0.7-3.1,1.6-4.8,2.4C402.2,965.5,405,965.5,406.5,963.1z M392.8,958.7
			c1.4-0.8,2.3-1.2,3.1-1.8c0.4-0.4,0.8-1.1,0.8-1.7c-0.1-1.4,0.6-2.2,1.7-2.5c0.7-0.2,1.7,0.2,2.3,0.7c2.5,2.2,5.5,3.1,8.7,3.6
			c1.1,0.2,2.1-0.4,1.9-1.6c-1.3-5.7-2.4-11.6-7.8-15.2c-2.5-1.7-5.3-2.1-8.2-1.3c-3,0.8-6,1.6-9.3,2.4c1,4.8,2.7,9,5.9,12.6
			C392.9,955.2,393.9,956.4,392.8,958.7z M419.2,1028.3c0.3-0.6,0.6-1.3,0.7-2c0-0.2-0.7-0.4-1.5-0.9c-0.2,1.1-0.4,1.8-0.4,2.5
			C418,1028.1,419.1,1028.4,419.2,1028.3z M415.5,1024.4c0.6,0.6,1.9,0.8,2.7,0.6c0.5-0.1,1.1-1.4,1.1-2.1c-0.1-1.5-0.5-3-0.9-4.6
			c-0.6-0.7-1.1-1.3-1.6-1.9c-0.6,0.7-1.2,1.2-1.6,2C414.1,1020.5,413.8,1022.6,415.5,1024.4z M412.2,1033.9
			c1.2,0.3,2.1-1.1,2.2-3.4c-1.7,0-3,0.4-3.4,2C411,1032.8,411.7,1033.7,412.2,1033.9z M404.1,1016c-2.5,1.7-6.1,2.8-4.1,7.2
			C401.8,1022.1,403.8,1018.5,404.1,1016z M392.2,1029.1c0.2-1,0.5-1.7,0.4-2.4c-0.1-0.3-0.8-0.6-1.3-0.8c-0.3,0.8-0.7,1.6-0.9,2.4
			C390.4,1028.3,391.3,1028.6,392.2,1029.1z M384.6,1025.2c0.8-0.9,1.7-1.8,2.3-2.9c0.3-0.6,0.1-1.6-0.2-2.3c-0.1-0.2-1.2,0-1.9,0.1
			c-0.7,0.2-1.4,0.5-2.4,0.8c-0.1-1.9-0.2-3.3-0.3-4.7c-0.3-0.1-0.5-0.1-0.8-0.2c-0.3,0.8-0.9,1.6-0.8,2.3c0.4,2.2,1,4.3,1.6,6.4
			C382.6,1026,383.5,1026.4,384.6,1025.2z M375.1,1009.2c0.4-0.8,0.8-1.5,1.1-2.3c0.3-0.7,0.5-1.5,0.6-2.2c0.1-0.8-0.1-1.5,0-2.3
			c0.1-1,0.2-2,0.4-3c0-0.1,0.9-0.1,1.7-0.1c-0.4-1.8-0.8-3.5-1.3-5.1s-0.1-2,1.5-1.8c2.2,0.3,2.8-0.3,2.2-2.4
			c-0.5-1.8-1.2-3.5-2-5.7c-5.8,8-5.6,16.3-5,24.7C374.5,1009,374.8,1009.1,375.1,1009.2z M360.3,1004.3c1.1,1.8,2.2,3.6,3.3,5.4
			c0.4,0.5,1,0.9,1.7,1.3c-0.3-4.1,0.9-8.3-1-12.5c-0.9,0.3-1.6,0.6-2.3,0.9C358.8,1000.5,358.5,1001.3,360.3,1004.3z M374.3,974.2
			c-0.6-1.5-1.1-3-1.7-4.4c-3-6.9-6.1-13.7-9.1-20.6c-0.1-0.1-0.1-0.3-0.2-0.3c-0.6-0.5-1.2-1-1.8-1.5c-0.4,0.7-1,1.3-1.1,2
			c-0.5,3.4-0.8,6.9-1.2,10.3c-0.5,4.6-1.1,9.2-1.4,13.8c-0.2,2.8-1.3,5.1-2.9,7.3c-1.8,2.4-2.6,5.2-2.2,8.8
			C360.1,984.3,367.1,979.3,374.3,974.2z M215.3,1068.8c10.7-3.5,20.9-6.8,31.1-10.1c0-0.1,0-0.3,0-0.4c-10.7-1.3-21.3-2.7-32.4-4
			C214.5,1059.2,214.9,1063.8,215.3,1068.8z M214.1,1053.5c4.5,0.6,8.8,1.1,13,1.7c6.7,0.8,13.4,2,20.2,2.4c2.8,0.2,5.6-1.1,8.4-2
			c0.4-0.1,0.5-1.4,0.9-2.4c-13.7-4.1-27.2-8.1-41.1-12.2C215.1,1045.3,214.6,1049.3,214.1,1053.5z M251.4,1058.2
			c1.6,0.2,3.2,0.4,5.1,0.7c-0.1-0.9-0.2-1.6-0.3-2.5c-1.7,0.5-3.2,1-4.8,1.5C251.4,1057.9,251.4,1058.1,251.4,1058.2z
			 M257.9,1062.7c0.8,0.4,1.4,0.7,1.9,1c0.1-0.5,0.6-1.2,0.4-1.4c-0.4-0.5-1.1-0.7-1.7-1C258.4,1061.7,258.2,1062.1,257.9,1062.7z
			 M275.1,1068.9c-1.7,1.5-4.5,1.3-4.9,4.2C271.9,1073.7,275.2,1071,275.1,1068.9z M272,1074c1.7,0.8,3.5,0.1,5.6-2.3
			C274.7,1070.3,273.8,1072.9,272,1074z M275.4,1066.6c-3.5-0.5-3.5-0.5-4.4,3.4C273.4,1069.7,275.2,1068.4,275.4,1066.6z
			 M265.5,1040c0,0.2,0.1,0.3,0.1,0.5c1.2,0.4,2.4,0.8,3.5,1.1c0.2-0.2,0.4-0.4,0.6-0.5c-0.5-0.8-1-2-1.6-2.1
			C267.3,1038.7,266.3,1039.6,265.5,1040z M265.7,1037.9c0-0.2-1-0.4-1.5-0.6c-0.3,0.7-0.6,1.4-0.8,2.2c0,0.2,0.8,0.5,1.6,0.9
			C265.4,1039.3,265.7,1038.6,265.7,1037.9z M269.9,1042.8c-0.1,0-0.2,0-0.2,0c-0.1,0-0.2,0-0.3,0v-0.1l0,0v0.1
			c-0.8-0.3-1.5-0.7-2.3-1s-1.5-0.7-2.3-1c-0.2,0.2-0.4,0.4-0.6,0.6c1.3,1.9,2.6,3.8,4.1,6.1c0.4-1.8,0.8-3.2,1.1-4.7l0,0
			c0,0.8,0.1,1.6,0.1,2.4c0,2.5,0.4,2.8,2.7,2c0.4-0.1,0.8-0.4,1.2-0.5c-0.3-1.3-0.7-2.2-1.1-2.8c-0.1-0.1-0.2-0.3-0.3-0.4l0,0
			c-0.1-0.1-0.2-0.2-0.3-0.3c-0.1-0.1-0.2-0.1-0.3-0.2c0,0-0.1,0-0.1-0.1c-0.1,0-0.1-0.1-0.2-0.1c-0.2,0-0.3-0.1-0.5-0.1
			C270.4,1042.8,270.1,1042.8,269.9,1042.8z M264.9,1056.5c-1,0.6-2.6,1.5-4.2,2.4c0,0.2,0.1,0.3,0.1,0.5c3.4,0.4,6.9,0.8,10.4,1.3
			C269.1,1059.3,267.2,1058.1,264.9,1056.5z M264.5,1055.2c-1.7-0.1-3.3-0.3-5.3-0.5c0.3,1.6,0.6,2.6,0.8,3.7c1.7-1,3.1-1.8,4.6-2.7
			C264.6,1055.6,264.5,1055.4,264.5,1055.2z M269.8,1055.7c0,0.2,0.1,0.4,0.1,0.6c1.2,0.3,2.3,0.7,4,1.1l-1.4-3.1
			C271.6,1054.8,270.7,1055.3,269.8,1055.7z M270.1,1053.5c-1.2,0.6-2,1.1-3,1.7C269.2,1056.4,269.4,1056.3,270.1,1053.5z
			 M269.5,1056.9c-0.2,0.1-0.4,0.3-0.6,0.4c0.4,0.6,0.6,1.7,1.1,1.8c1,0.2,2.2-0.1,3.3-0.1c0-0.3,0-0.6,0-0.9
			C272,1057.8,270.7,1057.3,269.5,1056.9z M270.4,1051.7c-2.2,0.7-4,1.2-5.8,1.8C265.7,1055.3,268.2,1054.7,270.4,1051.7z
			 M269.8,1036.5c0.3-0.1,0.6-0.3,0.9-0.4c-0.2-0.8-0.4-1.6-0.6-2.3c-0.7,0.3-1.3,0.5-2,0.8C268.7,1035.1,269.2,1035.8,269.8,1036.5
			z M272,1038.1c-0.4-0.2-1.1-0.2-1.4,0c-0.2,0.2-0.3,1-0.1,1.4c1,1.8,1.7,4,4.4,3.7C275.2,1040.7,274.2,1039,272,1038.1z
			 M273.6,1032.1c-1.3,0.4-2.6,0.7-2.3,2.6C273.9,1034.5,274.3,1034.1,273.6,1032.1z M276.6,1040.6c0.3-2,0.6-3.7,0.9-5.5
			C274.8,1035.9,274.5,1037.8,276.6,1040.6z M287.9,1078.5c1.3,0.6,2.4,1,3.7,1.6c1.1-1.3,2.3-2.7,1.8-5.3
			C291.5,1076.2,288.5,1075.5,287.9,1078.5z M274.9,1049.4c0-0.2,0.1-0.4,0.1-0.6c-0.7-0.3-1.4-1-2-0.9c-1,0.2-1.9,0.9-2.9,1.4
			c0.3,0.5,0.7,1.4,0.9,1.4C272.4,1050.3,273.7,1049.8,274.9,1049.4z M276.1,1061.8c-0.7,0.3-1.8,0.5-2,1c-0.3,0.8,0,1.9,0,2.9
			c0.3,0.1,0.7,0.1,1,0.2c0.5-1.1,1-2.2,1.5-3.3C276.5,1062.2,276.3,1062,276.1,1061.8z M272.1,1063.2c0-0.5,0.2-1,0.3-1.7
			c-4.1-0.5-8.1-1-12.4-1.5c0.5,1.4,0.8,2.4,1.2,3.4c0.2,0.5,0.7,1,1.1,1.1c2.2,0.4,4.3,0.7,6.5,1.1
			C270.8,1066,272,1065.3,272.1,1063.2z M215.6,1040.3c14,4.1,27.8,8.2,41.4,12.3c0.2-0.2,0.4-0.3,0.4-0.4c-1.1-2.9,0.2-5.3,1.6-7.7
			c0.1,0.6,0.2,1.2,0.4,2c0.2,0,0.5-0.1,0.7-0.1c0.1,0,0.3,0,0.4-0.1c0.2,0,0.4-0.1,0.6-0.1c0,0,0,0,0,0.1l0,0l0,0
			c0,0.1,0,0.1-0.1,0.2c0,0.1-0.1,0.2-0.1,0.3c0,0.1,0,0.1,0,0.2s0,0.2-0.1,0.3c0,0.1,0,0.2,0,0.3c0,0.1,0,0.2,0,0.3c0,0,0,0,0,0.1
			s0,0.2,0,0.2c0,0.1,0,0.2,0.1,0.3c0,0.1,0,0.2,0.1,0.3l0,0c-0.3-0.2-0.6-0.4-0.9-0.6c-0.1,0-0.1-0.1-0.2-0.1c0,0,0,0-0.1,0
			l-0.1-0.1l0,0l-0.1-0.1c-0.3-0.2-0.5-0.3-0.7-0.3c0,0,0,0-0.1,0h-0.1l0,0c-1.5,1-0.7,2.5-0.3,3.9c0.4,1.3,1.3,0.9,2.2,0.6
			c0.2-0.1,0.3-0.1,0.4-0.2c0.1,0,0.1-0.1,0.2-0.1c0.1-0.1,0.2-0.2,0.3-0.3c0,0,0,0,0-0.1c0.1-0.3,0.1-0.6,0.1-1c0-0.1,0-0.1,0-0.2
			s0-0.2,0-0.2v-0.1c0-0.1-0.1-0.3-0.1-0.4c0,0.1,0.1,0.1,0.1,0.2s0.1,0.1,0.1,0.2c0.1,0.1,0.1,0.2,0.2,0.3c0,0.1,0.1,0.1,0.1,0.2
			c0.6,0.9,1.5,1.7,2,2.7c1.8-0.6,3.6-1.1,6-1.9c-2-3-3.9-5.7-5.9-8.7c-1.1,1.5-2,2.7-2.9,3.9l0,0v-0.1l0,0l0,0
			c0-0.4-0.1-0.8-0.1-1.2c0-0.4-0.1-0.8-0.1-1.2c-0.6,0.1-1.2,0.2-1.7,0.3c0.3-1.5,0.6-2.9,1-4.6c-12.8-3.9-26.5-8-40.4-12.2
			C218.2,1031.7,217,1035.9,215.6,1040.3z M262.5,1040.2c-0.4,0-0.7,0-1.1,0c-0.1,0.9-0.2,1.7-0.3,2.6c0.6-0.1,1.2-0.2,1.8-0.3
			C262.8,1041.7,262.6,1041,262.5,1040.2z M219.8,1026.7c13.9,4.2,27.6,8.3,41.2,12.5c0.1-0.1,0.2-0.2,0.2-0.3c-2.1-3-4.3-6-6.4-9.1
			c-0.2-0.3-0.6-0.6-0.9-0.7c-9.2-4.6-18.4-9.2-28-14C223.9,1018.9,221.9,1022.6,219.8,1026.7z M236.1,1002.3
			c6.4,8.9,12.7,17.7,18.9,26.4c-0.8-0.4-1.5-0.7-2-1c0.1-0.1,0.2-0.2,0.2-0.3c-5.8-8.1-11.5-16.2-17.6-24.7
			c-3.2,4-6.2,7.7-9.3,11.7c9.1,4.5,17.8,8.9,26.5,13.2c-0.1,0.2-0.2,0.3-0.2,0.5c0.8,0.4,2,1,3.3,1.7c2,2.8,4,5.6,5.9,8.3l5.5-2.5
			c-2.7-1.4-7.7-3.9-11.4-5.8c-0.3-0.4-0.5-0.8-0.8-1.1c3.7,1.8,9.2,4.6,11.7,5.8c0.1-0.1,0.2-0.2,0.4-0.3
			c-7.2-13.1-14.4-26.1-21.8-39.5C242.1,997.3,239.1,999.8,236.1,1002.3z M258.1,987.6c-4.1,2.2-8.1,4.4-12.4,6.7
			c7.4,13.3,14.5,26.3,21.7,39.4c1.6-0.5,3.2-0.9,4.6-1.6c1-0.4,1.3-1.2,0.3-2.1c-0.6-0.5-1.2-1.1-1.5-1.8c-0.3-0.6-0.5-1.7-0.2-2.1
			c0.4-0.5,1.4-0.7,2.2-0.7c0.7,0,1.5,0.5,2.7,0.9L258.1,987.6z M278.5,1034.2c-0.4,2.3-0.8,4.3-1.2,6.8c1.2-0.7,1.9-1.2,2.7-1.6
			c-0.4,0.6-0.8,1.2-1.2,1.9c0.1,0.1,0.2,0.3,0.3,0.4c0.8-0.5,1.6-0.9,2.4-1.5c0.1-0.1-0.1-1-0.2-1c-0.4,0-0.9,0.1-1.3,0.2
			C280.9,1038.1,280.6,1036.6,278.5,1034.2z M270.8,983.8c-3.9,1.2-7.6,2.3-11.5,3.5c0.3,0.8,0.5,1.3,0.7,1.7
			c5.1,11.5,10.2,23,15.2,34.6c0.7,1.7,1.8,2.6,3.8,3.2c0.2-6,3-11.6,0.5-17.9c-3-7.6-5.3-15.6-7.9-23.4
			C271.4,985.1,271.1,984.7,270.8,983.8z M285.2,1034.8c-0.9,0.6-1.6,1.2-2.5,1.9c0.4-2.2-0.8-2.4-2.6-2.2l2.2,4.8
			C284.9,1038,285.7,1036.7,285.2,1034.8z M283.5,1041.5c1.7,0.3,3.2-1.9,2.2-4c-1,0.9-1.9,1.6-2.6,2.5
			C283,1040.2,283.3,1041.4,283.5,1041.5z M329.9,1071.8c2.1-1,4-2.2,6.2-3.4c-0.7-1.9-1.2-3.8-2-5.5c-0.3-0.8-1.2-0.9-1.5-1.1
			c-1.7-0.7-8-3.3-16.8-6.8c-1.1-0.3-2.1-0.5-2.8-0.7c-1.2-0.3-1.7-0.4-2.2-0.4c0,0-1-0.1-1.8-0.1c-1.5,0-4.2,1.1-7,3.2
			c-0.4-0.1-1-0.1-1.6-0.2c0.2-0.5,0.5-1.1,0.9-2c-1.7,0-2.9,0.5-3.2,1.9c-0.1,0.2,0.7,0.6,0.7,0.6c0.3,1.2,0.3,2.4,0.9,2.9
			c1.1,0.9,2.1,0.2,2.5-0.8c0.7,0.2,1.3,0.5,2,0.6c1.8,0.1,2.4,1,2.3,2.7c0,0.6,0,1.2,0.1,1.7c0.2,1.6,0.5,3.2,0.8,5.3
			c5.2,1.3,11,3.1,16.8,4.1C325.9,1074,328.1,1072.6,329.9,1071.8z M327.3,1074.6c3.6,0.9,7,1.8,10.4,2.7c-0.3-2.3-0.6-4.4-0.9-7
			L327.3,1074.6z M328.1,1036.6c1.6-0.6,3.3-1.2,5.3-2c-0.9-3.4-1.7-6.8-2.6-10.3c-2.4,1.9-4.5,4-6.9,5.5c-4.1,2.5-8.4,4.7-12.6,7.1
			c-3.1,1.8-6,3.8-9,5.7c0.1,0.3,0.2,0.5,0.3,0.8c8.3-1.3,16.2-4.3,24.3-6.4c0.1,0.2,0.1,0.3,0.2,0.5c-1.4,0.5-2.8,1.2-4.2,1.6
			c-5.2,1.5-10.5,3-15.7,4.4c-1.1,0.3-2.3,0.4-3.4,0.6c-1.2,0.2-1.6,0.7-1,2.2c10.2-3.1,20.5-6.2,30.8-9.3c-0.1-0.3-0.1-0.5-0.2-0.8
			c-1.7,0.4-3.4,0.7-5.1,1.1C328.2,1036.9,328.1,1036.7,328.1,1036.6z M337,1040.7c0,0,0.1,0,0.1,0.1s0,0.1,0,0.2l0.1-0.1l0,0
			l-0.1-0.1l0,0l0.1-0.8c-0.3,0.1-0.5,0.2-0.8,0.2C336.6,1040.3,336.8,1040.5,337,1040.7L337,1040.7z M292.7,1033.2
			c2.8-0.4,5.7-2.9,6.4-6c-1.8-0.2-3.4-0.4-5-0.4c-0.5,0-1.3,0.6-1.5,1.1c-0.6,1.1-1,2.4-1.4,3.6
			C290.7,1032.9,291.3,1033.4,292.7,1033.2z M290.1,1030.1c-0.2-0.2-0.5-0.4-0.7-0.6c-0.5,0.6-1.1,1.2-1.5,1.9
			c-0.1,0.1,0.6,0.6,0.9,0.9C289.2,1031.6,289.7,1030.8,290.1,1030.1z M307.1,1070.2c-0.1,0.1-0.1,0.3-0.2,0.4
			c1.9,2.6,4,5.1,5.8,7.8c1.1,1.6,2,1.3,3.4,0.5c2.4-1.5,5-2.8,7.9-4.4C318.1,1073,312.6,1071.6,307.1,1070.2z M306.2,1070.8
			c-0.4,0.6-0.7,1.1-1.1,1.6c0.2,0,0.4,0,0.6,0c0.2,0.7,0.5,1.5,0.6,2.2c0.5,2.4,0.9,4.9,1.4,7.3c0.3,1.1,1,1.2,1.9,0.4
			c1-0.8,2.2-1.4,3.5-2.2C310.9,1077.1,308.6,1074,306.2,1070.8z M284.2,1023.8c-0.8-2.7-1.7-5.3-2.6-7.9c-0.1,0-0.3,0-0.4,0
			c-0.6,3.6-1.1,7.3-1.7,11.2c1,0,1.9,0,2.7-0.1C284.1,1026.7,284.8,1025.7,284.2,1023.8z M271.6,983.6c3.1,9.4,6.2,18.5,9.2,27.6
			c0.1,0,0.3-0.1,0.4-0.1c1.5-9.5,2.9-19,4.4-29C280.9,982.6,276.4,983.1,271.6,983.6z M286.4,982.1c-0.7,4.6-1.4,8.9-2.1,13.2
			c-0.6,4.1-1,8.3-1.9,12.4c-1,4.2-0.4,8.1,1.2,12c0.5,1.1,0.8,2.3,1.3,3.6c3.5-2.7,3.6-6.8,4.8-10.4c3.2-9.6,6.2-19.4,9.5-29.5
			C294.8,982.9,290.6,982.5,286.4,982.1z M299.8,983.4c-1.9,5.8-3.6,11.3-5.4,16.8c-2.2,6.8-4.3,13.7-6.6,20.5
			c-0.5,1.5-0.4,2.5,1.1,3.4c0.4-0.3,0.8-0.6,1.2-0.9c2.5,2.8,6.2,1.8,9.4,3c4.1-13.1,8-26.1,12.1-39.3
			C307.6,985.8,303.8,984.6,299.8,983.4z M312.3,987.2c-4.1,13.2-8,26-12,38.9c1.6,0.8,2.8,0.7,4.4-0.3c4-2.8,6.8-6.4,8.7-10.9
			c2.9-6.8,6.2-13.4,9.4-20c0.2-0.4,0.4-0.8,0.8-1.5C319.8,991.3,316.1,989.3,312.3,987.2z M347.9,1033.4c-0.7,0-1.3,0-2.2,0
			c0.2,0.9,0.3,1.5,0.5,2.7c0.9-0.9,1.5-1.5,2.1-2.1C348.2,1033.8,348.1,1033.6,347.9,1033.4z M347.6,1047.2c0.5-0.4,1-0.8,1.5-1.1
			c0.3-0.2,0.6-0.5,0.9-0.7c0.4-0.3,0.8-0.6,1.2-1l0,0h0.1l0,0l0,0l0,0c0.1,0,0.2,0.1,0.3,0.1c0.1,0,0.2,0.1,0.3,0.1
			c0.2,0.1,0.5,0.2,0.7,0.3c0-0.4-0.1-0.8-0.1-1.1c0.1-0.7,0.2-1.4,0.3-2.2c-0.9-0.8-2-1.7-3.2-2.6c-0.5-0.1-1-0.2-1.4-0.2
			c-0.6-0.3-1.2-0.7-1.9-0.9c-0.6-0.2-1.2-0.4-1.7-0.6c-0.1-0.4-0.3-1-0.5-1.6c-0.2,0.1-0.5,0.2-0.7,0.3
			C343.7,1040.1,346.2,1043.4,347.6,1047.2z M329,1004.2c-0.3-1.5-0.7-2.9-0.8-4.4c-0.2-2.8-1.7-4.5-4.4-5.7c-4,8.5-8,17-12,25.4
			c0.1,0.1,0.2,0.2,0.3,0.2c2.3-1.8,4.7-3.6,7-5.4c2.8-2.2,5.6-4.5,8.5-6.6C328.9,1006.7,329.4,1005.7,329,1004.2z M330.2,1021.7
			c-5.7,4.4-11.3,8.7-17,13.1c0.1,0.2,0.2,0.3,0.3,0.5c4.6-1.7,8.5-4.6,12.3-7.6c1.4-1.1,2.8-2.3,4.1-3.6c0.5-0.5,0.6-1.2,0.9-1.8
			L330.2,1021.7z M340.7,1050.6c0.3-0.3,0.4-0.4,0.5-0.5c0.5-0.5-1.1-1.7,0.5-1.9c-0.2-0.5-0.2-1.3-0.6-1.6c-1-0.8-2.1-1.4-3.2-2.1
			c-0.2-0.1-0.5-0.2-0.7-0.2c-0.7-0.3-1.4-0.6-2.1-0.9c-0.6-0.3-1.2-0.5-2.1-0.8c0-0.2-0.1-0.9-0.2-1.6c-0.4,0.1-0.7,0.1-1.1,0.2
			c0.5,1.8,1,3.7,1.7,6.1c-0.8-0.4-1.4-0.7-1.8-1c-0.3-0.3-0.3-0.9-0.6-1.2c-0.4-0.4-1-0.6-1.5-0.9c-0.2,0.5-0.4,1-0.5,1.5
			c0,0.2,0.2,0.5,0.2,0.7c-0.1,0.5-0.3,1-0.5,1.6c-0.4-0.2-0.9-0.4-1.3-0.6s-0.8-0.4-1.2-0.6c-0.3-0.2-0.6-0.3-0.8-0.5
			c0.2-0.9,0.5-1.8,0.7-2.8c-1-0.7-1.7-0.4-2.2,0.8c-0.2,0.6-0.6,1.1-0.9,1.7c-0.1,0-0.2,0-0.3,0c-0.7,0.3-1.5,0.6-2.3,0.9l-0.6-1.3
			c-0.2,0.1-0.3,0.1-0.5,0.2l1.3,2.8c-0.2,0.1-0.5,0.2-0.6,0.5s0,0.7,0,1.1c-0.4-0.2-0.9-0.4-1.1-0.7c-0.4-0.6-0.5-1.4-1-1.9
			c-0.3-0.4-1.1-0.8-1.3-0.6c-0.5,0.3-0.9,0.9-0.9,1.4c0,0.8,0.4,1.6,0.9,3.1c-2.2-0.5-3.8-0.9-5.6-1.3l0.7,1.6
			c-0.7,0.3-1.4,0.5-2.4,0.9c1.2,0.5,6.9,2,8,2.4c3.5,1.2,12.3,5,16.1,6.3c-0.6-2.4-1.2-4.6-1.7-6.8c1-0.5,1.9-1,3.2-1.7
			c-1.1-0.8-2-1.4-2.8-2.1c0-0.2,0-0.4-0.1-0.5c0.7-0.1,1.4-0.1,2.2-0.2l2.1-0.2c0,0.1,0,0.1,0.1,0.2c0.1,0.4,0.3,0.8,0.4,1.1
			c1-0.7,1.8-1.3,2.6-1.9C339.9,1049.6,340.3,1050.1,340.7,1050.6z M349.4,1076.2c-2.2,0.8-4.1,1.5-6,2.2c0,0.1,0,0.3,0,0.4
			c1.5,0.4,3.1,0.8,4.4,1.1C348.3,1078.6,348.8,1077.5,349.4,1076.2z M347.9,1080.5c-2.5-0.5-4.8-0.9-7-1.4c-2.4-0.6-4.7-1.4-7.1-2
			c-1.9-0.5-3.9-1.1-5.9-1.5c-1-0.2-2.2-0.2-3,0.2c-2.4,1.2-4.8,2.6-7.1,4c-0.2,0.1-0.3,0.3-0.5,0.3c-2.4,1.2-2.5,1.2-0.9,3.3
			c5.2,7,10.5,14.1,15.9,21.3C339.1,1097.6,344.2,1089.7,347.9,1080.5z M331.9,1105.4c-2.8-3.8-5.4-7.4-8.1-10.9
			c-2.8-3.8-5.7-7.6-8.5-11.5c-1-1.4-2-1.4-3.2-0.4c-0.3,0.3-0.7,0.7-1.1,0.8c-2.3,0.1-2,1.2-1.2,2.7c4.5,8.8,8.9,17.7,13.5,26.9
			C326.3,1110.3,329,1107.9,331.9,1105.4z M322.5,1113.3c-1-2.2-1.9-4.4-2.9-6.4c-3.4-6.9-6.9-13.7-10.4-20.6
			c-0.8-1.6-1.6-1.8-3.2-0.8c-3.1,2.1-8.8,1.1-11-2c-0.2-0.3-0.1-1,0.1-1.5s1-1,0.9-1.3c-0.7-4.1,2.5-5.8,4.9-7.9
			c0.3-0.3,0.5-0.7,0.7-1c-0.4-0.1-1-0.5-1.3-0.4c-1.3,0.6-2.7,1-3.6,2c-1.3,1.4-2.1,3.1-3.1,4.7c-1.1,1.6-2.3,3.2-3.7,5.2
			c5.4,12.5,10.9,25.5,16.5,38.7C312.4,1119.8,317.6,1116.9,322.5,1113.3z M305.9,1122.2c-6-13.9-11.6-27.8-17.9-41.4
			c-0.3,0.1-0.6,0.2-0.9,0.3c-1.1,14.9-2.2,29.8-3.3,45C291.5,1126.1,298.7,1124.9,305.9,1122.2z M283.2,1126.3
			c1.1-15.3,2.2-30.2,3.3-45.1c-0.1-0.1-0.3-0.2-0.4-0.3c-0.5,0.5-1.1,0.9-1.3,1.5c-4.8,14-9.5,28.1-14.4,42.5
			C274.8,1125.3,278.9,1125.8,283.2,1126.3z M262.1,1122.2c1-2.2,2.1-4.4,3.1-6.7c0.2,0.1,0.4,0.1,0.7,0.2c-0.4,2.4-0.8,4.9-1.2,7.5
			c1.6,0.4,3.2,0.8,5.1,1.3c2-5.9,4-11.7,5.9-17.5c2.5-7.3,4.9-14.6,7.4-21.9c0.4-1.1,0.5-2,0.5-2.8c0-0.1,0-0.2,0-0.3v-0.1
			c0-0.1,0-0.2,0-0.2c0-0.1-0.1-0.3-0.1-0.4c-0.1-0.2-0.1-0.3-0.2-0.4s-0.1-0.2-0.2-0.3l0,0c-0.1-0.1-0.2-0.2-0.3-0.4
			c-0.4-0.3-0.8-0.6-1.4-0.8c-0.1,0-0.2-0.1-0.3-0.1c-0.1,0-0.2-0.1-0.3-0.1c-0.1,0-0.2-0.1-0.3-0.1c-0.1,0-0.2-0.1-0.4-0.1
			s-0.2,0-0.4-0.1l0,0l0,0c0.2-0.1,0.5-0.2,0.7-0.3c0.1,0,0.2-0.1,0.3-0.1c1.4-0.6,1.9-1.5,0.6-2.7c0.5-1.4,2.3-2.6,0.2-4
			c-1.4-0.9-2.4-0.1-3.2,1c-0.8,1.1-0.1,2.9,0.7,3.4c0.1,0.3,0.1,0.5,0.2,0.7c0,0.1,0,0.2,0.1,0.3c0.1,0.3,0.1,0.6,0.2,0.9
			s0.1,0.6,0.2,0.9l0,0l0,0c-0.3-0.2-0.5-0.4-0.8-0.5c-0.1,0-0.1-0.1-0.2-0.1c-0.3-0.1-0.7-0.2-1-0.2c-0.1,0-0.3,0-0.5,0
			c-0.1,0-0.2,0-0.2,0c-0.1,0-0.1,0-0.2,0.1c-0.2,0.1-0.4,0.1-0.5,0.2c-1.4,0.6-2.7,0-3.8-1.1l0,0c0.4,0.1,0.8,0.3,1.2,0.3
			c0.2,0,0.3,0.1,0.5,0.1c0.5,0.1,0.9,0,1.4-0.1c0.1,0,0.1,0,0.2,0c0.5-0.1,0.9-0.4,1.4-0.7c0.5-0.4,0.5-1.4,0.8-2.1
			c-0.7-0.2-1.6-0.7-2-0.4c-0.5,0.4-1,0.8-1.5,1.2c-0.2,0.1-0.3,0.3-0.5,0.4c-0.3,0.3-0.6,0.6-0.9,0.9l0,0c-0.1,0.1-0.3,0.3-0.5,0.4
			l0,0l0,0c0,0-0.1,0-0.1-0.1c0,0-0.1,0-0.1-0.1c-0.1,0-0.1-0.1-0.2-0.1l0,0c-0.1-0.1-0.2-0.1-0.4-0.2l0,0c-0.1-0.1-0.2-0.1-0.3-0.1
			c-0.1,0-0.1-0.1-0.2-0.1c0,0-0.1,0-0.1-0.1h-0.1c-0.1,0-0.2-0.1-0.3-0.1c-0.2,0-0.3,0-0.5,0.1l0,0c0,0,0,0-0.1,0s-0.1,0.1-0.1,0.1
			s-0.1,0.1-0.1,0.2c-0.1,0.1-0.1,0.2-0.2,0.3c0,0.1-0.1,0.1-0.1,0.2c0,0,0,0,0,0.1c-0.1,0.3-0.2,0.6-0.3,1.1
			c-3.6,13.4-7.1,26.9-10.6,40.3c-0.1,0.6-0.3,1.1-0.4,1.8C259.2,1121.2,260.6,1121.7,262.1,1122.2z M256.9,1120.6
			c3.9-14.7,7.6-28.9,11.5-43.6c-2.9,2.5-5.5,4.3-7.2,7.3c-5.2,9.2-10.7,18.2-16.1,27.3c-0.3,0.5-0.5,1-1,1.9
			C248.4,1115.8,252.5,1118.1,256.9,1120.6z M268.2,1076.2c-0.5-0.4-0.9-0.7-1.4-1.1c-0.8,1.3-1.4,2.3-2,3.4
			c-0.1,0.1-0.1,0.3-0.2,0.8C265.9,1078.2,267,1077.3,268.2,1076.2z M243.6,1112.9c5.9-9.9,11.5-19.4,17.1-28.9
			c-0.1-0.1-0.2-0.2-0.3-0.3c-8.5,7.1-16.9,14.2-25.7,21.5C237.7,1107.8,240.5,1110.3,243.6,1112.9z M231.1,1101.1
			c1,1.2,2.1,2.4,3.1,3.6c3.8-3.2,7.4-6.2,10.9-9.2c4.4-3.7,8.7-7.6,13.4-11.1c3.7-2.8,5.9-6.5,8.2-10.9c-4.1,2.1-7.8,4-11.4,5.9
			c-11.3,5.9-17.6,9.1-26.2,13.6c-1.4,0.8-2.6,1.4-3.4,1.8C227.5,1096.9,229.3,1099,231.1,1101.1z M225.4,1094.1
			c8.7-4.6,19.4-10,28.1-14.6c3.7-2,7.5-3.9,11.4-6c-0.6-0.7-1.1-1.2-1.4-1.5c0.8-0.3,1.7-0.5,3-0.9c0.1,0,0.7,0.4,1.3,0.8
			c1.1-1.8,2-3.5,3-5.2c-2.8-1.2-4.8-1.1-6.2,0.5c-0.2-0.6-0.3-1.6-0.7-1.7c-1.2-0.3-2.5-0.4-3.8-0.4c-0.1,0-0.5,0.8-0.3,1
			c0.8,0.9,1.6,1.9,2.6,2.5c0.3,0.2,1.3-0.5,1.9-0.8l0.9,2c-0.6,0.1-1.5,0.3-2.1,0.4c-3.4-1.9-4.2-5.7-6.1-9.1
			c-12.3,7.2-24.6,14.3-37,21.5C221.1,1085.1,224.2,1092.6,225.4,1094.1z M257,1060.3c-0.1-0.2-0.1-0.4-0.2-0.7
			c-3.4-0.1-6.7-1.5-10.3-0.2c-9.9,3.4-19.8,6.5-29.7,9.7c-0.3,0.1-0.6,0.3-1.3,0.6c1.3,4.1,2.5,8.1,3.8,12.5
			C232.2,1074.7,244.6,1067.5,257,1060.3z"/>
		<path class="st3" d="M568.6,925.1L568.6,925.1L568.6,925.1L568.6,925.1z"/>
		<path class="st3" d="M318.6,1021.1C318.6,1021.1,318.7,1021.1,318.6,1021.1C318.7,1021.1,318.7,1021.1,318.6,1021.1
			C318.7,1021.1,318.6,1021.1,318.6,1021.1L318.6,1021.1z"/>
		<path class="st3" d="M246.8,1055.5C246.7,1055.5,246.7,1055.5,246.8,1055.5L246.8,1055.5C246.7,1055.5,246.7,1055.5,246.8,1055.5
			L246.8,1055.5C246.7,1055.5,246.7,1055.5,246.8,1055.5L246.8,1055.5L246.8,1055.5z"/>
		<path class="st3" d="M597.3,956.7L597.3,956.7L597.3,956.7z"/>
		<path class="st3" d="M597.3,956.8C597.3,956.8,597.3,956.7,597.3,956.8C597.3,956.7,597.3,956.7,597.3,956.8
			C597.3,956.7,597.3,956.7,597.3,956.8L597.3,956.8z"/>
		<path class="st3" d="M236.7,1019.5L236.7,1019.5L236.7,1019.5L236.7,1019.5C236.7,1019.4,236.7,1019.4,236.7,1019.5L236.7,1019.5z
			"/>
		<path class="st3" d="M239.4,1054C239.4,1054,239.5,1054,239.4,1054C239.5,1054,239.5,1054,239.4,1054L239.4,1054L239.4,1054
			C239.5,1054,239.5,1054,239.4,1054C239.5,1054,239.5,1054,239.4,1054z"/>
		<path class="st3" d="M564.4,939.2L564.4,939.2C564.5,939.2,564.4,939.2,564.4,939.2L564.4,939.2z"/>
		<path class="st3" d="M554.9,1025.2c0.7-0.8,1.5-1.7,2.3-2.6c-0.2-0.5-0.3-1.3-0.5-1.3c-0.7-0.1-1.4,0.2-2.2,0.3
			c-0.1,0.2-0.2,0.4-0.3,0.7c0,0.1,0,0.1-0.1,0.2C553.8,1023.3,553.8,1024.2,554.9,1025.2z"/>
		<path class="st3" d="M594,957.4L594,957.4C594,957.3,594,957.3,594,957.4C594,957.3,594,957.3,594,957.4
			C594,957.3,594,957.3,594,957.4C594,957.3,594,957.3,594,957.4z"/>
		<path class="st3" d="M318.6,1021.1C318.6,1021.1,318.7,1021.1,318.6,1021.1C318.7,1021.1,318.7,1021.1,318.6,1021.1
			C318.7,1021.1,318.7,1021.1,318.6,1021.1C318.7,1021.1,318.7,1021.1,318.6,1021.1z"/>
		<path class="st3" d="M597.3,956.8L597.3,956.8C597.3,956.7,597.3,956.7,597.3,956.8L597.3,956.8z"/>
		<path class="st3" d="M594.5,963.2L594.5,963.2C594.5,963.1,594.5,963.1,594.5,963.2C594.5,963.1,594.5,963.1,594.5,963.2
			L594.5,963.2C594.5,963.1,594.5,963.1,594.5,963.2C594.5,963.1,594.5,963.1,594.5,963.2C594.5,963.1,594.5,963.2,594.5,963.2z"/>
		<path class="st3" d="M585.3,928L585.3,928L585.3,928z"/>
		<path class="st3" d="M585.3,928.1L585.3,928.1L585.3,928.1C585.3,928,585.3,928,585.3,928.1L585.3,928.1L585.3,928.1z"/>
		<path class="st3" d="M585.6,930.1L585.6,930.1L585.6,930.1L585.6,930.1L585.6,930.1L585.6,930.1L585.6,930.1L585.6,930.1
			L585.6,930.1z"/>
		<path class="st3" d="M571.4,925L571.4,925C571.4,925,571.5,925,571.4,925C571.5,925,571.5,925,571.4,925
			C571.5,925,571.5,925,571.4,925L571.4,925C571.5,925,571.5,925,571.4,925C571.5,925,571.4,925,571.4,925L571.4,925z"/>
		<path class="st3" d="M228.4,1022.9L228.4,1022.9L228.4,1022.9L228.4,1022.9L228.4,1022.9L228.4,1022.9L228.4,1022.9z"/>
		<path class="st3" d="M585.3,928.1L585.3,928.1C585.3,928,585.3,928,585.3,928.1L585.3,928.1C585.3,928,585.3,928.1,585.3,928.1
			L585.3,928.1z"/>
		<path class="st3" d="M550.1,931.1L550.1,931.1L550.1,931.1L550.1,931.1C550.1,931,550.1,931,550.1,931.1L550.1,931.1z"/>
		<path class="st3" d="M621,872.8L621,872.8L621,872.8z"/>
		<path class="st3" d="M610.2,881.1l2.5,5.5c0-0.1,0-0.2,0-0.2C612,884.6,611.3,882.9,610.2,881.1
			C610.3,881.2,610.2,881.1,610.2,881.1z"/>
	</g>
</g>
</svg>
