<?xml version="1.0" encoding="utf-8"?>
<!-- Generator: Adobe Illustrator 26.0.3, SVG Export Plug-In . SVG Version: 6.00 Build 0)  -->
<svg version="1.1" id="Layer_1" xmlns="http://www.w3.org/2000/svg" xmlns:xlink="http://www.w3.org/1999/xlink" x="0px" y="0px"
	 viewBox="0 0 1500 1175" style="enable-background:new 0 0 1500 1175;" xml:space="preserve">
<style type="text/css">
	.st0{fill:#FFD700;}
	.st1{fill:#FFFFFF;}
	.st2{fill:#0066CC;stroke:#FFFFFF;stroke-width:12;stroke-miterlimit:10;}
	.st3{fill:#3A2835;}
</style>
<g>
	<g>
		<path class="st0" d="M1305.3,525.3c0,58.2-9.5,114.1-27,166.4c-2.5,7.5-5.2,15-8,22.3c-75.8,196.2-266.2,335.3-489.1,335.3
			c-172,0-324.7-82.9-420.3-210.9l-0.3-0.4c-6.4-8.5-12.4-17.2-18.2-26.1l-0.1-0.2c-40.7-62.2-68.5-133.7-79.6-210.5l-0.1-0.5
			c-1.4-9.6-2.5-19.3-3.4-29c-1.3-15.3-2-30.8-2-46.4c0-71.6,14.4-139.9,40.4-202.1c4-9.7,8.4-19.2,13-28.6l0.3-0.7
			C396.4,120.5,574.9,1.3,781.2,1.3c149.9,0,285,62.9,380.5,163.7c9.1,9.6,17.9,19.6,26.2,29.9c55.7,68.5,94.5,151.4,109.9,242.3
			c1.1,6.8,2.2,13.6,3,20.5C1303.9,479.7,1305.3,502.3,1305.3,525.3z"/>
		<path class="st1" d="M1301,457.6l-589.4-20.5H1298C1299.1,443.9,1300.1,450.7,1301,457.6z"/>
		<path class="st1" d="M1278.4,691.7c-2.5,7.5-5.2,15-8,22.3L726,691.7H1278.4z"/>
		<path class="st1" d="M1188,194.8l-728.4-29.9h702.2C1170.9,174.6,1179.7,184.6,1188,194.8z"/>
		<polygon class="st1" points="342.3,811.7 1012.5,811.7 361,838.5 		"/>
		<polygon class="st1" points="310.9,293.8 1012.5,293.8 297.6,323.2 		"/>
		<polygon class="st1" points="259.2,571.7 981.6,571.7 262.6,601.2 		"/>
	</g>
	<g>
		<path class="st2" d="M1499,1173.8h-27.2c-240.3-0.1-480.6-0.1-720.9-0.1H699c-223.7,0-447.5,0-671.2,0H1l39.1-112.6h0.1
			c27.4-47.6,54.8-95.2,82.5-142.6c2.6-4.5,7.5-8.5,12.1-10.5c14.3-6.2,29.1-10.8,43.3-17.1c5.6-2.5,11.4-6.6,14.9-11.8
			c36.5-54,72.6-108.3,108.8-162.5c1.7-2.5,3.5-4.8,5.9-8.2c17.2,13.5,34,26.7,51.4,40.4c19.8-19,39.5-37.9,59.1-56.8
			c8.9-8.5,18.1-16.7,26.5-25.8c5.4-5.8,10.6-7.4,18-5.5c16.5,4.2,33.3,7.1,49.8,11.3c6.6,1.7,10.6,0,15-5.2
			c57.9-68.2,116-136.1,174.1-204.2c3.5-4.1,6.9-8.2,11.3-13.3c23,20.4,45.6,38.9,66.2,59.7c12.5,12.6,23.3,16.1,37.1,4.5
			c7.2-6,12.4-4.1,18.6,3.3c26,31.4,52.5,62.2,79.2,92.9c3.5,4,8.6,7.3,13.5,8.8c36.9,11.7,73.8,23.1,110.9,34.2
			c6.3,1.9,9.4,5.2,10.9,12.4c5.8,28.2,12.7,56.2,18.5,84.5c1.5,7.1,4.2,8.5,10.4,8.4c23.7-0.2,47.4,0.2,71.1,0.8
			c3.9,0.1,8.3,1.3,11.7,3.4c17.1,10.4,34,20.9,50.7,32c3.8,2.5,7.3,6.8,9.3,11.2c10.1,22.5,19.7,45.4,29.9,69.2
			c15.4-5.5,30.6-10.4,45.6-16.3c6.5-2.6,10.2-1,14.4,4.8c41.9,57.4,83.9,114.7,126,172l0,0L1499,1173.8z"/>
		<path class="st1" d="M713.2,482c8.1,7.2,14.4,12.9,21.6,19.3c-5.9,8.5-10.9,16.6-16.8,23.8c-5.5,6.7-5.7,12.2-1.6,20.3
			C752.9,617.1,789,689.1,825.2,761c2.1,4.2,4,8.5,7.1,15.2c-17.5-3.1-33-5.3-48.1-8.8c-8.3-1.9-12.6,0.1-16.2,8.7
			c-17.4,40.8-35.5,81.3-53.4,121.9c-1.3,3.1-2.9,6-5.7,12c-24.2-69.1-47.5-135.6-71.7-204.7c-7.1,26.4-13.5,50.2-19.9,74.1
			c-0.8,0.2-1.6,0.4-2.5,0.7c-10.8-21.8-21.7-43.6-33.8-68c-50.2,81.2-99.4,160.8-148.6,240.3c-1-0.2-2-0.5-2.9-0.7
			c6.7-64.3,13.3-128.7,20.3-195.6c-7.5,4.8-13.2,9.5-19.6,12.6c-23.6,11.2-38.4,30.1-47.1,56.7c-7.5,22.9-18.2,44.6-27.6,66.8
			c-1.3,3-2.8,5.9-4.2,8.8c-1-0.1-1.9-0.3-2.9-0.4c0-32.1,0-64.2,0-98c-44.1,23.9-77.6,63.4-124.9,75.2c-0.7-0.7-1.3-1.5-2-2.2
			c29.4-44.1,58.8-88.1,88.8-133.2c13.4,10.6,26.6,19.8,38.5,30.7c8.5,7.7,13.8,6.4,21.6-1.3c26-26,52.8-51,78.9-76.7
			c5.1-5,9.8-6.4,16.4-4.9c16.9,4.1,33.9,7.2,50.8,11.4c6.7,1.7,11.2,0.4,16-5.3c58.1-68.4,116.5-136.6,174.7-205
			C709.3,488.6,710.9,485.5,713.2,482z"/>
		<path class="st1" d="M1209.9,845.3c-5.7-0.6-11.5-0.3-16.8-1.9c-7.8-2.4-9.8,1.4-11.5,8.8c-9,39.2-18.4,78.4-27.8,117.5
			c-0.8,3.3-1.8,6.6-5.2,10.6c-11-32.6-22-65.2-33.6-99.4c-16.3,12.1-32,23.4-47.3,35.2c-2.4,1.8-3.5,5.7-4.9,8.8
			c-10,22.2-20,44.5-30,66.7c-1.3,3-2.9,5.8-6.8,8.7c-8.9-36-17.8-72-27.1-109.5c-28.5,19.6-55.6,38.3-82.7,56.9
			c-0.6-0.8-1.2-1.6-1.9-2.4c46.4-56.4,92.8-112.9,136.9-166.6c7.4,2.3,12.2,5,17.1,5.1c25,0.4,50,0,75,0.4
			c4.5,0.1,9.3,1.9,13.5,3.9c21.4,10.3,38.1,26.4,49.8,48.6c1,1.8,2.1,3.5,3,5.4C1210.2,842.7,1209.9,843.5,1209.9,845.3z"/>
		<path class="st1" d="M1169.9,1007.4c16.6-31.2,33.1-62.5,50.2-94.6c-7.9-1.5-14.6-2.8-21.3-4.1c-0.2-0.8-0.5-1.7-0.7-2.5
			c10.2-7.2,20.4-14.5,31.7-22.4c3.3,6.6,6.1,12.2,9.3,18.8c16.5-5.8,32.9-11.4,49.2-17.4c5-1.9,8.2-1.4,11.6,3.3
			c21.9,30.1,44,60.1,66,90.1c0.7,1,1.1,2.4,2.9,6.6c-10-5.7-17.6-10-27.9-15.8c7.9,23.7,14.9,44.7,21.9,65.7
			c-0.6,0.6-1.3,1.2-1.9,1.8c-3.2-2.5-6.4-4.9-9.5-7.5c-23.5-20-47.1-39.8-70.3-60.2c-5.5-4.9-10.2-5.4-16.5-2.4
			c-27.6,13.2-55.3,25.9-83,38.8c-3.2,1.5-6.4,2.7-9.6,4.1C1171.2,1008.7,1170.5,1008,1169.9,1007.4z"/>
		<path class="st1" d="M752.4,540.2c9.2,6.9,18.9,13.1,27.5,20.8c7.8,6.9,13.6,7.5,21.1-0.5c7-7.5,15.4-13.5,24.2-20.9
			c10.3,11.9,19.5,24.6,30.5,34.9c14.2,13.2,18,29.4,18.8,48.8c1.2,33.1,4.4,66.1,6.7,99.1c0.2,3.4,0,6.9,0,10.3
			c-0.8,0.4-1.6,0.8-2.4,1.2c-8.8-20.2-17.6-40.3-26.3-60.5c-0.9,0.1-1.7,0.3-2.6,0.4c0,28,0,56.1,0,84.1c-1.3,0.4-2.7,0.8-4,1.1
			c-32-72.3-63.9-144.5-95.9-216.8C750.8,541.5,751.6,540.8,752.4,540.2z"/>
		<path class="st1" d="M876.8,984.8c0-11.8-0.3-23.6,0.1-35.4c0.9-31,2.2-62.1,2.9-93.1c0.1-3.5-2.5-7-3.4-10.6
			c-0.7-2.7-1.3-5.7-0.8-8.4c1.4-8.1,3.4-16.1,5.5-25.8c-19.1,3.4-36.8,6.6-54.4,9.7c-0.3-0.9-0.5-1.8-0.8-2.7
			c17.1-14.3,30.7-33.4,53.5-40c37.7-10.7,72.5-29.1,106.1-50.4c3-1.9,6.2-3.5,10.8-6c3.3,10.5,6.9,20.1,9.1,30
			c0.6,2.6-2.4,6.8-4.6,9.4c-23.9,28.2-48.1,56.2-71.8,84.5c-4,4.7-7.3,10.7-9.3,16.7c-12.7,37.6-24.9,75.5-37.3,113.2
			c-1,3.1-2.4,6.2-3.5,9.2C878.1,985.1,877.4,985,876.8,984.8z"/>
		<path class="st1" d="M266.7,1074.5c46.8-72.8,93.6-145.6,141.9-220.8c0.8,4.5,1.4,6,1.3,7.5c-4.3,48.2-8.5,96.5-13.1,144.7
			c-0.3,3.1-2.8,7.3-5.3,8.6c-39.6,20.4-79.4,40.4-119.2,60.5c-1.3,0.7-2.9,0.9-4.3,1.3C267.6,1075.7,267.2,1075.1,266.7,1074.5z"/>
		<path class="st1" d="M166.3,1036.1c48.4-51.6,96.8-103.3,145.8-155.5c0,10.1-1,21.1,0.2,31.8c2,16.9-4.5,26.2-17.4,35.1
			c-40.3,27.8-79.6,57.2-119.3,86c-2.5,1.8-5.2,3.3-7.9,5C167.3,1037.7,166.8,1036.9,166.3,1036.1z"/>
		<path class="st1" d="M1034,717.1c-8.2-9.4-16.9-18.4-24.5-28.4c-5.2-6.9-9.6-7.8-17-4c-15.6,8-31.7,14.8-48.9,22.7
			c-11.1-22.2-21.9-44.1-34.1-68.6c5.3,1,8.3,1.4,11,2.2c32.6,10,65.2,20.2,97.9,30c6.3,1.9,9.7,4.9,10.8,12.3
			c1.7,10.9,4.6,21.5,6.9,32.2C1035.5,716.1,1034.8,716.6,1034,717.1z"/>
	</g>
	<g>
		<path class="st3" d="M98.7,931.3c0.1,0.1,0.2,0.1,0.3,0.2c0,0.2,0,0.4,0.1,0.7C98.9,931.8,98.8,931.6,98.7,931.3z M121.7,968.9
			C121.7,968.9,121.8,968.9,121.7,968.9L121.7,968.9L121.7,968.9z M98.7,931.3c0.1,0.1,0.2,0.1,0.3,0.2c0,0.2,0,0.4,0.1,0.7
			C98.9,931.8,98.8,931.6,98.7,931.3z M98.7,931.3c0.1,0.1,0.2,0.1,0.3,0.2c0,0.2,0,0.4,0.1,0.7C98.9,931.8,98.8,931.6,98.7,931.3z
			 M121.8,968.9C121.7,968.9,121.7,968.9,121.8,968.9L121.8,968.9C121.7,968.9,121.8,968.9,121.8,968.9z"/>
		<path class="st3" d="M636.3,863L636.3,863L636.3,863L636.3,863z"/>
		<path class="st3" d="M544.4,809.7C544.4,809.7,544.4,809.8,544.4,809.7L544.4,809.7L544.4,809.7z"/>
		<path class="st3" d="M544.8,812.3c-0.1-0.4-0.1-0.8-0.2-1.2C544.7,811.5,544.8,811.9,544.8,812.3L544.8,812.3L544.8,812.3z"/>
		<path class="st3" d="M544.7,812.3L544.7,812.3C544.8,812.3,544.8,812.3,544.7,812.3L544.7,812.3
			C544.8,812.3,544.7,812.3,544.7,812.3L544.7,812.3z"/>
		<path class="st3" d="M544.7,812.3c0.3,0.3,0.5,0.5,0.8,0.8C545.2,812.8,545,812.5,544.7,812.3L544.7,812.3z"/>
		<path class="st3" d="M544.7,812.3L544.7,812.3L544.7,812.3z"/>
		<path class="st3" d="M559.4,845.5L559.4,845.5L559.4,845.5L559.4,845.5z"/>
		<path class="st3" d="M559.4,845.5C559.4,845.5,559.4,845.6,559.4,845.5C559.4,845.6,559.4,845.6,559.4,845.5
			C559.4,845.6,559.4,845.5,559.4,845.5z"/>
		<path class="st3" d="M559.3,845.6L559.3,845.6c-0.7,0.8-1.4,1.6-2.2,2.5C557.9,847.2,558.6,846.4,559.3,845.6z"/>
		<path class="st3" d="M555.5,846c-0.1,0.1-0.1,0.2-0.2,0.3l0,0C555.4,846.2,555.4,846.1,555.5,846z"/>
		<path class="st3" d="M555.8,853.6L555.8,853.6C555.9,853.5,555.9,853.5,555.8,853.6C555.9,853.5,555.9,853.6,555.8,853.6
			L555.8,853.6L555.8,853.6z"/>
		<path class="st3" d="M550.4,852.1L550.4,852.1C550.3,852.1,550.3,852.1,550.4,852.1C550.3,852.1,550.3,852.1,550.4,852.1
			C550.3,852.1,550.3,852.1,550.4,852.1z"/>
		<path class="st3" d="M550.3,852.1L550.3,852.1C550.4,852.1,550.4,852.1,550.3,852.1C550.4,852.1,550.4,852.1,550.3,852.1
			L550.3,852.1L550.3,852.1z"/>
		<path class="st3" d="M550.4,852.1L550.4,852.1c-0.2,0.1-0.3,0.2-0.5,0.3C550.1,852.3,550.2,852.2,550.4,852.1z"/>
		<path class="st3" d="M527.1,806L527.1,806L527.1,806L527.1,806L527.1,806L527.1,806z"/>
		<path class="st3" d="M518.4,823.7c0.1,0.1,0.1,0.1,0.2,0.2C518.5,823.9,518.4,823.8,518.4,823.7L518.4,823.7z"/>
		<path class="st3" d="M500.5,813.5c0.1,0,0.3,0,0.4,0C500.8,813.5,500.6,813.5,500.5,813.5C500.5,813.6,500.5,813.6,500.5,813.5z"
			/>
		<path class="st3" d="M500.5,813.5L500.5,813.5L500.5,813.5L500.5,813.5L500.5,813.5z"/>
		<path class="st3" d="M503.8,839.4c0,0.1,0.1,0.3,0.1,0.4l0,0C503.8,839.6,503.8,839.5,503.8,839.4z"/>
		<path class="st3" d="M506,926.5L506,926.5c-0.1,0.3-0.2,0.5-0.3,0.8C505.7,927.1,505.8,926.8,506,926.5z"/>
		<path class="st3" d="M307,664.1h0.1H307L307,664.1z"/>
		<path class="st3" d="M109.3,923.9L109.3,923.9L109.3,923.9C109.2,923.9,109.3,923.9,109.3,923.9z"/>
		<path class="st3" d="M121.8,968.9L121.8,968.9L121.8,968.9L121.8,968.9L121.8,968.9L121.8,968.9z"/>
		<path class="st3" d="M98.7,926.6c0,0.5,0.1,1,0.1,1.5l0,0C98.7,927.6,98.7,927.1,98.7,926.6z"/>
		<path class="st3" d="M98.8,928.2L98.8,928.2L98.8,928.2L98.8,928.2L98.8,928.2z"/>
		<path class="st3" d="M113.3,966.4c-0.2,0.2-0.4,0.4-0.6,0.5l0,0C112.9,966.8,113.1,966.6,113.3,966.4z"/>
		<path class="st3" d="M112.7,967L112.7,967L112.7,967L112.7,967L112.7,967L112.7,967C112.7,967,112.6,967,112.7,967
			C112.6,966.9,112.6,966.9,112.7,967z"/>
		<path class="st3" d="M110.7,966c-0.1,0-0.3-0.1-0.4-0.1C110.4,966,110.6,966,110.7,966z"/>
		<path class="st3" d="M193.7,921.2l0.1,0.1l0,0l0,0C193.8,921.3,193.8,921.3,193.7,921.2C193.8,921.3,193.8,921.3,193.7,921.2z"/>
		<path class="st3" d="M112.7,967L112.7,967L112.7,967L112.7,967L112.7,967z"/>
		<path class="st3" d="M211.5,925.9C211.5,925.9,211.6,925.9,211.5,925.9C211.6,925.9,211.6,925.9,211.5,925.9
			C211.6,925.9,211.5,925.9,211.5,925.9L211.5,925.9L211.5,925.9L211.5,925.9L211.5,925.9L211.5,925.9z"/>
		<path class="st3" d="M544.8,812.3L544.8,812.3L544.8,812.3L544.8,812.3z"/>
		<path class="st3" d="M544.7,812.3L544.7,812.3L544.7,812.3z"/>
		<path class="st3" d="M109.7,966.1L109.7,966.1L109.7,966.1L109.7,966.1z M109.7,966.1L109.7,966.1L109.7,966.1L109.7,966.1z"/>
		<path class="st3" d="M88.4,904.9c0.1,0,0.2,0.1,0.3,0.1l0,0C88.6,905,88.5,905,88.4,904.9L88.4,904.9z M88.4,904.9
			c0.1,0,0.2,0.1,0.3,0.1l0,0C88.6,905,88.5,905,88.4,904.9L88.4,904.9z M88.4,904.9c0.1,0,0.2,0.1,0.3,0.1l0,0
			C88.6,905,88.5,905,88.4,904.9L88.4,904.9z"/>
		<path class="st3" d="M57.1,993.2c-11-48.1,9.7-98.7,51.9-123.8c31.2-18.5,64.7-22.4,99.4-10c1.9,0.7,3.8,1.6,5.6,2.3
			c1.7,0.7,2.9,0.2,3.2-1.7c1.8-10.2,3.7-20.3,5.5-30.5c0.1-0.6,0-1.2,0.1-2.2c-3.5,2-4.7-0.7-6.3-2.7c-1.7-2-3.4-4-5.5-5.4
			c-18-12.4-34.4-26.7-51.8-39.7c-19.3-14.4-36.1-31.4-53.4-47.9c-10.4-9.9-15-22.7-14.5-36.8c0.2-5.3,3.3-10.4,5-15.7
			c1-3,2.6-5.9,2.8-9c0.8-10.1,4.7-18.6,10.9-26.4c11.9-14.8,23.8-29.5,35.2-44.7c8-10.7,18.4-18.6,28.4-27
			c8.3-6.9,16.9-13.5,25.6-20c10-7.5,21.4-11.4,33.7-13.4c3.2-0.5,6.5-0.2,9.7-0.9c6.1-1.3,17.1,1,19.6,1.4c3.1-4.8,2-10-2.7-12.8
			c-0.8-0.5-1.6-1.1-2.5-1.6c-3.7-2.2-6.2-4.7-5.2-9.7c0.6-2.9,0.1-6.2-0.1-9.2c0-0.8-0.5-1.8-1.1-2.2c-2.3-1.4-2.8-3.7-2.4-6
			c0.5-2.9,1.2-5.8,2.5-8.4c0.6-1.1,2.8-1.8,4.3-1.8c2.2,0,4.1-0.1,5.3-2.2c2.4-4.3,6.2-7,10.4-9.3c0.3-0.2,0.6-0.5,0.9-0.8l8-3.6
			c12.3-2.8,23.8,1.4,35.5,3.8c7.8,1.6,27.3,12.6,28.5,13.3c9.1,4.9,18.1,10,27.1,15c2.8,1.6,2.8,1.8,1.5,4.7
			c-1.9,4.4-4.5,6.5-9.7,5.3c-4.6-1-9.6-0.5-14.3-1.4c-3.8-0.6-5.6,1-7,4c-2.4,5.4-4.9,10.9-7.2,16.3c-0.4,1-0.1,2.4-0.1,3.5
			c-0.1,1.6,0,3.3-0.4,4.9c-0.3,1.4-1.3,2.6-1.9,4c-0.8,1.7-1.6,3.2-3.9,2.9c-0.4-0.1-1,0.5-1.4,0.7c0.3,0.5,0.5,1.3,0.9,1.5
			c1.7,0.8,3.5,1.8,5.4,2.1c3.4,0.5,6.8,0.6,10.2,0.8c0.9,0.1,1.7,0,2.7,0c-0.1,4.1-0.4,7.7-4.6,9.9c-3.5,1.8-5,5.7-6.4,9.2
			c-0.4,1.1-1,2.1-1.2,3.2c-0.6,3.6-3.6,4.3-6.4,5.2c-0.5,0.2-1.3-0.3-1.8-0.8c-3.6-3-7.2-6.1-10.7-9.2c-1-0.9-1.9-1.3-3.2-0.6
			c-4.2,2-8.2,1.2-12.2-0.8c-3.9-1.9-5.3-1.1-5.7,3.2c-0.4,4.2-1.4,8.4-1.4,12.6c0,3,0.9,6.1,1.7,9c0.9,3.4,2.1,6.6,1.4,10.3
			c-0.3,1.3,0.3,2.9,0.8,4.3c1.9,6,2.2,9.5,1.3,15.3c3.8,1.3,7.6,2.3,11.3,3.9c2.1,0.9,3.8,2.7,5.7,3.9c0.9,0.6,2,1.1,3,1.4
			c5.2,1.2,10.4,2.2,15.5,3.4c1.6,0.4,3.2,0.9,4.5,1.8c6.6,4.6,13.3,4.1,20.1,0.8c3.4-1.6,6.9-2.3,10.7-1.9c2.3,0.2,4,1.2,5.3,3.3
			c1.1,1.8,2.9,3.3,4.7,4.4c5.5,3.5,11.1,6.8,16.7,10.2c0.4,0.3,1,0.4,1.2,0.8c1.7,2.8,3.1,5.8,6.6,7.1c0.4,0.1,0.6,1.4,0.4,2
			c-0.7,2,0.3,3.4,1.5,4.8c2.6,2.8,9,9.1,9,9.1c0.6,1.7,2.8,7.4,4,7.3c0.1,0,0.1,0,0.2,0.1c-0.6,2-1.1,4-2,5.8
			c-0.4,0.7-1.7,1-2.7,1.2c-0.6,0.1-1.3-0.5-2.4-1.1c0.4,3,1.1,7.9,1.1,8c0.1,0.5,4.5,8.1,6.3,10.2c0,0,9.4,10.4,13.4,14.4
			c4.7,4.7,9.4,9.2,14.1,13.9c0.7,0.7,0.8,1.8,1.2,2.7c0.2,0.5,0.5,1,0.9,1.4c12.2,13.7,24.5,27.4,36.8,41.1c0.3,0.4,0.8,0.6,1.2,1
			c0.2-0.1,0.4-0.2,0.6-0.3c-1-2.9-1.9-5.9-3-8.8c-1-2.9-1-3.1,1.8-4.4c1.5-0.7,2.9-1.3,4.7-2.7c-0.2-0.1-0.3-0.1-0.5-0.2
			c0.1,0,0.2-0.1,0.2-0.1c0.2-0.1,0.3-0.2,0.5-0.3c1.8,2.6,3.6,5.3,5.4,7.9c5.1-4,9.7-6.9,13.3-9c2.6-1.5,9.7-5.6,18.8-8.8
			c2.2-0.8,9-3.1,9.1-3.1c7.2-2.2,17.2-4.6,29.4-5c14.2-0.5,25.5,1.9,31.7,3.4c10.8,2.8,21.1,7.2,30.9,13.3c2.4,1.5,5,3.1,7.6,5
			c4.7,3.4,8.7,6.9,12,10.2c8.5,8.4,11.8,13.5,13.8,16.3c2.2,3.1,4.2,6.4,6.1,9.8c0.4,0.6,0.8,1.2,1.3,1.8l6.6,14.7
			c1.5,5.2,3.1,10.4,4.3,15.7c1.8,7.7,2.3,13.8,2.6,16.2c0.6,6.4,1,15,0.1,25.1c-0.9,5.4-2.2,11.4-4.2,17.8
			c-1.7,5.8-3.7,11.1-5.7,15.8c-3.7,8.6-10.6,21.9-23.3,34.7c-2.7,2.7-11.2,11.8-24.2,18.5c-8.7,4.5-48.8,24.2-93.7,9
			c-27.1-9.2-43.7-26.8-49.3-33c-34.7-37.5-38.9-81.2-19.2-128.4c-2.8,1.2-5.2,2.4-7.6,3.4c-2.5,1.1-5.1,2.1-7.7,3
			c-1.2,0.4-2.6,0.6-3.8,0.5c-1.2-0.2-2.7-0.8-3.2-1.7c-0.4-0.6,0.5-2.3,1.3-3c4.8-4.6,9.8-9,14.6-13.6c5.3-5.1,10.5-10.5,15.7-15.7
			c0.2-0.2,0.3-0.4,0.5-0.8c-0.9-1-1.8-2-2.7-3c-10.2-11.3-20.4-22.6-30.6-33.8c-1.4-1.5-2.6-3.2-5-1.6c-0.4,0.2-1.6-0.4-2.2-0.9
			c-2.9-2.6-5.7-5.3-8.5-8c-1.2-1.2-2.3-1.3-3.6-0.3c-1.3,1-2.5,1.1-3.9-0.3c-0.4-0.5-1.8-0.6-2.4-0.3c-5.4,2.1-9.8,5.5-12.2,11
			c-5.2,11.7-10.6,23.4-15.5,35.3c-9,21.9-17.6,44-26.4,66c-0.2,0.6-0.4,1.2-0.7,2.1c2.5-1.3,4.5-2.5,6.7-3.5
			c6.9-3.1,15.3,1.9,15.3,9.5c0,2.6-1.7,5.4-3.3,7.6c-1.7,2.5-4,4.8-6.3,6.8c-1.8,1.6-4,2.8-6,4.2c-2.2,1.6-4.4,3.1-6.7,4.8
			c1.1,0.3,2.5,0.6,3.8,1.1c0.6,0.2,1.1,0.8,1.7,1.2c-0.4,0.5-0.8,1.1-1.3,1.5c-1.3,0.8-2.7,1.5-4.3,2.4c0.1-0.6,0.2-1.2,0.3-1.9
			c-1.9,0.2-3.4,0.8-4.1,2.6c-0.1,0.2,0.7,0.7,1.1,1.1c-0.1,0.7-0.1,1.8-0.4,2.7c-0.6,1.5-1.2,3.2-2.2,4.4c-4.7,5.1-9.5,10-14.3,15
			c-0.7,0.7-1.4,1.5-2.1,2.3c2.3,2.2,4.2,4.1,4.9,7.2c0.4,2.1,1.7,4,2.6,6c0.1,0.1,0.2,0.3,0.2,0.4c-0.1,5.2,2,10.3-1.3,15.5
			c-5.3,8.2-11.6,14.3-21.9,15.4c-3.1,0.3-6.2,1.6-8.9,3.1c-9.8,5.3-19.5,10.8-29.3,16.2c-1.4,0.8-2,1.8-2.3,3.4
			c-4.7,33.2-20.4,60-48,79c-29.2,20.1-61.3,25.5-95.5,16.1c-27.8-7.7-49.5-24.2-65.2-48.4c-1.5-2.2-2.9-4.5-4.3-6.8l-6.6-14.7
			C59.8,1003.1,58.2,998.2,57.1,993.2z M514.1,834.8c-6.4-7.1-13-14.1-19.5-21.2c-0.2-0.2-0.4-0.3-0.8-0.5c-0.8,1.1-1.5,2.2-2.4,3.5
			c7.9,7.2,15.7,14.3,23.5,21.4c0.2-0.1,0.3-0.2,0.5-0.3C515,836.7,514.8,835.5,514.1,834.8z M517.6,838.6c-0.1,2,1.8,4,6.8,7.3
			C522.2,843.5,520,841.2,517.6,838.6z M518.2,842.1c-0.2,0.1-0.3,0.2-0.5,0.2c0.8,3.1,1.5,6.3,2.6,9.3c0.4,1,1.9,1.9,3,2.1
			c2.6,0.5,5.2,0.6,8,0.4C527,850.1,522.6,846.1,518.2,842.1z M530.1,866.4c1.4-0.5,3.1-0.9,2.5-2.9c-0.2-0.6-1.3-1.5-1.9-1.4
			c-2.3,0.1-4.7,0.5-7.3,0.9c0.5,2,1,3.8,1.4,5.3C526.9,867.6,528.5,867,530.1,866.4z M529.1,873c1.2,0.3,2.5,0.1,3.8,0.2
			c0-1.9-1.7-4-3.4-3.8c-0.7,0.1-1.5,1.2-1.8,2C527.5,871.7,528.4,872.8,529.1,873z M567.8,899.6c2.4-0.2,3.7-0.5,3.8-2.9
			c0.1-1.4,1.6-2.8,2.5-4.1c0.9-1.3,0.7-2.3-0.5-3.4c-1.5-1.4-2.8-3.1-4.5-4.9c-2.2,4.3-4.2,8.1-6.3,12.2c1,0.1,1.7,0.2,2.6,0.3
			c-0.7,0.8-1.4,1.6-2.1,2.5c3,0.7,4.2-0.1,4.1-2.7c0.9-0.1,1.9-0.1,2.9-0.2C569.5,897.4,568.8,898.3,567.8,899.6z M587.1,892.4
			c2.5-0.9,3-2.7,1.7-4.4c-0.2-0.2-0.1-0.6-0.1-0.9c0-1.4,0.1-2.9-0.1-4.3c-0.9-5.1-1.7-5.6-7.3-4.7c1.4,4,2.7,7.9,4.1,12l1.9-0.8
			C587.2,890.3,587.1,891.3,587.1,892.4z M587.4,875.1c0.2,1.7,1.1,2.3,2.8,2.2c1.1-0.1,2.2,0.1,3.3,0.2c0-0.2,0.1-0.3,0.1-0.5
			c-1.7-1.3-3.5-2.6-5.7-4.3c3.1-0.5,5.7-0.9,9-1.4c-1.8-1.1-3.2-1.9-4.6-2.7c0.1-0.2,0.2-0.4,0.3-0.6c0.8,0.5,1.5,1,2.3,1.5
			c0.2-0.3,0.4-0.6,0.5-0.9c-2.9-3.5-5.7-7.3-10.4-8.6c-0.7-0.2-1.9,1.2-3.2,2.1c0.9,0.8,1.4,1.2,2.4,2.1c-1.2-0.2-1.8-0.4-2.7-0.5
			c0.1,1,0.2,1.9,0.3,3.1c0.9-0.6,1.5-1,2.2-1.3c0.1,0.1,0.2,0.2,0.2,0.2c-0.4,0.6-0.8,1.3-1.4,2.2
			C585.9,869.2,587.1,871.9,587.4,875.1z M596,875.5L596,875.5L596,875.5C596.1,875.5,596.1,875.5,596,875.5
			c0.1,0.4,0.1,0.9,0.2,1.4c0,0.2,0,0.4,0.1,0.6c0.6,0.1,1.3,0.2,2,0.3c-0.1-0.2-0.2-0.4-0.4-0.5c0.7-0.8,1.4-1.6,2.2-2.5l0,0
			c0,0,0,0,0-0.1c0,0.1,0,0.2,0,0.3c0,0.3-0.1,0.5-0.1,0.8c0,0.2-0.1,0.5-0.1,0.7c0,0.4-0.1,0.8-0.2,1.3c3.5,0.2,7.1,0.4,10.7,0.6
			c0.1-0.1,0.1-0.3,0.2-0.4c-3.1-1.6-6.3-3.2-9.5-4.9c-0.4,0.6-0.7,1.1-0.9,1.6l0,0l0,0l0,0l0,0c0,0,0,0-0.1,0.1
			c-0.3-1-0.2-2.4-0.8-2.7h-0.1h-0.1c-0.2,0-0.5,0-0.8,0.1c-0.1,0.1-0.1,0.2-0.2,0.3c-0.1,0.2-0.2,0.3-0.3,0.4s-0.1,0.2-0.2,0.3
			c-0.1,0.1-0.2,0.3-0.3,0.4l0,0c0,0.1-0.1,0.1-0.1,0.2s-0.1,0.1-0.1,0.2c-0.2,0.3-0.3,0.5-0.5,0.8c-0.1,0.1-0.2,0.3-0.3,0.4
			C596.2,875.2,596.2,875.3,596,875.5C596,875.4,596,875.4,596,875.5C596.1,875.4,596.1,875.4,596,875.5
			C596.1,875.4,596.1,875.4,596,875.5c0-0.1,0-0.2,0-0.3c0-0.3,0.1-0.5,0.1-0.8c0-0.2,0.1-0.4,0.1-0.7c0.1-0.4,0.1-0.8,0.2-1.3
			c-2,0.2-3.9,0.4-6.4,0.7c1.9,1.4,3.4,2.6,4.9,3.7c0.3-0.4,0.6-0.7,0.8-1c0-0.1,0.1-0.1,0.1-0.2C596,875.5,596,875.5,596,875.5
			L596,875.5z M585.2,838.9L585.2,838.9L585.2,838.9L585.2,838.9c0-0.3,0-0.5-0.1-0.7c0-0.1,0-0.1,0-0.2c-0.1-0.3-0.2-0.5-0.3-0.8
			c-0.1-0.1-0.1-0.2-0.2-0.2l-0.1-0.1c-0.1-0.1-0.2-0.1-0.2-0.2c-0.1,0-0.2-0.1-0.3-0.1c-0.3-0.1-0.7-0.2-1.2-0.1
			c-0.4,0-1,1.1-0.9,1.4c0.2,0.6,0.6,1,1,1.2h0.1c0.5,0.2,1.2,0.2,1.9-0.2C584.9,839,585,839,585.2,838.9L585.2,838.9
			C585.2,838.9,585.2,839,585.2,838.9C585.2,839,585.2,839,585.2,838.9C585.2,839,585.2,839,585.2,838.9L585.2,838.9
			c0.1,0.5,0.1,0.9,0.2,1.3c0.1,0.4,0.1,0.8,0.2,1.2c0,0,0,0-0.1,0l0,0c-1.8-1-3.7-2.1-5.7-3.3c-0.3,4-0.6,7.6-0.9,11.7
			c3.1-0.4,6.1-0.6,9-1.1c1.7-0.3,2-2.5,0.8-4.2c-0.4-0.6-1-1.1-1.5-1.6c-0.3-0.3-0.5-0.5-0.8-0.7c-0.3-0.3-0.5-0.5-0.8-0.8h0.1l0,0
			l0,0l0,0l0,0c0,0,0,0,0-0.1c0.1,0,0.2,0,0.3,0c0.8,0,1.7-0.1,2.5-0.2c0.1,0,0.1-1.3,0-1.4c-0.9-0.3-1.9-0.5-2.8-0.8
			C585.4,839,585.3,839,585.2,838.9C585.2,839,585.2,838.9,585.2,838.9z M574.1,843.2c2.6-1.8,5-5.6,4.9-8.6c-1.4,0-2.9,0-5.1,0.1
			c1.1,2,1.7,3.2,2.6,4.8C575.9,840.4,572.6,840.4,574.1,843.2z M569.8,832.9c-0.5-0.4-0.9-1.1-1.4-1.1c-0.7,0.1-1.4,0.6-2.1,0.9
			c0.5,0.8,1,1.5,1.6,2.3l0,0l0,0h0.1c-1.2,0.1-2.4,0.1-3.5,0.1l0,0c0.4-1.1,2.3-2.5-0.3-3.2c-0.5-0.1-1.3,0.6-2,1
			c0.4,0.6,0.8,1.2,1.3,1.7c0.2,0.2,0.6,0.3,1,0.5l0,0l0,0l0,0c-1.2-0.1-2.1,0.2-2.8,0.7c-0.1,0.1-0.2,0.1-0.3,0.2
			c-0.4,0.4-0.8,0.9-1.1,1.4c-0.1,0.2-0.2,0.4-0.3,0.7c-0.1,0.1-0.1,0.2-0.2,0.4c0,0.1-0.1,0.2-0.1,0.4c-0.2,0.5-0.4,1-0.5,1.5
			c-0.2,0.4-0.1,1.2,0.2,1.5c1.7,2,3.5,4,5.4,6.2c2.7-4.1,6.5-7.2,7.6-12.3c-1.6-0.3-2.9-0.6-4.3-0.8c0,0,0,0,0-0.1
			C568.5,834.4,569.1,833.6,569.8,832.9z M553.9,837.3c-2.2-2.5-4.3-5-6.4-7.5c1.5,7.2,1.4,7.1,3.2,6.1
			C551.3,838.8,551.4,838.9,553.9,837.3z M550.6,840.3c1.6,1.3,3.1,2.5,5.2,4.1c-0.1-1.2-0.1-1.7-0.2-2.3
			C555.1,837.5,554.8,837.4,550.6,840.3z M536.9,867.6c3,2.2,5.6,4.1,8.5,6.2c0.5-0.4,1.2-1,1.9-1.6c-1.4-1.1-2.6-2.1-4.1-3.3
			c0.8,0,1.2,0.1,1.5,0.1l0,0c0-0.1-0.1-0.3-0.1-0.4c-0.3-1.1-0.9-2.2-1.7-3.1c-0.1-0.1-0.2-0.2-0.3-0.3c-0.6-0.6-1.3-1-2-1.3
			c-0.1,0-0.2-0.1-0.3-0.1s-0.3-0.1-0.4-0.1c-0.1,0-0.2,0-0.3-0.1c-0.3,0-0.6,0-0.8,0c0.7,1.2,1.3,2.1,1.8,2.9
			C539.4,866.8,538.2,867.2,536.9,867.6z M531.7,855.5c-1.7-0.2-3.3-0.3-5.2,0c1.1,0.6,2.2,1.2,3.3,1.8s2.2,1.1,3.4,1.8
			C534.3,856.9,533.8,855.7,531.7,855.5z M562.6,895.1c1.5-2.9,2.9-5.5,4.3-8.3C561.9,889.5,561.3,890.6,562.6,895.1z M560.8,880.8
			c0.3,3,0.6,5.5,0.8,8.3C565.9,885.7,565.7,883.1,560.8,880.8z M560.7,887.7c-0.4-2.2-0.5-4.4-0.8-6.8c-1.4,1-2.2,6.2-1.7,10.3
			C560.3,890.9,561,889.8,560.7,887.7z M557.7,882.3c-2.6,0.3-5.2,0.3-7.3,1.1c-1.3,0.5-2.1,2.5-2.8,3.9c-0.3,0.6,0.4,2,1,2.6
			c1.2,1.1,2.6,1.9,4,2.7c2.2,1.2,4.3,0.1,4.5-2.3C557.4,887.6,557.5,884.9,557.7,882.3z M553.2,877.2c-1-1.1-2-2.2-3.5-3.8
			c-0.7,1.7-1.2,2.8-1.6,3.9c1.6,0.2,3.2,0.5,4.7,0.7C553,877.7,553.1,877.4,553.2,877.2z M547.9,879.4c-2.7-1-3,1.2-4.4,3
			C545.7,881.9,547.7,882.1,547.9,879.4z M545.8,877.6l-1-2.1c-1.2,1.1-2.2,1.9-3.2,2.8c0.1,0.3,0.2,0.5,0.3,0.8
			C543.3,878.5,544.5,878,545.8,877.6z M544.1,874.9c-1.8-1.7-3.3-3.4-5-4.8c-0.4-0.3-1.2-0.4-1.7-0.3c-0.3,0.1-0.6,1-0.6,1.4
			c0.2,1.1,0.5,2.2,1.1,3.1c0.8,1.2,1.9,2.1,3,3.3C541.9,876.8,542.9,875.9,544.1,874.9z M518.9,817.8c6.7,7.8,13.4,15.7,20.2,23.5
			c0.6,0.6,1.5,0.9,2.2,1.4v0.1l0,0l0,0c-0.1,0.4-0.1,0.7-0.1,1c0,0.2,0,0.3,0,0.5v0.1v0.1c0.1,0.9,0.8,1,2.7,1
			c-0.2-1.2-0.4-2.2-1.4-2.6c-0.1,0-0.1,0-0.2,0c-0.1,0-0.2-0.1-0.3-0.1s-0.1,0-0.2,0l0,0c-0.1,0-0.3,0-0.4,0l0,0
			c0.1-0.1,0.2-0.1,0.2-0.2c0.1-0.1,0.2-0.1,0.3-0.2c0.6-0.4,1.1-0.8,1.8-1.3c0.3,1,0.5,1.7,0.9,3.1c1.2-1.3,2-2.2,2.8-3.1
			c-0.7-0.5-1.4-1-2.2-1.5c0.1-0.1,0.6-0.6,1.3-1.3c-9.3-7.2-18.5-14.4-28.1-21.9C518.6,817.1,518.6,817.5,518.9,817.8z
			 M544.3,845.6c-0.2,0.3-0.2,1.1,0,1.4c2.7,3.1,5.5,6.2,8.4,9.2c0.2,0.2,0.7,0.3,1.6,0.5c-1.7-5.4-3.2-10.4-4.9-15.9
			C547.5,842.6,545.8,844,544.3,845.6z M554.3,854.1c0.5-3.2,0.9-5.8,1.4-8.6c-1.5-1.2-3.1-2.4-5.2-4.1
			C551.9,845.9,553,849.7,554.3,854.1z M576.9,874.6c-1.1,0.1-2.1,0.5-3.1,0.8c0.1,0.3,0.2,0.6,0.3,0.8c1.1,0,2.2,0.1,3.8,0.2
			C577.4,875.6,577.1,874.6,576.9,874.6z M559.1,852.8L559.1,852.8c-0.1,0.1-0.2,0.1-0.3,0.1c-0.3,0.1-0.5,0.2-0.7,0.4
			c-0.1,0.1-0.2,0.2-0.3,0.3s-0.1,0.3-0.1,0.4c0,0.1,0,0.2,0,0.3s0,0.2,0,0.3s0.1,0.2,0.1,0.4c0.1,0.3,0.2,0.7,0.3,1
			c0.2,0.7,1.4,1.1,2.4,1.8c0.5-1.5,0.3-2.5-0.1-3.3c-0.1-0.1-0.2-0.3-0.3-0.4c-0.1-0.1-0.2-0.3-0.3-0.4c0-0.1-0.1-0.1-0.1-0.2
			c-0.1-0.1-0.2-0.3-0.4-0.4C559.3,853,559.2,853,559.1,852.8C559.2,852.8,559.2,852.8,559.1,852.8
			C559.1,852.9,559.1,852.9,559.1,852.8c1.2-0.5,2.4-0.9,4.1-1.6c-2.3-1.8-4-3.1-5.7-4.4c0,0.3,0,0.6,0,0.9c0,0.2,0,0.4,0,0.6
			c0,0.1,0,0.2,0,0.3c0,0.2,0,0.4-0.1,0.6c0,0.2,0,0.4,0,0.6c0,0.1,0,0.2,0,0.4c0,0.1,0,0.2,0,0.3s0,0.2,0,0.3s0,0.1,0,0.2
			c0,0.1,0,0.1,0,0.2c0,0.1,0.1,0.2,0.1,0.4c0.1,0.1,0.1,0.2,0.2,0.3c0,0.1,0.1,0.1,0.1,0.2c0,0.1,0.1,0.1,0.2,0.2
			c0.1,0.1,0.1,0.1,0.2,0.2c0.1,0.1,0.1,0.1,0.2,0.2c0.1,0.1,0.2,0.1,0.2,0.2C558.9,852.7,559,852.8,559.1,852.8L559.1,852.8z
			 M567.7,877.9c0.4,0.6,0.7,1.3,1.1,1.9c0.8-0.6,1.5-1.3,2.3-1.9c-0.2-0.4-0.5-0.8-0.7-1.2L567.7,877.9z M576.3,879.2
			c-1.5-0.9-4,0.1-5.5,2.2c2.1,1.6,4,3,5.9,4.5C578.1,883.1,577.8,880,576.3,879.2z M570.5,882.3c-0.2,0.2-0.4,0.4-0.6,0.5
			c0.9,2.9,3.6,4.4,5.5,7.1c0.6-1.3,0.9-2.1,1.3-3C574.5,885.4,572.5,883.8,570.5,882.3z M558.7,846.6c1.5,1.2,3,2.3,4.5,3.5
			c0.2-0.2,0.5-0.4,0.7-0.7c-1.1-2.7-3.7-4.4-5.3-6.8C556.7,844.8,556.7,845.1,558.7,846.6z M556.1,837.4c0.5,0.7,2.5,1.2,2.5,1.1
			c0.9-1.7,1.6-3.4,2.4-5.2c-0.7-0.2-1.5-0.5-1.8-0.6C556.7,833.8,555.2,836.2,556.1,837.4z M573.3,846.3c-1.5,1.9-2.7,3.3-4.3,5.4
			c2-0.1,3.2-0.2,4.7-0.3C573.6,849.8,573.5,848.4,573.3,846.3z M578.8,865.9c-0.3,1.6-0.5,2.7-0.7,3.8c0.2,0.1,0.4,0.2,0.7,0.3
			c0.7-0.6,1.5-1.3,2.4-2.1C580.5,867.2,579.9,866.7,578.8,865.9z M568.6,850.4c4.6-4.7,4.8-5.1,4.1-8.4
			C568.8,843.7,566.4,848.3,568.6,850.4z M574.9,850.5c2.3,0.1,3.4-0.8,3.3-3.3c-0.1-2.3,0.3-4.6,0.5-7.5
			C575.6,843.1,572.7,845.9,574.9,850.5z M578.2,853.3c0.3,0.2,0.6,0.4,0.8,0.6c3.3-1.1,6.6-2.3,9.9-3.4c0-0.2-0.1-0.5-0.1-0.7
			c-3,0.3-6,0.5-8.9,1.1C579.2,851,578.8,852.4,578.2,853.3z M587.8,855.2c2.7-0.3,4.8-0.6,7.6-0.9c-1.5-1.5-2.5-2.6-3.8-3.9
			C590.2,852.2,589.2,853.5,587.8,855.2z M595.2,855.8c-1.8,1.7-3.6,3.3-5.3,4.9c0.1,0.3,0,0.5,0.1,0.6c1.7,1.3,3,3.9,5.7,2.5
			C597.5,863,597.2,859.6,595.2,855.8z M593.8,855.9c-0.1-0.2-0.2-0.4-0.3-0.6c-2.7,1.1-6.3-0.7-8.2,3.1c1.2,0.6,2.3,1.3,3.6,2
			C590.6,858.9,592.2,857.4,593.8,855.9z M585.5,856.4c-1.9,0.3-3.5,0.5-5,0.7C582.2,857.5,583.9,859.4,585.5,856.4z M585.1,855.4
			c1.7-0.6,3-2.1,4.4-3.3c-0.2-0.3-0.3-0.5-0.5-0.8c-3.5,1.2-7,2.4-10.5,3.6c0,0.4,0.1,0.7,0.1,1.1
			C580.8,855.9,583.1,856.1,585.1,855.4z M578.8,857.1c-1.5,3.3-0.1,4.2,2,4.7c0.3-0.2,0.5-0.3,0.8-0.5
			C580.7,860,579.9,858.7,578.8,857.1z M579.6,873.3c2.1-0.2,3.7-0.4,5.4-0.5C582.5,870.6,581.5,870.8,579.6,873.3z M574,854.4
			c0.2-0.4-0.5-1.9-0.7-1.9c-1,0.1-2.3,0.3-2.7,0.9c-0.5,0.8-0.1,2.1,0,3.1c0.3,0.1,0.7,0.3,1,0.4
			C572.4,856.1,573.4,855.3,574,854.4z M576,833.1c0.6,0.3,1.5,0.5,2.2,0.4c0.4-0.1,1.1-0.7,1.2-1.2c0.3-2.5,0.4-4.9,0.6-7.4
			c-0.1,0-0.3-0.1-0.4-0.1c-1.1,2.2-2.3,4.4-3.4,6.6C575.9,831.9,575.8,833,576,833.1z M589,841.6c-0.4-0.1-1,0.9-1.5,1.3
			c0.3,0.3,0.7,0.6,1,0.9c0.8,0.2,1.6,0.6,2.4,0.6c0.3,0,0.8-1.4,0.8-1.5C590.8,842.5,590,841.8,589,841.6z M590.7,845.6
			c-0.3,1.3-0.5,2.6-0.8,3.8c0.3,0.1,0.6,0.2,0.9,0.3c0.8-0.9,1.6-1.8,2.8-3.3C592.4,846.1,591.5,845.8,590.7,845.6z M597.3,855.5
			c-0.2,0.7-0.7,1.5-0.4,2c0.3,0.6,1.2,1,2.4,1.9c0.1-1.5,0.4-2.4,0.1-2.8C598.9,856.1,598,855.9,597.3,855.5z M598.2,859.4
			c-0.2,0.8-0.7,1.7-0.4,2.3c0.3,0.6,1.3,0.9,1.9,1.4c0.3-0.8,0.6-1.6,1-2.8C599.6,859.9,598.9,859.7,598.2,859.4z M598.8,864.1
			c-0.6-0.4-1.7-0.5-2.2-0.2c-0.5,0.4-1.1,1.7-0.8,2.2c1,1.8,2.3,3.3,3.8,5.5C600.5,869.1,599.9,864.9,598.8,864.1z M580.3,874.4
			c0.4,2.6,1.1,2.9,6.6,2.4C585.9,873,585.6,872.9,580.3,874.4z M580.1,877.5c-0.4,0.1-0.8,0.1-1.3,0.2c0.4,3.5,0.4,7,1.3,10.4
			c0.3,1.3,2.5,2.2,3.9,3.3c0.2-0.2,0.5-0.3,0.7-0.5C583.1,886.4,581.6,881.9,580.1,877.5z M582.1,897.3c2.4,2.6,4.7,5.1,6.9,7.6
			c0.1-0.1,0.2-0.2,0.4-0.3c-1.1-3.1-2.1-6.2-3.3-9.7C584.8,895.7,583.6,896.4,582.1,897.3z M580,889.7c0.3,1.5,0.6,2.5,0.8,3.5
			c0.1,0.9,0.2,1.9,0.3,3.1C583.7,893.9,583.4,891.9,580,889.7z M578.6,887.9c-0.3,0.1-0.7,0.2-1,0.3c-1.3,2.3-0.8,4.2,2.2,6
			C579.4,891.6,579,889.7,578.6,887.9z M575.8,892.1c-1,1.8-2,3.3-2.7,5c-0.6,1.4,0.2,2.2,1.5,1.5c1.5-0.8,2.8-2.1,4.5-3.4
			C577.8,894,577,893.3,575.8,892.1z M561,892c-1.4,1.8-2.6,3.2-3.7,4.6c0.1,0.1,0.2,0.3,0.4,0.5l3.6-1.6
			C561.3,894.9,561.2,893.8,561,892z M557.5,897.4c-0.2,2.8-0.4,4.9-0.5,7.1c0.2,0.1,0.4,0.1,0.6,0.2c0.8-1.5,1.5-2.9,2.4-4.5
			C559.2,899.4,558.6,898.7,557.5,897.4z M557,893c-1.4,0.6-2.3,0.9-3.1,1.4c-0.6,0.4-1,1.2-1.3,1.9c0,0.1,0.8,0.9,1.2,0.9
			c0.8-0.1,1.9-0.2,2.3-0.8C556.7,895.6,556.7,894.4,557,893z M552.2,894.4c-0.1-0.4-0.1-1.2-0.2-1.2c-1.2,0-2.4,0-3.6,0.1
			c0,0.5,0.1,1,0.1,1.6C549.7,894.7,550.9,894.5,552.2,894.4z M548.1,892.2c0.3-0.3-0.1-1.3-0.2-2c-1.1,0.3-2.1,0.5-3.6,0.9
			C545.8,892.9,547,893.2,548.1,892.2z M544.7,889.8c0.1,0,0.6-1.2,0.4-1.3c-0.6-0.5-1.4-0.9-2.5-1.5c-0.2,1.1-0.5,2.1-0.3,2.2
			C543,889.5,543.9,889.7,544.7,889.8z M524.1,862c3.1-0.4,6.2-0.8,9.3-1.2c0-0.2,0.1-0.3,0.1-0.5c-3.9-2-7.8-4.1-11.7-6.1
			c-0.2,0.2-0.4,0.4-0.6,0.6c0.6,2.2,1.1,4.4,1.8,6.6C523,861.7,523.7,862,524.1,862z M514.5,792.2c-3.4,2.9-6.6,5.5-10.1,8.4
			c0.8,1,1.4,1.8,2,2.7c6.6,9.1,15.9,15,24.5,21.8c4.7,3.8,9.5,7.4,14.3,11.1c0.7,0.5,1.4,1,2.1,1.5c0.3-0.3,0.7-0.5,0.7-0.7
			c-1.1-4-1.5-8.3-4.4-11.7c-9.1-10.4-18.2-20.8-27.2-31.3C515.8,793.6,515.3,793.1,514.5,792.2z M515.2,791.5
			c9.8,11.2,19.2,22,28.6,32.9c0.2-0.1,0.3-0.1,0.5-0.2c-4.2-13.7-8.4-27.4-12.8-41.8C525.8,785.6,520.7,788.4,515.2,791.5z
			 M532.3,782.1c1.6,5.2,3,10,4.5,14.8c2.9,9.4,5.8,18.8,8.8,28.2c0.4,1.1,1,2.2,1.7,3.1c1.3,1.7,2.7,3.3,4.2,4.8
			c0.6,0.6,1.5,0.9,2.3,1.3c0.3-0.9,0.8-1.8,0.7-2.7c-0.6-6.2-1.4-12.4-2.1-18.7c-1.3-11-2.5-22-3.8-33c-0.1-0.8-0.2-1.6-0.4-2.8
			C542.7,778.9,537.6,780.5,532.3,782.1z M549,776.9c2.2,19.3,4.4,38,6.6,57c5.2-3.2,10.6-2.9,16.4-2.4c-1.8-18.7-3.5-37.3-5.3-56.5
			C560.7,775.7,555,776.3,549,776.9z M567.5,775.1c0.4,4,0.7,7.4,1,10.9c1.4,14.6,2.7,29.2,4.2,43.7c0.1,0.8,0.7,1.5,1.1,2.3
			c0.6-0.6,1.4-1,1.9-1.7c3.6-5.4,5-11.4,5.4-17.9c0.5-10.9,1.7-21.7,2.5-32.6c0.1-0.9,0.1-1.8,0.2-3.2
			C578.3,776,573,775.6,567.5,775.1z M584.7,776.7c-1.1,14.2-2.3,27.9-3.4,41.6c0.1,0.1,0.3,0.1,0.4,0.2c6.3-12.2,12.6-24.4,19.1-37
			C595.5,779.9,590.3,778.3,584.7,776.7z M617.7,790.1c0.3-0.4,0.6-0.7,0.8-1c-0.2-0.2-0.3-0.3-0.5-0.5c-0.3,0.3-0.6,0.7-1,1
			c-1-0.7-2.1-1.4-3.3-2.1c-4.3-2.6-8.3-4.5-11.9-6c-10.9,19.8-18.6,34.7-20,38.8c-0.5,1.3-0.9,3-0.9,3c-0.3,2.8-0.5,5.7-0.7,8.5
			c0,0.8,0.4,1.5,0.6,2.3c0.6-0.4,1.4-0.7,1.8-1.2c5.6-7,11.2-14,16.8-21c2.8-3.6,14.1-18.1,16.9-21.7c0.2-0.2,0.4-0.4,0.5-0.6
			C617.2,789.8,617.4,789.9,617.7,790.1c-9.3,11.8-26.1,33.3-35.1,44.6c4.4,3.1,9.7,5.1,11.1,11.6c12-15.3,24-30.6,36-45.9
			C626.7,797.2,622.7,793.6,617.7,790.1z M630.6,800.6c-12,15.3-23.8,30.3-35.6,45.3c1,1.6,2,1.7,3.7,1.3c4.5-1.3,8.2-3.4,11.6-6.7
			c9.1-8.9,18.5-17.6,27.8-26.3c0.6-0.6,1.3-1.3,2.3-2.3C637.1,808.1,634,804.5,630.6,800.6z M598.2,851.7c1.8-1.7,3.4-3.2,5-4.6
			c-0.1-0.1-0.2-0.3-0.3-0.4c-1.9,0.6-3.7,1.2-5.9,2C597.4,849.6,597.7,850.5,598.2,851.7z M641.1,812.6
			c-11.2,10.5-21.9,20.6-32.7,30.8c0.1,0.1,0.1,0.3,0.2,0.4c13.8-4.7,27.6-9.5,42.1-14.4C647.5,823.6,644.4,818.3,641.1,812.6z
			 M651,830.2c-3.8,1.3-7.3,2.4-10.7,3.6c-10.7,3.7-21.5,7-32,11.2c-3.4,1.3-6.1,4.7-9.1,7.1c-0.2,0.2-0.3,1-0.2,1
			c0.5,0.3,1.1,0.6,1.7,0.5c5.4-0.6,10.8-1.3,16.2-1.9c12.3-1.5,24.5-2.9,36.8-4.4c0.7-0.1,1.4-0.2,2.5-0.5
			C654.5,841.3,652.8,835.9,651,830.2z M656.5,847.8c-19.1,2.3-37.8,4.6-56.6,6.8c0.4,2,0.8,3.8,1.1,5.6c0.1,0.9,0,1.7-0.1,2.6
			c0,1.1-0.2,2.2-0.1,3.2c0.1,1.5,0.4,3,0.6,4.8c18.6-2.1,37.4-4.1,56.8-6.3C657.7,858.9,657.1,853.5,656.5,847.8z M658.3,865.5
			c-19.2,2.1-38.1,4.2-56.9,6.3c5.8,3,10.9,7.2,18,7.3c11.3,0.2,22.6,1.2,33.9,1.8c1.1,0.1,2.2,0.1,3.7,0.2
			C657.4,875.9,657.8,871,658.3,865.5z M656.9,882c-13.5-0.8-26.7-1.5-39.9-2.3c0,0.2-0.1,0.3-0.1,0.5c11.7,5.9,23.3,11.8,35.5,17.9
			C653.9,892.7,655.3,887.6,656.9,882z M652.1,898.9c-10.5-5.3-20.7-9.9-30.4-15.5c-7-4.1-14.3-4.3-21.8-4.7c-0.3,0-0.6,0.2-1.6,0.6
			c15.5,11.6,30.6,22.9,46.3,34.6C647.1,908.8,649.5,904,652.1,898.9z M644.2,914.6c-15.4-11.5-30.5-22.8-45.5-34
			c-0.7,0.8-1.4,1.5-2,2.1v-0.1l0,0l0,0c-0.2-1.3-0.3-2.5-0.6-3.8c0-0.1-0.8-0.1-0.8,0c-0.3,1.3-0.6,2.7-0.9,4
			c0.2,0.2,0.4,0.3,0.6,0.5l1.6-0.7l0,0l0,0c-0.9,1.4-1.8,2.8-2.8,4.1c-0.4,0.6-0.9,1-1.4,1.6c0.4-1.5,0.9-2.9,1.2-4.4
			c0.1-0.8,0.1-1.6-0.2-2.1c0,0,0-0.1-0.1-0.1c0-0.1-0.1-0.1-0.1-0.2c0,0,0-0.1-0.1-0.1c-0.3-0.3-0.7-0.4-1.3-0.5
			c1.3-0.2,2.1-1.1,2.5-2.8c-2-0.1-3.9-0.2-5.8-0.3c-0.1,0.2-0.3,0.5-0.4,0.7c1,0.8,1.9,1.7,2.9,2.5c0,0,0,0-0.1,0h0.1
			c-0.2,0.1-0.3,0.2-0.5,0.3l0,0c-0.1,0.1-0.3,0.2-0.4,0.3l0,0c-0.1,0.1-0.2,0.2-0.3,0.3c-0.3,0.3-0.4,0.6-0.5,1
			c0,0.1,0,0.2-0.1,0.4c-0.1,1.1,0.3,2.3,0.5,3.4s0.2,2.6,2.1,2.1c-1.4,1.6-2.9,3.3-4.5,5.1c15.1,11.4,30.1,22.7,45.7,34.4
			C636.9,923.9,640.5,919.4,644.2,914.6z M620.5,939.6c4-3.4,7.9-6.8,12.2-10.4c-15.3-11.5-30.2-22.7-45.1-34
			c1.9,5.4,2.4,11.1,6.6,15.6c8.5,8.9,16.6,18.1,24.8,27.2C619.4,938.4,619.8,938.8,620.5,939.6z M619.8,940.2
			c-9.2-10.1-18-19.9-26.9-29.7c-0.2,0.1-0.3,0.2-0.5,0.2c4.2,12.3,8.5,24.7,12.9,37.6C610.2,945.7,614.8,943,619.8,940.2z
			 M603.4,948.9c0.4-0.2,0.7-1.5,0.5-2.1c-3.6-10.7-7.8-21.3-10.9-32.2c-2-7.1-7.1-11.6-12-17.3c2.3,19.3,4.5,37.9,6.7,57.2
			C593.2,952.7,598.3,950.9,603.4,948.9z M586.9,954.7c-2.3-19.5-4.5-38.5-6.9-58.2c-5.3,4.2-11.1,3.8-17.3,3.9
			c1.9,18.7,3.8,37.2,5.7,56.4C574.6,956.1,580.6,955.5,586.9,954.7z M567.6,956.7c-1.9-19.1-3.8-37.9-5.7-56.6
			c-0.3-0.1-0.7-0.1-1-0.2c-1.4,3.2-3.8,6.3-4.1,9.6c-1.5,15-2.4,30-3.5,45c0,0.2,0,0.5,0.1,1.1C558.1,956,562.7,956.3,567.6,956.7z
			 M544.8,954.3c0.7,0.3,1.3,0.9,1.9,1.4c-0.1,0.3-0.2,0.5-0.3,0.8c0,0.1-0.1,0.1-0.1,0.2c-0.4,1.2-0.5,2.3,0.9,3.5
			c0.9-1.1,1.9-2.1,2.8-3.2c3.3-2.7,2.5-6.6,2.8-10.1c0.9-11,1.7-22.1,2.5-33.1c0.1-0.8,0.1-1.6-0.3-2.4
			c-6.8,13-13.6,25.9-20.5,39.1C538.2,951.8,541.5,953,544.8,954.3z M533.7,950.2c1.8-3.4,3.4-6.4,5-9.5c5.4-10.3,11-20.5,16.1-31
			c1.6-3.3,1.4-7.4,2.1-11.1c-0.3-0.1-0.6-0.2-0.9-0.3c-11.8,14.9-23.7,29.8-35.8,45C524.6,945.7,529,947.9,533.7,950.2z M519.2,943
			c11.9-15,23.6-29.7,35.3-44.3c-4.4-2.8-8.4-5.3-12.5-7.9c-0.7,1.1-1.4,2.8-2.6,4c-2.1,2-2.7-0.7-4.3-1.8
			c-9.9,12.9-19.8,25.8-30,39.2C509.9,935.8,514.5,939.3,519.2,943z M504.6,931.5c3.7-4.8,7.1-9.3,10.5-13.7
			c5.8-7.6,11.6-15.3,17.6-22.8c2.1-2.6,2.7-4.8,0.6-8.2c-1.7,1-3.5,1.7-4.9,2.9c-10.7,9.1-21.4,18.3-32.1,27.4
			c-0.7,0.6-1.4,1.3-2.4,2.2C497.5,923.4,500.9,927.3,504.6,931.5z M493.3,918.5c11.4-9.8,22.4-19.2,33.5-28.7
			c-0.1-0.2-0.2-0.3-0.3-0.5c-13.8,4.6-27.5,9.2-41.8,14C487.5,908.4,490.3,913.3,493.3,918.5z M484.3,902.5c6.3-2.1,12.2-4,18-6
			c8.5-2.8,17-5.7,25.4-8.6c1.4-0.5,2.6-1.5,3.9-2.3c1.3-0.8,1.2-1.8,0.6-2.9c-0.6-1.2-1.1-2-2.7-1.8c-16.3,1.8-32.7,3.5-49,5.2
			c-0.4,0-0.8,0.1-1.7,0.3C480.7,891.8,482.5,897.1,484.3,902.5z M477.4,876.2c3.3-0.3,6.4-0.6,9.6-0.9c0,0.3,0.1,0.6,0.1,0.9
			c-3.1,0.6-6.1,1.2-9.5,1.9c0.4,2.4,0.8,4.7,1.3,7.3c15.7-1.6,31.2-3.3,46.7-4.9c0-0.2,0-0.4,0-0.6c-0.7-0.1-1.4-0.1-2.1-0.2
			c1-1.2,1.8-2.3,2.7-3.4c-1.1-0.8-2.2-1.7-3.6-2.7c2.9-3.2,0.7-6.7-0.3-10.4c-15.2,1.9-30.2,3.9-45.4,5.8
			C477,871.4,477.2,873.7,477.4,876.2z M476.5,868.1c15.5-2,30.4-3.9,45.6-5.8c-0.7-2.4-1.2-4.7-2-6.9c-0.2-0.5-1-1-1.6-1.1
			c-13.3-1.3-26.7-2.6-40.6-3.9C477.5,856.2,477,861.9,476.5,868.1z M478,849.5c14,1.3,27.6,2.6,41.2,3.9c0.1-0.2,0.1-0.4,0.2-0.6
			c-6.5-3.5-13.2-7.1-19.7-10.7c-0.1,0-0.1-0.1-0.2-0.1l0,0c-3.8-2-14.1-7.5-16.9-8.9C481.2,838.6,479.7,843.8,478,849.5z
			 M483,832.2c2.9,1.6,15.3,8.2,17.9,9.6l0,0c5.9,3.1,11.8,6.3,18.2,9.7c-1.1-4-2-7.4-3-10.8c-0.1-0.4-0.4-0.9-0.8-1.2
			c-8-7.4-16.1-14.7-24.6-22.4C488.2,822.3,485.7,827.1,483,832.2z M384.5,671.8c0.4-0.1,0.7-0.2,1.1-0.3c-0.2-1.8,0-3.9-0.8-5.3
			c-0.6-1.1-2.6-1.3-4-1.9c-0.1,0.2-0.2,0.4-0.3,0.6C381.9,667.1,383.2,669.4,384.5,671.8z M338.6,831.9c2.7,3.1,6,3,8.5-0.3
			c2.4-3.1,4.5-6.5,5.9-10c5.1-13.4,10.1-26.8,14.6-40.4c4.5-13.6,9.6-27,16.3-39.7c0.7-1.4,1.1-3.1,1.1-4.6c0-1-0.7-2.5-1.4-2.8
			c-0.9-0.3-2.5,0.1-3.3,0.7c-2.5,2.2-4.8,4.7-7.1,7c-12.2,12.1-21.8,26.3-31.6,40.3c-4.4,6.2-8.2,12.9-11.8,19.6
			c-2.8,5.3-3.7,11.1-0.3,18.7C331.8,823.2,335,827.7,338.6,831.9z M322.7,789.1c1.7-2.4,12.8-17.2,14.8-19.9
			c8.7-11.6,17.3-23.2,26.4-34.5c6.8-8.5,14.4-16.4,21.5-24.6c2.3-2.6,2.2-2.7-0.6-5.1c0.9-1.2,2.2-2.3,2.7-3.6
			c0.4-1.2,0.3-2.9-0.2-4c-0.7-1.5-2.1-0.6-3.2,0c-1.2,0.7-2.3,0.6-3.2-0.6c-0.9-1.2-0.8-2.1,0.1-3.3c1.5-1.9,1.2-2.6-0.9-3.7
			c-2.4-1.2-4.6-2.7-7-3.8c-0.6-0.3-1.7,0-2.5,0.3c-0.4,0.1-0.7,0.7-0.9,1.1c-1.6,2.6-3.4,4.5-6.9,4.6c-7.4,0.3-8.7,1.8-13,1.5
			c-0.8,0-5.5,0.3-8.2,0.2c-7-0.1-10.3-1.8-18.4-2.6c-3.9-0.4-2.9-0.8-7.7-0.3c-6.3,0.7-12.3,0.1-17.9-3.3
			c-3.8-2.3-7.7-4.6-11.4-6.9c-5.3-3.3-9-8.1-11.7-13.7c-1.6-3.3-3.8-6.2-5.8-9.3c-1.1-1.8-2.7-2.5-4.9-2.7c-4-0.2-8-0.7-11.9-1.5
			c-2.3-0.4-4.7-1.2-6.5-2.6c-3-2.2-5.7-1.8-8.6-0.4c-7,3.3-14,6.6-21,9.8c-1.9,0.9-3.7,1.7-5.6,2.5c-3.4,1.3-6.3,3.2-9,5.6
			c-2.4,2.2-5.6,3.6-8.4,5.4c-0.9,0.6-1.8,1.2-3,1.9c0.8,0.7,1.3,1.1,1.8,1.5c5.3,3.8,11.1,7.1,15,12.7c0.5,0.8,1.9,1.2,3,1.4
			c13,3.6,26.1,6.9,39.1,10.8c5.2,1.5,10,4.3,15.1,6.3c2.8,1.1,5.8,1.7,8.6,2.7c1.7,0.6,3.4,1.3,4.7,2.5c4.2,3.8,8.6,7.5,12.3,11.8
			c4.8,5.6,5.2,12.3,2.5,19.1c-1,2.6-1.5,5.1-0.3,7.8c0.3,0.7-0.2,2.1-0.7,2.8c-1.5,1.7-1.8,3.4-1.6,5.6c0.8,7,1.4,14.1,2,21.1
			c0.1,1.7-0.2,3.5-0.4,5.6l0.1,22.5c0.3,1,0.5,2,0.8,3.1c4.1-1.9,8.3-3.5,12.2-5.5C311.9,803.2,317.5,796.3,322.7,789.1z
			 M334.6,860c0.4,0.4,1.8,0.4,1.9,0.3c0.3-0.8,0.4-1.8,0.4-2.2c-0.8-1.4-1.2-2.3-1.9-3c-0.6-0.6-1.4-0.8-2.2-1.1
			c-0.2,1.1-0.7,2.3-0.4,3.3C332.7,858.4,333.7,859.3,334.6,860z M321.1,853.5c0.3-0.6,0.1-1.7-0.3-2.4c-0.3-0.5-1.4-1.2-1.8-1
			c-2,0.9-3.9,2-5.9,3.1C315.9,856.6,319.3,856.6,321.1,853.5z M304.1,848.1c1.8-1,2.9-1.5,3.8-2.3c0.5-0.5,1-1.4,0.9-2.1
			c-0.2-1.7,0.7-2.8,2.1-3.1c0.9-0.2,2.1,0.3,2.9,0.9c3.1,2.7,6.9,3.8,10.8,4.5c1.4,0.2,2.7-0.5,2.3-2c-1.6-7.1-3.1-14.4-9.7-18.9
			c-3.1-2.1-6.6-2.6-10.3-1.6c-3.8,1-7.5,2-11.6,3c1.3,5.9,3.4,11.3,7.4,15.7C304.2,843.7,305.5,845.2,304.1,848.1z M337,935
			c0.4-0.8,0.8-1.6,0.9-2.5c0-0.2-0.8-0.5-1.9-1.1c-0.3,1.4-0.5,2.3-0.5,3.1C335.5,934.6,337,935,337,935z M332.5,930
			c0.7,0.7,2.3,1,3.3,0.8c0.7-0.2,1.4-1.7,1.4-2.6c-0.1-1.9-0.7-3.8-1.1-5.7c-0.7-0.8-1.3-1.6-2-2.4c-0.7,0.8-1.5,1.6-2.1,2.5
			C330.7,925.1,330.3,927.8,332.5,930z M328.4,941.8c1.5,0.4,2.7-1.3,2.8-4.2c-2.1,0-3.8,0.5-4.3,2.5
			C326.8,940.6,327.7,941.7,328.4,941.8z M318.1,919.6c-3.1,2.2-7.6,3.5-5.1,9C315.4,927.2,317.9,922.7,318.1,919.6z M303.3,935.9
			c0.2-1.3,0.6-2.2,0.5-3c-0.1-0.4-1-0.7-1.6-1.1c-0.4,1-0.8,2-1.1,3C301.1,934.9,302.2,935.3,303.3,935.9z M293.8,931
			c1-1.2,2.2-2.3,2.8-3.6c0.4-0.8,0.1-2-0.3-2.9c-0.1-0.2-1.5,0-2.3,0.2c-0.9,0.2-1.8,0.6-3.1,1.1c-0.1-2.3-0.2-4.1-0.3-5.9
			c-0.3-0.1-0.6-0.2-1-0.2c-0.4,1-1.1,2-1,2.9c0.5,2.7,1.2,5.4,2,8C291.3,932.1,292.5,932.6,293.8,931z M282.1,911.1
			c0.5-1,1-1.9,1.4-2.9c0.3-0.9,0.6-1.8,0.7-2.8c0.1-0.9-0.1-1.9,0-2.9c0.1-1.3,0.2-2.6,0.5-3.8c0-0.2,1.1-0.1,2.1-0.1
			c-0.5-2.2-1-4.3-1.6-6.4c-0.6-2-0.2-2.5,1.9-2.2c2.8,0.4,3.5-0.4,2.7-3c-0.7-2.2-1.5-4.3-2.5-7.1c-7.3,9.9-6.9,20.3-6.3,30.8
			C281.3,910.8,281.7,910.9,282.1,911.1z M263.5,904.9c1.4,2.3,2.7,4.6,4.1,6.8c0.4,0.7,1.2,1.2,2.2,1.6c-0.4-5.2,1.1-10.4-1.3-15.6
			c-1.1,0.4-2,0.8-2.9,1.1C261.6,900.2,261.3,901.2,263.5,904.9z M281,867.4c-0.7-1.9-1.4-3.7-2.1-5.5c-3.8-8.6-7.6-17.1-11.4-25.7
			c-0.1-0.1-0.1-0.3-0.2-0.4c-0.7-0.7-1.5-1.3-2.2-1.9c-0.5,0.8-1.3,1.6-1.4,2.5c-0.6,4.3-1,8.6-1.5,12.8
			c-0.6,5.7-1.3,11.5-1.8,17.2c-0.3,3.5-1.6,6.4-3.6,9.1c-2.2,3-3.2,6.4-2.8,11C263.3,880,272,873.8,281,867.4z M82.5,985.5
			c13.3-4.3,26.1-8.5,38.9-12.6c0-0.2,0-0.3,0-0.5c-13.3-1.7-26.6-3.3-40.5-5C81.5,973.4,82,979.2,82.5,985.5z M81.1,966.4
			c5.7,0.7,11,1.4,16.3,2.1c8.4,1.1,16.8,2.4,25.2,2.9c3.4,0.2,7-1.4,10.5-2.5c0.6-0.2,0.7-1.8,1.1-3c-17.1-5.1-34-10.1-51.3-15.2
			C82.2,956.1,81.7,961.2,81.1,966.4z M127.5,972.2c2,0.3,4.1,0.5,6.3,0.8c-0.1-1.1-0.2-2-0.4-3.1c-2.1,0.6-4,1.3-6,1.9
			C127.5,971.9,127.5,972.1,127.5,972.2z M135.7,977.9c1,0.5,1.7,0.9,2.4,1.3c0.2-0.6,0.7-1.5,0.5-1.8c-0.5-0.6-1.4-0.9-2.1-1.3
			C136.3,976.7,136.1,977.2,135.7,977.9z M157.2,985.6c-2.1,1.8-5.7,1.6-6.1,5.3C153.2,991.6,157.3,988.2,157.2,985.6z M153.3,991.9
			c2.1,1.1,4.3,0.1,6.9-2.9C156.7,987.3,155.5,990.5,153.3,991.9z M157.6,982.7c-4.3-0.6-4.3-0.6-5.4,4.2
			C155,986.6,157.3,984.9,157.6,982.7z M145.1,949.5c0,0.2,0.1,0.4,0.1,0.6c1.5,0.5,2.9,0.9,4.4,1.4c0.2-0.2,0.5-0.4,0.7-0.7
			c-0.7-0.9-1.2-2.5-2-2.7C147.4,947.9,146.2,949,145.1,949.5z M145.5,946.9c0-0.3-1.2-0.5-1.9-0.8c-0.3,0.9-0.8,1.8-1,2.7
			c0,0.2,1,0.6,2,1.2C145,948.6,145.5,947.8,145.5,946.9z M150.7,953c-0.1,0-0.2,0-0.3,0s-0.2,0-0.3,0v-0.1l0,0v0.1
			c-1-0.4-1.9-0.9-2.9-1.3s-1.9-0.9-2.9-1.3c-0.3,0.3-0.5,0.5-0.8,0.8c1.6,2.4,3.2,4.7,5.1,7.6c0.6-2.2,1-4,1.4-5.8l0,0
			c0.1,1,0.2,2,0.2,3c0,3.1,0.5,3.5,3.4,2.5c0.5-0.2,1-0.4,1.5-0.7c-0.4-1.6-0.8-2.7-1.4-3.5c-0.1-0.2-0.3-0.3-0.4-0.5
			c0,0,0,0-0.1-0.1s-0.3-0.2-0.4-0.3c-0.1-0.1-0.2-0.1-0.3-0.2c-0.1,0-0.1-0.1-0.2-0.1c-0.1,0-0.2-0.1-0.3-0.1
			c-0.2-0.1-0.4-0.1-0.6-0.1C151.2,953,151,953,150.7,953z M144.4,970.2c-1.3,0.7-3.3,1.9-5.3,3c0,0.2,0.1,0.4,0.1,0.6
			c4.3,0.5,8.6,1.1,13,1.6C149.7,973.6,147.3,972.1,144.4,970.2z M143.9,968.5c-2.1-0.2-4.1-0.4-6.7-0.6c0.4,2,0.7,3.2,1,4.7
			c2.1-1.2,3.9-2.3,5.7-3.3C144,969,144,968.8,143.9,968.5z M150.5,969.1c0,0.3,0.1,0.5,0.1,0.8c1.5,0.4,2.9,0.8,5,1.4l-1.8-3.9
			C152.7,968,151.6,968.6,150.5,969.1z M150.9,966.4c-1.4,0.8-2.5,1.4-3.7,2.1C149.8,970,150,969.9,150.9,966.4z M150.1,970.7
			c-0.3,0.2-0.5,0.4-0.7,0.5c0.5,0.8,0.8,2.1,1.4,2.2c1.3,0.3,2.7-0.1,4.1-0.2c0-0.4,0-0.7,0.1-1.1
			C153.3,971.7,151.7,971.2,150.1,970.7z M151.3,964.2c-2.8,0.8-5,1.5-7.3,2.2C145.5,968.7,148.5,967.8,151.3,964.2z M150.5,945.1
			c0.4-0.2,0.8-0.4,1.2-0.5c-0.3-1-0.5-2-0.7-2.9c-0.8,0.3-1.7,0.7-2.5,1C149.1,943.4,149.8,944.3,150.5,945.1z M153.3,947.1
			c-0.5-0.2-1.4-0.3-1.7,0s-0.3,1.2-0.1,1.7c1.2,2.2,2.1,5,5.5,4.6C157.3,950.4,156.1,948.2,153.3,947.1z M155.3,939.7
			c-1.6,0.5-3.3,0.9-2.8,3.2C155.7,942.7,156.1,942.2,155.3,939.7z M159.1,950.3c0.4-2.5,0.8-4.6,1.1-6.9
			C156.8,944.3,156.4,946.8,159.1,950.3z M173.2,997.6c1.6,0.7,3,1.3,4.7,2c1.4-1.7,2.9-3.4,2.3-6.6
			C177.6,994.7,174,993.9,173.2,997.6z M156.9,961.3c0-0.3,0.1-0.5,0.1-0.8c-0.8-0.4-1.7-1.3-2.5-1.2c-1.3,0.2-2.4,1.1-3.6,1.7
			c0.4,0.6,0.9,1.8,1.2,1.7C153.8,962.4,155.4,961.8,156.9,961.3z M158.5,976.7c-0.9,0.4-2.3,0.6-2.5,1.2c-0.4,1.1,0,2.4,0.1,3.6
			c0.4,0.1,0.8,0.2,1.3,0.2c0.6-1.4,1.3-2.8,1.9-4.1C159,977.3,158.7,977,158.5,976.7z M153.4,978.5c0-0.6,0.2-1.2,0.4-2.1
			c-5.1-0.6-10.2-1.3-15.5-1.9c0.6,1.7,0.9,3.1,1.5,4.3c0.3,0.6,0.8,1.3,1.4,1.4c2.7,0.5,5.4,0.9,8.1,1.3
			C151.7,981.9,153.2,981.2,153.4,978.5z M82.9,949.9c17.5,5.2,34.7,10.3,51.7,15.3c0.3-0.3,0.5-0.4,0.5-0.5c-1.4-3.6,0.2-6.6,2-9.6
			c0.1,0.8,0.3,1.5,0.5,2.4c0.3,0,0.6-0.1,0.8-0.1s0.3,0,0.5-0.1c0.2,0,0.5-0.1,0.7-0.1v0.1l0,0l0,0c0,0.1-0.1,0.1-0.1,0.2
			c-0.1,0.1-0.1,0.3-0.1,0.4s0,0.1,0,0.2s-0.1,0.3-0.1,0.4s0,0.3,0,0.4s0,0.2,0,0.4c0,0,0,0,0,0.1s0,0.2,0,0.3c0,0.1,0,0.2,0.1,0.3
			c0,0.1,0.1,0.2,0.1,0.3l0,0c-0.4-0.2-0.8-0.5-1.2-0.7c-0.1-0.1-0.2-0.1-0.2-0.1H138c-0.1,0-0.1-0.1-0.2-0.1l0,0
			c-0.1,0-0.1-0.1-0.2-0.1c-0.4-0.2-0.7-0.3-0.9-0.3h-0.1h-0.1l0,0c-1.9,1.2-0.8,3.2-0.3,4.8c0.5,1.6,1.6,1.2,2.7,0.7
			c0.2-0.1,0.4-0.2,0.6-0.3c0.1,0,0.2-0.1,0.2-0.2c0.1-0.1,0.2-0.2,0.3-0.4v-0.1c0.2-0.4,0.1-0.8,0.1-1.2c0-0.1,0-0.1,0-0.2
			s0-0.2-0.1-0.3v-0.1c0-0.2-0.1-0.4-0.1-0.5c0,0.1,0.1,0.2,0.1,0.3c0,0.1,0.1,0.2,0.2,0.2c0.1,0.1,0.2,0.3,0.3,0.4s0.1,0.2,0.2,0.2
			c0.8,1.1,1.8,2.1,2.5,3.3c2.2-0.7,4.5-1.4,7.5-2.4c-2.5-3.7-4.8-7.1-7.3-10.8c-1.4,1.8-2.5,3.3-3.6,4.8l0,0v-0.1l0,0l0,0
			c0-0.5-0.1-1-0.1-1.5s-0.1-1-0.1-1.5c-0.7,0.1-1.4,0.3-2.2,0.4c0.4-1.8,0.8-3.7,1.2-5.7c-16-4.8-33-10-50.5-15.3
			C86.2,939.1,84.6,944.4,82.9,949.9z M141.4,949.7c-0.4,0-0.9,0-1.3,0c-0.1,1.1-0.3,2.2-0.4,3.2c0.8-0.1,1.5-0.2,2.3-0.3
			C141.8,951.7,141.6,950.7,141.4,949.7z M88.1,932.9c17.4,5.3,34.4,10.4,51.4,15.6c0.1-0.1,0.2-0.3,0.3-0.4
			c-2.7-3.8-5.3-7.5-8-11.3c-0.3-0.4-0.7-0.7-1.1-0.9c-11.5-5.8-23-11.5-35-17.5C93.2,923.1,90.8,927.8,88.1,932.9z M108.5,902.5
			c8,11.2,15.8,22.1,23.5,33c-1-0.5-1.8-0.9-2.6-1.3c0.1-0.1,0.2-0.2,0.3-0.4c-7.2-10.1-14.4-20.2-22-30.8c-4,5-7.7,9.6-11.7,14.6
			c11.3,5.7,22.2,11.1,33.1,16.5c-0.1,0.2-0.2,0.4-0.3,0.7c1.1,0.5,2.5,1.3,4.1,2.1c2.5,3.5,4.9,6.9,7.4,10.4l6.9-3.1
			c-3.4-1.7-9.6-4.9-14.3-7.3c-0.3-0.5-0.7-0.9-1-1.4c4.6,2.3,11.4,5.7,14.5,7.3c0.1-0.1,0.3-0.2,0.4-0.3c-9-16.3-18-32.6-27.2-49.3
			C115.9,896.2,112.3,899.3,108.5,902.5z M136,884.1c-5.1,2.7-10.2,5.5-15.5,8.3c9.2,16.7,18.1,32.8,27.1,49.2c2-0.7,3.9-1.2,5.7-2
			c1.2-0.6,1.6-1.6,0.3-2.7c-0.7-0.6-1.5-1.4-1.9-2.2c-0.4-0.8-0.6-2.1-0.2-2.6c0.6-0.6,1.8-0.9,2.7-0.9s1.8,0.6,3.3,1.1L136,884.1z
			 M161.4,942.3c-0.5,2.9-1,5.4-1.5,8.5c1.5-0.9,2.4-1.5,3.3-2c-0.5,0.8-1,1.5-1.5,2.3c0.1,0.2,0.3,0.4,0.4,0.6c1-0.6,2-1.1,3-1.8
			c0.1-0.1-0.1-1.2-0.3-1.2c-0.5-0.1-1.1,0.2-1.6,0.3C164.5,947.1,164.1,945.3,161.4,942.3z M151.8,879.4c-4.8,1.4-9.5,2.9-14.4,4.3
			c0.4,1,0.6,1.6,0.8,2.2c6.3,14.4,12.7,28.8,19,43.2c0.9,2.1,2.2,3.3,4.7,4c0.2-7.5,3.8-14.5,0.7-22.3c-3.8-9.5-6.6-19.4-9.8-29.2
			C152.5,881,152.2,880.4,151.8,879.4z M169.8,943.1c-1.1,0.8-2,1.6-3.2,2.4c0.5-2.8-1.1-3-3.2-2.7l2.7,6
			C169.4,947,170.5,945.4,169.8,943.1z M167.7,951.3c2.2,0.4,4-2.4,2.8-5c-1.2,1.2-2.4,2-3.2,3.1C167,949.8,167.4,951.3,167.7,951.3
			z M225.6,989.2c2.6-1.2,5-2.8,7.8-4.3c-0.8-2.4-1.5-4.7-2.5-6.9c-0.4-0.9-1.4-1.1-1.9-1.3c-2.1-0.9-10-4.2-20.9-8.5
			c-1.4-0.4-2.6-0.7-3.5-0.9c-1.5-0.4-2.2-0.5-2.8-0.5c0,0-1.2-0.1-2.3-0.1c-1.9,0.1-5.2,1.4-8.7,4c-0.5-0.1-1.3-0.2-2-0.3
			c0.3-0.7,0.7-1.4,1.1-2.4c-2.2,0-3.6,0.6-4,2.4c-0.1,0.3,0.8,0.8,0.8,0.8c0.4,1.5,0.4,3,1.1,3.6c1.4,1.1,2.6,0.2,3.1-1
			c0.8,0.3,1.6,0.7,2.5,0.7c2.2,0.1,3,1.2,2.9,3.3c0,0.7,0,1.5,0.1,2.2c0.3,2,0.6,4,1,6.6c6.5,1.7,13.7,3.8,21,5.1
			C220.6,991.9,223.3,990.2,225.6,989.2z M222.3,992.7c4.5,1.2,8.7,2.3,13,3.4c-0.4-2.9-0.7-5.5-1.2-8.7L222.3,992.7z M223.3,945.2
			c2.1-0.8,4.1-1.5,6.6-2.4c-1.1-4.3-2.1-8.5-3.2-12.9c-3,2.4-5.6,5-8.7,6.9c-5.1,3.2-10.5,5.8-15.7,8.9c-3.8,2.2-7.5,4.7-11.2,7.1
			c0.1,0.3,0.2,0.6,0.4,0.9c10.4-1.6,20.2-5.4,30.3-8c0.1,0.2,0.1,0.4,0.2,0.6c-1.8,0.7-3.5,1.5-5.2,2c-6.5,1.9-13.1,3.7-19.6,5.5
			c-1.4,0.4-2.9,0.5-4.3,0.7c-1.4,0.2-2.1,0.9-1.3,2.7c12.8-3.9,25.6-7.8,38.4-11.6c-0.1-0.3-0.2-0.7-0.2-1
			c-2.1,0.4-4.2,0.9-6.3,1.3C223.4,945.6,223.4,945.4,223.3,945.2z M234.4,950.4c0,0,0.1,0,0.1,0.1s0,0.2,0.1,0.2l0.1-0.1l0,0
			l-0.1-0.1l0,0l0.1-1.1c-0.3,0.1-0.7,0.2-1,0.3C234,949.9,234.2,950.1,234.4,950.4C234.4,950.3,234.4,950.4,234.4,950.4z
			 M179.2,941.1c3.5-0.5,7.1-3.7,8-7.5c-2.2-0.2-4.2-0.5-6.2-0.5c-0.7,0-1.6,0.7-1.9,1.3c-0.7,1.4-1.2,3-1.8,4.5
			C176.7,940.6,177.3,941.3,179.2,941.1z M175.9,937.1c-0.3-0.2-0.6-0.5-0.9-0.7c-0.7,0.8-1.4,1.5-1.9,2.3c-0.1,0.1,0.7,0.8,1.1,1.2
			C174.8,939,175.4,938.1,175.9,937.1z M197.1,987.2c-0.1,0.2-0.2,0.3-0.2,0.5c2.4,3.3,5,6.4,7.2,9.8c1.3,2,2.5,1.7,4.2,0.7
			c3.1-1.8,6.2-3.5,9.8-5.5C210.9,990.7,204,989,197.1,987.2z M196,988c-0.5,0.8-0.9,1.4-1.3,2c0.2,0,0.5,0,0.7,0
			c0.3,0.9,0.6,1.8,0.8,2.8c0.6,3,1.1,6.1,1.8,9.1c0.3,1.3,1.2,1.4,2.4,0.5c1.3-1,2.8-1.7,4.4-2.7C201.8,995.8,199,992,196,988z
			 M168.6,929.3c-1-3.3-2.2-6.6-3.3-9.9c-0.2,0-0.3,0-0.5,0c-0.7,4.5-1.4,9.1-2.2,13.9c1.2,0,2.3,0,3.4-0.1
			C168.4,932.9,169.2,931.6,168.6,929.3z M152.8,879.1c3.9,11.8,7.7,23.1,11.5,34.5c0.2,0,0.3-0.1,0.5-0.1
			c1.8-11.9,3.6-23.7,5.5-36.2C164.4,877.8,158.8,878.4,152.8,879.1z M171.2,877.2c-0.9,5.8-1.8,11.2-2.6,16.5
			c-0.8,5.1-1.3,10.4-2.4,15.4c-1.2,5.3-0.5,10.1,1.5,14.9c0.6,1.4,1,2.9,1.6,4.5c4.4-3.3,4.5-8.5,6-13c4-12,7.8-24.2,11.8-36.8
			C181.7,878.2,176.6,877.7,171.2,877.2z M188,878.9c-2.3,7.2-4.5,14.1-6.7,21c-2.7,8.5-5.4,17.1-8.2,25.6c-0.6,1.8-0.5,3.1,1.3,4.2
			c0.5-0.4,1-0.8,1.5-1.1c3.2,3.5,7.7,2.3,11.7,3.8c5.1-16.4,10-32.6,15.1-49.1C197.8,881.8,193,880.4,188,878.9z M203.6,883.6
			c-5.1,16.4-10,32.4-15,48.5c2,1,3.5,0.9,5.5-0.4c5-3.5,8.5-7.9,10.9-13.6c3.6-8.5,7.8-16.7,11.7-25c0.2-0.5,0.5-1,1-1.8
			C212.9,888.7,208.4,886.2,203.6,883.6z M248.1,941.2c-0.8,0-1.7,0-2.7,0.1c0.2,1.1,0.4,1.9,0.6,3.3c1.1-1.1,1.8-1.8,2.6-2.6
			C248.4,941.8,248.3,941.5,248.1,941.2z M247.7,958.5c0.6-0.5,1.3-1,1.8-1.4c0.4-0.3,0.8-0.6,1.1-0.9c0.5-0.4,1-0.8,1.6-1.2l0,0
			h0.1l0,0l0,0c0,0,0,0,0-0.1c0.1,0.1,0.3,0.1,0.4,0.2c0.1,0.1,0.3,0.1,0.4,0.2c0.3,0.1,0.6,0.2,0.9,0.4c0-0.5-0.1-1-0.1-1.4
			c0.1-0.9,0.2-1.7,0.4-2.8c-1.2-0.9-2.6-2.1-3.9-3.2c-0.6-0.1-1.2-0.2-1.8-0.3c-0.8-0.4-1.5-0.8-2.3-1.2c-0.7-0.3-1.5-0.5-2.2-0.8
			c-0.2-0.5-0.4-1.2-0.7-1.9c-0.3,0.1-0.6,0.2-0.9,0.3C242.8,949.7,245.9,953.7,247.7,958.5z M224.5,904.8c-0.4-1.8-0.8-3.7-0.9-5.5
			c-0.2-3.5-2.2-5.6-5.5-7.1c-5,10.7-10,21.2-15,31.7c0.1,0.1,0.2,0.2,0.3,0.3c2.9-2.3,5.8-4.5,8.7-6.8c3.5-2.8,7-5.6,10.6-8.3
			C224.3,908,224.9,906.7,224.5,904.8z M226,926.7c-7.1,5.5-14.1,10.9-21.2,16.3c0.1,0.2,0.3,0.4,0.4,0.6c5.7-2.2,10.6-5.8,15.4-9.5
			c1.8-1.4,3.5-2.9,5.1-4.5c0.6-0.6,0.8-1.5,1.2-2.3L226,926.7z M239.1,962.7c0.4-0.4,0.5-0.5,0.7-0.7c0.6-0.7-1.4-2.1,0.7-2.4
			c-0.2-0.7-0.3-1.6-0.8-2c-1.2-1-2.7-1.8-4-2.7c-0.3-0.1-0.6-0.2-0.9-0.3c-0.9-0.4-1.7-0.7-2.6-1.1c-0.8-0.3-1.5-0.6-2.6-1
			c0-0.2-0.1-1.1-0.3-1.9c-0.5,0.1-0.9,0.2-1.4,0.3c0.6,2.3,1.3,4.6,2.1,7.7c-1-0.6-1.7-0.8-2.2-1.3c-0.4-0.4-0.4-1.1-0.8-1.5
			c-0.5-0.5-1.2-0.8-1.9-1.2c-0.2,0.6-0.5,1.3-0.6,1.9c-0.1,0.3,0.3,0.6,0.2,0.9c-0.1,0.7-0.4,1.3-0.6,2c-0.6-0.3-1.1-0.5-1.7-0.8
			c-0.5-0.3-1-0.5-1.5-0.8c-0.3-0.2-0.7-0.4-1-0.6c0.3-1.1,0.6-2.2,0.9-3.5c-1.2-0.9-2.1-0.6-2.7,1c-0.3,0.7-0.7,1.4-1.1,2.1
			c-0.1,0-0.3,0-0.4,0c-0.9,0.3-1.8,0.7-2.9,1.1l-0.7-1.7c-0.2,0.1-0.4,0.2-0.6,0.3l1.6,3.5c-0.2,0.2-0.7,0.3-0.8,0.6
			c-0.1,0.4,0,0.9,0,1.3c-0.5-0.3-1.1-0.5-1.4-0.9c-0.5-0.7-0.7-1.7-1.2-2.4c-0.3-0.4-1.3-0.9-1.6-0.8c-0.6,0.4-1.2,1.2-1.2,1.8
			c0,1,0.6,2,1.2,3.9c-2.7-0.6-4.8-1.1-7-1.6l0.9,2c-0.9,0.3-1.8,0.7-3,1.1c1.5,0.7,8.7,2.5,9.9,3c4.4,1.5,15.3,6.2,20,7.9
			c-0.8-3-1.4-5.8-2.1-8.5c1.2-0.7,2.3-1.2,4-2.1c-1.4-1-2.5-1.8-3.5-2.6c0-0.2,0-0.5-0.1-0.7c0.9-0.1,1.8-0.1,2.7-0.2l2.7-0.2
			c0,0.1,0,0.1,0.1,0.2c0.2,0.5,0.3,1,0.5,1.4c1.2-0.9,2.2-1.7,3.2-2.4C238,961.5,238.5,962.1,239.1,962.7z M249.9,994.7
			c-2.7,1-5.1,1.9-7.4,2.7c0,0.2,0,0.3,0,0.5c1.9,0.5,3.9,1,5.5,1.4C248.6,997.8,249.2,996.4,249.9,994.7z M248.1,1000.1
			c-3.1-0.6-5.9-1.1-8.7-1.8c-3-0.7-5.9-1.7-8.8-2.6c-2.4-0.7-4.9-1.4-7.3-1.8c-1.2-0.2-2.7-0.2-3.7,0.3c-3.1,1.5-5.9,3.3-8.9,5
			c-0.2,0.1-0.4,0.3-0.6,0.4c-3.1,1.5-3.1,1.5-1.1,4.1c6.5,8.8,13.1,17.6,19.8,26.7C237.1,1021.4,243.4,1011.5,248.1,1000.1z
			 M228.1,1031.1c-3.5-4.7-6.8-9.2-10.1-13.7c-3.5-4.8-7.1-9.5-10.6-14.3c-1.3-1.8-2.5-1.7-4-0.5c-0.4,0.3-0.9,0.9-1.3,0.9
			c-2.9,0.1-2.4,1.5-1.5,3.4c5.6,11,11.1,22.1,16.9,33.6C221.1,1037.3,224.5,1034.3,228.1,1031.1z M216.3,1041
			c-1.2-2.8-2.3-5.4-3.6-8c-4.3-8.6-8.7-17.2-13-25.7c-1-2-2-2.3-3.9-1c-3.8,2.6-11,1.4-13.7-2.5c-0.3-0.4-0.1-1.3,0.2-1.8
			c0.3-0.6,1.2-1.2,1.1-1.7c-0.9-5.2,3.1-7.2,6.2-9.9c0.4-0.3,0.6-0.8,0.9-1.3c-0.6-0.2-1.2-0.7-1.6-0.5c-1.6,0.7-3.4,1.3-4.5,2.5
			c-1.6,1.7-2.6,3.9-3.9,5.9c-1.4,2-2.8,4-4.6,6.5c6.7,15.6,13.6,31.8,20.7,48.3C203.7,1049.1,210.2,1045.5,216.3,1041z
			 M195.7,1052.1c-7.5-17.3-14.5-34.7-22.3-51.7c-0.4,0.1-0.7,0.2-1.1,0.3c-1.4,18.6-2.7,37.3-4.1,56.2
			C177.6,1057,186.6,1055.5,195.7,1052.1z M167.3,1057.2c1.4-19.1,2.7-37.7,4.1-56.4c-0.2-0.1-0.4-0.3-0.6-0.4
			c-0.6,0.6-1.4,1.2-1.7,1.9c-6,17.5-11.9,35-17.9,53C156.8,1056,161.9,1056.6,167.3,1057.2z M140.9,1052.1c1.3-2.7,2.6-5.5,3.9-8.3
			c0.3,0.1,0.5,0.1,0.8,0.2c-0.5,3-0.9,6.1-1.5,9.4c1.9,0.5,4,1.1,6.3,1.7c2.5-7.4,5-14.6,7.4-21.8c3.1-9.1,6.1-18.2,9.2-27.3
			c0.5-1.4,0.7-2.5,0.6-3.5c0-0.1,0-0.3,0-0.4v-0.1c0-0.1,0-0.2-0.1-0.3c0-0.2-0.1-0.3-0.2-0.5c-0.1-0.2-0.2-0.4-0.3-0.5
			s-0.2-0.2-0.3-0.4l0,0c-0.1-0.2-0.3-0.3-0.4-0.4c-0.5-0.4-1-0.7-1.8-1c-0.1,0-0.2-0.1-0.4-0.1c-0.1,0-0.3-0.1-0.4-0.1
			c-0.1,0-0.3-0.1-0.4-0.1c-0.1,0-0.3-0.1-0.4-0.1c-0.1,0-0.3-0.1-0.5-0.1l0,0l0,0c0.3-0.1,0.6-0.3,0.9-0.4c0.1-0.1,0.2-0.1,0.4-0.2
			c1.8-0.8,2.4-1.9,0.7-3.3c0.7-1.7,2.9-3.3,0.3-5c-1.7-1.1-3-0.1-3.9,1.2c-1,1.4-0.2,3.7,0.9,4.3c0.1,0.3,0.1,0.6,0.2,0.9
			c0,0.1,0,0.2,0.1,0.3c0.1,0.4,0.2,0.8,0.2,1.1c0.1,0.4,0.2,0.8,0.2,1.1l0,0l0,0c-0.3-0.3-0.7-0.5-1-0.7c-0.1,0-0.1-0.1-0.2-0.1
			c-0.4-0.2-0.9-0.2-1.3-0.2c-0.2,0-0.4,0-0.6,0.1c-0.1,0-0.2,0-0.3,0.1c-0.1,0-0.2,0-0.2,0.1c-0.2,0.1-0.4,0.2-0.7,0.3
			c-1.8,0.8-3.4,0-4.7-1.4l0,0c0.5,0.2,1,0.3,1.4,0.4c0.2,0,0.4,0.1,0.6,0.1c0.6,0.1,1.2,0,1.7-0.1c0.1,0,0.2,0,0.2-0.1
			c0.6-0.2,1.2-0.5,1.7-0.9c0.6-0.5,0.7-1.7,1-2.6c-0.9-0.2-2-0.9-2.5-0.5c-0.7,0.4-1.3,1-1.9,1.5c-0.2,0.2-0.4,0.4-0.6,0.5
			c-0.4,0.4-0.7,0.7-1.1,1.1l0,0c-0.2,0.2-0.4,0.4-0.6,0.5l0,0l0,0c0,0-0.1,0-0.1-0.1l-0.1-0.1c-0.1,0-0.2-0.1-0.3-0.1l0,0
			c-0.2-0.1-0.3-0.2-0.4-0.2l0,0c-0.1-0.1-0.3-0.1-0.4-0.2c-0.1,0-0.1-0.1-0.2-0.1c-0.1,0-0.1,0-0.2-0.1c-0.1,0-0.1,0-0.2-0.1
			c-0.1,0-0.3-0.1-0.4-0.1c-0.2,0-0.4,0-0.6,0.1l0,0c0,0,0,0-0.1,0s-0.1,0.1-0.2,0.1c-0.1,0.1-0.1,0.1-0.2,0.2
			c-0.1,0.1-0.2,0.2-0.2,0.4c0,0.1-0.1,0.2-0.1,0.2v0.1c-0.1,0.4-0.3,0.8-0.4,1.3c-4.4,16.8-8.9,33.5-13.3,50.3
			c-0.2,0.7-0.3,1.4-0.5,2.3C137.3,1050.8,139,1051.4,140.9,1052.1z M134.5,1050.1c4.8-18.3,9.5-36,14.4-54.5
			c-3.6,3.1-6.9,5.4-9,9.1c-6.5,11.4-13.4,22.7-20.1,34.1c-0.4,0.6-0.7,1.3-1.2,2.3C123.8,1044.1,128.9,1047,134.5,1050.1z
			 M148.5,994.7c-0.6-0.5-1.1-0.9-1.7-1.4c-1,1.6-1.8,2.9-2.6,4.2c-0.1,0.2-0.1,0.4-0.2,1C145.6,997.2,147,996,148.5,994.7z
			 M117.8,1040.5c7.3-12.4,14.3-24.2,21.4-36.1c-0.1-0.1-0.3-0.2-0.4-0.3c-10.6,8.8-21.1,17.7-32.1,26.9
			C110.5,1034.2,114,1037.2,117.8,1040.5z M102.3,1025.7c1.3,1.5,2.6,3,3.9,4.5c4.7-3.9,9.2-7.7,13.7-11.4
			c5.5-4.6,10.9-9.5,16.7-13.9c4.6-3.5,7.3-8.1,10.2-13.6c-5.1,2.6-9.7,5-14.3,7.3c-14.1,7.3-22,11.3-32.7,17
			c-1.8,1-3.3,1.8-4.2,2.3C97.8,1020.5,100,1023.1,102.3,1025.7z M95.1,1017.1c10.9-5.7,24.2-12.5,35.1-18.2
			c4.7-2.4,9.3-4.9,14.2-7.4c-0.8-0.8-1.4-1.4-1.8-1.9c1.1-0.3,2.2-0.7,3.8-1.1c0.1,0.1,0.8,0.5,1.7,1c1.3-2.3,2.6-4.4,3.8-6.5
			c-3.5-1.5-6-1.3-7.8,0.6c-0.3-0.8-0.4-2-0.9-2.2c-1.5-0.4-3.1-0.4-4.7-0.5c-0.1,0-0.6,1-0.4,1.2c1,1.1,2,2.4,3.3,3.2
			c0.4,0.3,1.6-0.6,2.4-1l1.1,2.5c-0.8,0.1-1.9,0.4-2.7,0.5c-4.3-2.4-5.2-7.1-7.6-11.4c-15.4,9-30.7,17.9-46.2,26.9
			C89.8,1005.8,93.6,1015.2,95.1,1017.1z M134.6,974.8c-0.1-0.3-0.1-0.6-0.2-0.8c-4.3-0.1-8.3-1.8-12.8-0.3
			c-12.3,4.2-24.8,8.1-37.1,12.1c-0.4,0.1-0.7,0.3-1.6,0.7c1.6,5.1,3.1,10.2,4.8,15.7C103.6,992.9,119.1,983.8,134.6,974.8z"/>
		<path class="st3" d="M523.6,806.1L523.6,806.1L523.6,806.1L523.6,806.1z"/>
		<path class="st3" d="M211.5,925.9h0.1l0,0H211.5L211.5,925.9z"/>
		<path class="st3" d="M121.8,968.9L121.8,968.9L121.8,968.9L121.8,968.9L121.8,968.9C121.8,968.9,121.7,968.9,121.8,968.9
			L121.8,968.9L121.8,968.9z"/>
		<path class="st3" d="M559.4,845.5L559.4,845.5L559.4,845.5L559.4,845.5z"/>
		<path class="st3" d="M559.3,845.6C559.3,845.6,559.4,845.6,559.3,845.6C559.4,845.6,559.4,845.6,559.3,845.6
			C559.4,845.6,559.4,845.5,559.3,845.6L559.3,845.6z"/>
		<path class="st3" d="M193.5,934.2c1.2-0.9,2.2-1.7,3.2-2.4c-0.6-2-1.2-4-1.8-5.9c-0.3-0.1-0.6-0.2-0.9-0.3c-0.9,0.8-1.9,1.6-3,2.5
			c3,0.6,2.4,2.6,2,4.5c0,0.1,0,0.1,0.1,0.2C193.2,933.3,193.4,933.8,193.5,934.2z"/>
		<path class="st3" d="M109.2,923.9C109.3,923.9,109.3,923.9,109.2,923.9C109.3,923.9,109.3,923.9,109.2,923.9
			C109.3,923.9,109.3,923.9,109.2,923.9C109.3,923.8,109.3,923.9,109.2,923.9C109.3,923.9,109.2,923.9,109.2,923.9z"/>
		<path class="st3" d="M112.7,967L112.7,967L112.7,967L112.7,967L112.7,967L112.7,967L112.7,967z"/>
		<path class="st3" d="M210.8,925.7c0.2,0.1,0.4,0.1,0.6,0.2l0,0l0,0l0,0l0,0h0.1l0,0c0,0,0,0,0-0.1l0,0c-0.1-1.2-0.3-2.4-0.4-3.1
			l-1.6-3.6c-0.6-0.1-1.2-0.2-1.8-0.3c-1.7,0.4-1.2,1.6-0.8,2.7C207.7,923.5,208.9,925.1,210.8,925.7z"/>
		<path class="st3" d="M518.3,823.7L518.3,823.7C518.4,823.7,518.3,823.7,518.3,823.7L518.3,823.7z"/>
		<path class="st3" d="M506.5,931c0.9-1.1,1.9-2.1,2.8-3.2c-0.2-0.6-0.4-1.6-0.6-1.6c-0.9-0.1-1.8,0.2-2.7,0.4
			c-0.1,0.3-0.2,0.5-0.3,0.8c0,0.1-0.1,0.1-0.1,0.2C505.1,928.7,505,929.9,506.5,931z"/>
		<path class="st3" d="M176,931.1c0.4,0.4,1.2,0.4,1.8,0.6c0.4-1.4,3.1-0.7,2.5-3c-0.3-0.2-0.7-0.4-1-0.6c-0.1,0.5-0.1,1-0.2,1.5
			c-1.2-0.8-1.9-1.3-2.7-1.8c-0.1,0-0.3,0-0.4,0C174.8,928.9,175.1,930.1,176,931.1z"/>
		<path class="st3" d="M555.3,846.3L555.3,846.3L555.3,846.3L555.3,846.3L555.3,846.3L555.3,846.3z"/>
		<path class="st3" d="M211.5,925.9C211.5,925.9,211.6,925.9,211.5,925.9C211.6,925.9,211.6,925.9,211.5,925.9
			C211.6,925.9,211.6,925.9,211.5,925.9C211.6,925.9,211.5,925.9,211.5,925.9z"/>
		<path class="st3" d="M559.3,845.6L559.3,845.6C559.4,845.6,559.3,845.6,559.3,845.6L559.3,845.6z"/>
		<path class="st3" d="M555.8,853.6L555.8,853.6C555.9,853.6,555.9,853.5,555.8,853.6C555.9,853.5,555.9,853.5,555.8,853.6
			L555.8,853.6C555.8,853.5,555.8,853.5,555.8,853.6L555.8,853.6L555.8,853.6z"/>
		<path class="st3" d="M544.4,809.7L544.4,809.7C544.4,809.8,544.4,809.7,544.4,809.7L544.4,809.7z"/>
		<path class="st3" d="M544.4,809.8L544.4,809.8C544.5,809.8,544.4,809.8,544.4,809.8L544.4,809.8L544.4,809.8L544.4,809.8z"/>
		<path class="st3" d="M544.7,812.3C544.7,812.3,544.8,812.3,544.7,812.3L544.7,812.3C544.8,812.3,544.8,812.3,544.7,812.3
			C544.8,812.3,544.8,812.3,544.7,812.3C544.8,812.3,544.8,812.3,544.7,812.3C544.8,812.3,544.8,812.3,544.7,812.3L544.7,812.3
			L544.7,812.3z"/>
		<path class="st3" d="M527.1,806L527.1,806L527.1,806L527.1,806C527.2,806,527.2,806,527.1,806L527.1,806
			C527.1,806,527.1,806,527.1,806S527.1,805.9,527.1,806C527.1,805.9,527.1,805.9,527.1,806z"/>
		<path class="st3" d="M98.8,928.2L98.8,928.2L98.8,928.2C98.8,928.2,98.8,928.1,98.8,928.2C98.8,928.1,98.8,928.1,98.8,928.2
			C98.8,928.1,98.8,928.2,98.8,928.2L98.8,928.2z"/>
		<path class="st3" d="M544.4,809.8L544.4,809.8L544.4,809.8L544.4,809.8L544.4,809.8L544.4,809.8z"/>
		<path class="st3" d="M500.5,813.5L500.5,813.5L500.5,813.5L500.5,813.5L500.5,813.5L500.5,813.5z"/>
		<path class="st3" d="M193.9,921.3L193.9,921.3c0,0.1,0.1,0.1,0.1,0.1C193.9,921.4,193.9,921.4,193.9,921.3z"/>
		<path class="st3" d="M193.8,921.6c0-0.1,0-0.1,0-0.2c0,0,0,0-0.1,0C193.8,921.4,193.8,921.5,193.8,921.6z"/>
		<path class="st3" d="M193.6,921.2c0,0,0.1,0,0.1,0.1v-0.1l0,0C193.7,921.2,193.7,921.2,193.6,921.2
			C193.7,921.2,193.7,921.2,193.6,921.2C193.7,921.2,193.6,921.2,193.6,921.2z"/>
		<path class="st3" d="M193,920.6c0.2,0.2,0.5,0.4,0.7,0.6l0,0c0,0,0,0,0-0.1v0.1l0,0l0.1,0.1l0.1-1.1
			C193.7,920.4,193.3,920.5,193,920.6z"/>
		<path class="st3" d="M588.9,740.8L588.9,740.8L588.9,740.8L588.9,740.8z"/>
		<path class="st3" d="M575.5,751.2l3.1,6.9c0-0.1,0-0.2,0-0.3c-0.9-2.2-1.8-4.4-2.9-6.4C575.5,751.3,575.5,751.2,575.5,751.2z"/>
	</g>
</g>
</svg>
